<svg xmlns="http://www.w3.org/2000/svg" width="42" height="42" viewBox="0 0 42 42">
  <g fill="#78FEE0" transform="translate(1 1)">
    <path d="M19.1055728,0.447213595 L39.1055728,40.4472136 L40,39 L0,39 L0.894427191,40.4472136 L20.8944272,0.447213595 L19.1055728,0.447213595 Z M20.8944272,-0.447213595 C20.5259029,-1.18426213 19.4740971,-1.18426213 19.1055728,-0.447213595 L-0.894427191,39.5527864 C-1.22687774,40.2176875 -0.743382021,41 0,41 L40,41 C40.743382,41 41.2268777,40.2176875 40.8944272,39.5527864 L20.8944272,-0.447213595 Z"/>
    <polygon points="20 8 34 36 6 36"/>
    <path d="M19.5527864,8.2236068 L33.5527864,36.2236068 L34,35.5 L6,35.5 L6.4472136,36.2236068 L20.4472136,8.2236068 L19.5527864,8.2236068 Z M20.4472136,7.7763932 C20.2629515,7.40786893 19.7370485,7.40786893 19.5527864,7.7763932 L5.5527864,35.7763932 C5.38656113,36.1088437 5.62830899,36.5 6,36.5 L34,36.5 C34.371691,36.5 34.6134389,36.1088437 34.4472136,35.7763932 L20.4472136,7.7763932 Z"/>
  </g>
</svg>
