<svg xmlns="http://www.w3.org/2000/svg" width="42" height="42" viewBox="0 0 42 42">
  <g fill="#78FEE0" transform="translate(1 1)">
    <path d="M19.1055728,0.447213595 L39.1055728,40.4472136 L40,39 L0,39 L0.894427191,40.4472136 L20.8944272,0.447213595 L19.1055728,0.447213595 Z M20.8944272,-0.447213595 C20.5259029,-1.18426213 19.4740971,-1.18426213 19.1055728,-0.447213595 L-0.894427191,39.5527864 C-1.22687774,40.2176875 -0.743382021,41 0,41 L40,41 C40.743382,41 41.2268777,40.2176875 40.8944272,39.5527864 L20.8944272,-0.447213595 Z"/>
    <polygon points="20 11 32 35 8 35"/>
    <path d="M19.5527864,11.2236068 L31.5527864,35.2236068 L32,34.5 L8,34.5 L8.4472136,35.2236068 L20.4472136,11.2236068 L19.5527864,11.2236068 Z M20.4472136,10.7763932 C20.2629515,10.4078689 19.7370485,10.4078689 19.5527864,10.7763932 L7.5527864,34.7763932 C7.38656113,35.1088437 7.62830899,35.5 8,35.5 L32,35.5 C32.371691,35.5 32.6134389,35.1088437 32.4472136,34.7763932 L20.4472136,10.7763932 Z"/>
  </g>
</svg>
