<svg id="Layer_1" xmlns="http://www.w3.org/2000/svg" viewBox="0 0 695.8 152.2"><style>.st0{fill:currentColor}</style><path class="st0" d="M9.5 137v-34.2c2.4 0 4.7-.1 7-.1 6.3 0 12 .6 15.6 4.2 2.7 2.5 4.3 6.7 4.3 13.1 0 6.9-1.8 11.1-4.7 13.6-3.3 2.8-8.1 3.4-13.4 3.5-2.4.1-6 0-8.8-.1zm22.2-17c0-11.3-4.7-13.5-14-13.6-1.2 0-2.4 0-3.8.1v26.7c1.6.1 3.1.1 4.4.1 8.9.1 13.4-2.1 13.4-13.3zM54.6 102.8h4.9L72.3 137h-5.1l-3.5-9.9h-14l-3.5 9.9h-4.7l13.1-34.2zm-3.7 21.1h11.7l-5.8-16.6-5.9 16.6zM72.9 102.8h27.8v3.8l-11.9-.1V137h-4.4v-30.5l-11.6.1v-3.8zM114.5 102.8h4.9l12.8 34.2H127l-3.5-9.9h-14L106 137h-4.7l13.2-34.2zm-3.8 21.1h11.7l-5.8-16.6-5.9 16.6zM155.7 137v-34.2c2.4 0 4.7-.1 7-.1 6.3 0 12 .6 15.6 4.2 2.7 2.5 4.3 6.7 4.3 13.1 0 6.9-1.8 11.1-4.7 13.6-3.3 2.8-8.1 3.4-13.4 3.5-2.4.1-5.9 0-8.8-.1zm22.2-17c0-11.3-4.7-13.5-14-13.6-1.2 0-2.4 0-3.8.1v26.7c1.6.1 3.1.1 4.4.1 8.9.1 13.4-2.1 13.4-13.3zM204.5 122.7c-1.3.1-2.5.1-3.1.1h-4.7l.1 14.2h-4.5v-34.2s6.6-.1 10.3-.1c3.9 0 6.6.3 9.2 1.8 2.8 1.6 4.5 4.4 4.5 8.5 0 3.6-2 6.7-5.4 8.4-.5.3-1.1.5-1.8.6l9.1 15h-5.4l-8.3-14.3zm-7.9-16.3v12.7h5c2.3 0 5.2 0 6.9-.9 1.6-.7 3.1-2.5 3.1-5.4 0-2.1-.7-3.7-1.9-4.8-1.5-1.3-3.9-1.8-6.9-1.8-3 .1-6.2.2-6.2.2zM226.2 102.8h4.4V137h-4.4v-34.2zM238.7 102.8h4.9l9.4 29.8 9.6-29.8h4.9l-12 34.2h-5.7l-11.1-34.2zM275.4 102.8h20.5v3.9h-16.1v11.2h13.7v3.7h-13.7v11.7l16.6-.1v3.9h-20.9v-34.3zM305 102.8h5.6l18.3 28.5-.3-28.5h4.3V137h-5.5L309 108l.3 29H305v-34.2zM359.9 102.8h20.5v3.9h-16.1v11.2H378v3.7h-13.7v11.7l16.6-.1v3.9H360v-34.3zM401.1 121.8L392 137h-4.8l11.3-18.2-9.8-16h5.2l7.7 12.9 7.3-12.9h4.7l-9.3 16L415 137h-5.3l-8.6-15.2zM422.6 102.8s6.4-.1 10-.1c3.7 0 6.4.5 8.8 2 2.7 1.7 4.2 4.3 4.2 8.6 0 3.8-2.4 7.1-5.7 8.7-1.7.8-3.9 1.3-8 1.3H427l.1 13.7h-4.5v-34.2zm4.3 3.6v13.2h4.9c1.3 0 4.5.3 6.8-1.3 1.2-.8 2.6-2.6 2.6-5.2 0-2.4-.7-4-2-5.1-1.5-1.2-3.6-1.7-6.3-1.7-2.9 0-6 .1-6 .1zM453.4 102.8h20.5v3.9h-16.1v11.2h13.7v3.7h-13.7v11.7l16.6-.1v3.9h-20.9v-34.3zM495.2 122.7c-1.3.1-2.5.1-3.1.1h-4.7l.1 14.2H483v-34.2s6.6-.1 10.3-.1c3.9 0 6.6.3 9.2 1.8 2.8 1.6 4.5 4.4 4.5 8.5 0 3.6-2 6.7-5.4 8.4-.5.3-1.1.5-1.8.6l9.1 15h-5.4l-8.3-14.3zm-7.9-16.3v12.7h5c2.3 0 5.2 0 6.9-.9 1.6-.7 3.1-2.5 3.1-5.4 0-2.1-.7-3.7-2-4.8-1.5-1.3-3.9-1.8-6.9-1.8-2.8.1-6.1.2-6.1.2zM517 102.8h4.4V137H517v-34.2zM532.3 102.8h20.5v3.9h-16.1v11.2h13.7v3.7h-13.7v11.7l16.6-.1v3.9h-20.9v-34.3zM561.9 102.8h5.6l18.3 28.5-.3-28.5h4.3V137h-5.5l-18.4-29 .3 29h-4.3v-34.2zM599.3 120.3c0-11.1 6.3-17.9 15.3-17.9 10.2 0 12.9 8.3 12.9 8.3l-3.9 1.7s-2.1-6.3-9.2-6.3c-6.4 0-10.5 5.7-10.5 14.1 0 8.4 3.8 13.6 10.4 13.6 7.4 0 9.4-6.8 9.4-6.8l4 1.3s-2.4 9.4-13.6 9.4c-8.5 0-14.8-5.9-14.8-17.4zM636.2 102.8h20.5v3.9h-16.1v11.2h13.7v3.7h-13.7v11.7l16.6-.1v3.9h-20.9v-34.3zM664.2 128l4.3-.8s.5 6.8 9.2 6.8c5.4 0 8.4-2.5 8.4-5.9 0-4.2-5.2-5.8-9.7-7.2-6.7-2-10.3-4.6-10.3-9.9 0-5.6 5.3-8.8 11.8-8.8 9.8 0 11.7 7.3 11.7 7.3l-4 1.4s-1.4-4.9-7.8-4.9c-4.1 0-7.4 1.8-7.4 5 0 3.4 4.2 4.9 8.7 6.2 6.7 2 11.4 4.8 11.4 11 0 6.6-6.1 9.7-12.9 9.7-12.8-.2-13.4-9.9-13.4-9.9zM347.6 3.1c-6.6 0-12 5.4-12 12s5.3 12 12 12c6.6 0 12-5.4 12-12-.1-6.6-5.4-12-12-12zm0 16.9c-2.7 0-4.9-2.2-4.9-4.9s2.2-4.9 4.9-4.9 4.9 2.2 4.9 4.9-2.2 4.9-4.9 4.9z"/><g><path class="st0" d="M32.6 60.6c-9 0-14.4-7-14.4-20.5 0-13.1 6-21 14.5-21 8.1 0 11.6 5.8 12.6 9.5l11.5-3.1c-1.9-6.5-8.5-16-24-16C16 9.3 5.5 22.3 5.5 40.3c0 18.5 8.9 30.1 27.1 30.1 16.7 0 23.2-10.9 24.9-18.1l-11.8-2.4c-.9 4.4-4.3 10.7-13.1 10.7zm47.5-50.2H68.2V69h38.4V58.6H80.2l-.1-48.2zm77 48.6l-28.5.1V44H152v-9.4h-23.3V20.2h27.9v-9.8h-39.7V69h40.4V59zm44.2 10l20.3-58.5h-11.2L194 57.4l-16.9-46.9h-11.4L186.1 69h15.2zm69.6-10h-28.4V44h23.2v-9.4h-23.2V20.2h27.7v-9.8h-39.5V69h40.2V59zm33.4-11.5c.3 0 2.2-.1 2.7-.2L317.4 69H331l-13.5-24.5c6.2-2.6 10.8-8.6 10.8-15.4 0-8.5-3.6-14.3-11.3-17.1-4.1-1.6-8.8-2.1-14.8-2.1-8.8 0-19.6.3-19.6.3V69h11.9V47.5h9.8zm-9.9-27.9s5.4-.2 8.3-.2c4.9 0 8.2.6 10.5 2.5 1.9 1.7 3 4 3 7.1 0 4.2-2 6.7-4.4 7.9-2.9 1.5-7.2 1.5-12.7 1.5h-4.7V19.6zM368.4 68.7h11.9l-.1-24.7 21.4.1v-9.7h-21.3v-14h24.6V10.2h-36.5zM449.1 44.2c6.2-2.6 10.8-8.6 10.8-15.4 0-8.5-3.6-14.3-11.3-17.1-4.1-1.6-8.8-2.1-14.8-2.1-8.8 0-18.4.3-18.4.3v58.7h11.8V47.1h9.4c.3 0 1.5-.1 2-.2L449 68.7h13.6l-13.5-24.5zm-5.7-7.5c-2.9 1.5-6.9 1.5-12.4 1.5h-3.8V19.4s4.3-.2 7.2-.2c4.9 0 8.2.6 10.5 2.5 1.9 1.7 3 4 3 7.1-.1 4.2-2.1 6.7-4.5 7.9zM569.4 53.1l-22.7-42.9h-16.5v58.5h11.7l-.4-44.3L565 68.7h16V10.2h-12.1zM663.2 43.8h22.2v-9.4h-22.1l-.1-14.4h26.7v-9.8h-38.4v58.5h39.1v-9.9h-27.3zM640.6 10.2h-14.7l-20 23-.1-23h-11.6v58.5h11.6V48.6l6.4-7.5 16.9 27.6h15l-23.9-35.5zM502.8 9.9h-15.2l-19 58.9h12.1l4.4-15.2h19.6l4.3 15.1 12.9.1-19.1-58.9zm-15.1 34.3l7.2-25 7.1 25h-14.3z"/></g></svg>
