<svg xmlns="http://www.w3.org/2000/svg" xmlns:xlink="http://www.w3.org/1999/xlink" width="357" height="203" viewBox="0 0 357 203">
  <defs>
    <polygon id="cf-logo-a" points=".06 .337 356.432 .337 356.432 202.94 .06 202.94"/>
  </defs>
  <g fill="none" fill-rule="evenodd">
    <mask id="cf-logo-b" fill="#fff">
      <use xlink:href="#cf-logo-a"/>
    </mask>
    <path fill="currentColor" d="M140.268,178.439 L147.443,153.438 L154.576,178.439 L140.268,178.439 Z M140.147,144.127 L121.156,203.001 L133.228,203.001 L137.591,187.767 L157.236,187.767 L161.539,202.877 L174.41,203.001 L155.328,144.127 L140.147,144.127 Z M293.148,144.437 L278.416,144.437 L258.381,167.487 L258.377,144.437 L246.742,144.437 L246.742,203.001 L258.373,203.001 L258.373,182.818 L264.773,175.369 L281.596,203.001 L296.639,203.001 L272.756,167.46 L293.148,144.437 Z M356.432,7.356 L356.432,0.337 C349.822,0.339 344.479,5.692 344.473,12.298 C344.479,18.901 349.822,24.253 356.432,24.256 L356.432,17.237 C353.705,17.229 351.496,15.025 351.492,12.296 C351.496,9.571 353.703,7.364 356.432,7.356 Z M0,137.477 L0,144.495 C2.727,144.499 4.936,146.708 4.939,149.436 C4.936,152.159 2.729,154.365 0,154.374 L0,161.393 C6.607,161.389 11.954,156.038 11.958,149.433 C11.954,142.833 6.607,137.481 0,137.477 Z M315.771,178.059 L337.896,178.082 L337.896,168.702 L315.791,168.705 L315.771,154.258 L342.395,154.284 L342.395,144.437 L304.053,144.437 L304.053,203.001 L343.092,203.001 L343.092,193.051 L315.791,193.055 L315.771,178.059 Z M221.902,187.308 L199.232,144.437 L182.732,144.437 L182.732,203.001 L194.453,203.001 L194.051,158.699 L217.492,203.001 L233.518,203.001 L233.518,144.437 L221.426,144.437 L221.902,187.308 Z M95.888,170.95 C93.019,172.422 89.034,172.422 83.452,172.422 L79.602,172.422 L79.6,153.661 C79.6,153.661 83.87,153.428 86.816,153.428 C91.7,153.428 95.034,154.049 97.283,155.91 C99.221,157.615 100.306,159.94 100.306,163.042 C100.306,167.227 98.29,169.71 95.888,170.95 Z M112.402,163.12 C112.402,154.668 108.758,148.776 101.082,146.063 C96.973,144.437 92.243,143.973 86.272,143.973 C77.511,143.973 67.897,144.282 67.897,144.282 L67.897,203.001 L79.685,203.001 L79.68,181.495 L89.096,181.495 C89.405,181.495 90.615,181.418 91.08,181.338 L101.548,203.001 L115.115,203.001 L101.625,178.47 C107.828,175.911 112.402,169.864 112.402,163.12 Z M20.921,203.001 L32.784,203.001 L32.763,178.294 L54.166,178.315 L54.166,168.624 L32.784,168.664 L32.78,154.647 L57.422,154.668 L57.422,144.437 L20.921,144.437 L20.921,203.001 Z M303.322,16.835 C303.322,16.835 308.715,16.603 311.66,16.603 C316.545,16.603 319.879,17.223 322.127,19.083 C324.064,20.79 325.15,23.115 325.15,26.217 C325.15,30.404 323.135,32.885 320.73,34.125 C317.863,35.597 313.566,35.597 307.982,35.597 L303.324,35.597 L303.322,16.835 Z M313.268,44.67 C313.578,44.67 315.459,44.593 315.924,44.515 L326.391,66.146 L339.959,66.146 L326.467,41.645 C332.67,39.087 337.246,33.04 337.246,26.294 C337.246,17.843 333.602,11.95 325.926,9.237 C321.816,7.608 317.088,7.144 311.117,7.144 C302.355,7.144 291.469,7.453 291.469,7.453 L291.469,66.146 L303.332,66.146 L303.326,44.67 L313.268,44.67 Z M279.824,56.222 L251.473,56.225 L251.453,41.234 L274.629,41.258 L274.629,31.877 L251.473,31.879 L251.453,17.431 L279.129,17.454 L279.129,7.608 L239.609,7.608 L239.609,66.146 L279.824,66.146 L279.824,56.222 Z M210.229,66.146 L230.57,7.608 L219.395,7.608 L203.018,54.53 L186.082,7.608 L174.691,7.608 L195.033,66.146 L210.229,66.146 Z M166.018,56.222 L137.473,56.299 L137.452,41.234 L160.822,41.258 L160.822,31.877 L137.473,31.879 L137.456,17.431 L165.321,17.454 L165.321,7.608 L125.61,7.608 L125.61,66.146 L166.018,66.146 L166.018,56.222 Z M89.081,7.608 L77.14,7.608 L77.14,66.146 L115.498,66.146 L115.498,55.833 L89.057,55.863 L89.081,7.608 Z M41.556,57.771 C32.562,57.771 27.135,50.795 27.135,37.226 C27.135,24.124 33.182,16.216 41.634,16.216 C49.697,16.216 53.186,22.03 54.271,25.673 L65.747,22.573 C63.809,16.06 57.295,6.524 41.71,6.524 C24.963,6.524 14.497,19.471 14.497,37.458 C14.497,55.989 23.414,67.541 41.556,67.541 C58.302,67.541 64.738,56.689 66.445,49.476 L54.659,47.073 C53.805,51.491 50.317,57.771 41.556,57.771 L41.556,57.771 Z" mask="url(#cf-logo-b)"/>
    <path fill="currentColor" d="M31.51 105.324C31.51 99.99 29.282 98.919 24.89 98.897 24.333 98.897 23.733 98.919 23.091 98.94L23.091 111.58C23.84 111.623 24.547 111.644 25.19 111.644 29.368 111.644 31.51 110.616 31.51 105.324zM21.034 113.358L21.034 97.183C22.148 97.162 23.262 97.141 24.333 97.141 27.311 97.162 29.989 97.44 31.724 99.111 32.988 100.311 33.76 102.261 33.76 105.324 33.76 108.602 32.924 110.573 31.553 111.752 29.989 113.08 27.718 113.379 25.211 113.422 24.055 113.444 22.362 113.401 21.034 113.358L21.034 113.358zM40.571 107.145L46.077 107.145 43.335 99.283 40.571 107.145zM42.349 97.183L44.642 97.183 50.683 113.358 48.284 113.358 46.612 108.688 40.014 108.688 38.365 113.358 36.158 113.358 42.349 97.183 42.349 97.183z"/>
    <polyline fill="currentColor" points="50.995 97.183 64.149 97.183 64.149 98.983 58.536 98.94 58.557 113.358 56.458 113.358 56.479 98.94 50.995 98.983 50.995 97.183"/>
    <path fill="currentColor" d="M68.851 107.145L74.356 107.145 71.614 99.283 68.851 107.145zM70.628 97.183L72.921 97.183 78.962 113.358 76.563 113.358 74.892 108.688 68.293 108.688 66.644 113.358 64.437 113.358 70.628 97.183 70.628 97.183zM100.595 105.324C100.595 99.99 98.367 98.919 93.975 98.897 93.418 98.897 92.818 98.919 92.176 98.94L92.176 111.58C92.925 111.623 93.632 111.644 94.275 111.644 98.453 111.644 100.595 110.616 100.595 105.324zM90.119 113.358L90.119 97.183C91.233 97.162 92.347 97.141 93.418 97.141 96.396 97.162 99.074 97.44 100.809 99.111 102.073 100.311 102.845 102.261 102.845 105.324 102.845 108.602 102.009 110.573 100.638 111.752 99.074 113.08 96.803 113.379 94.296 113.422 93.14 113.444 91.447 113.401 90.119 113.358L90.119 113.358zM109.405 98.897L109.427 104.896 111.805 104.896C112.897 104.896 114.247 104.875 115.083 104.489 115.832 104.146 116.539 103.289 116.539 101.939 116.539 100.932 116.218 100.183 115.618 99.69 114.89 99.09 113.754 98.833 112.34 98.833 110.926 98.833 109.405 98.897 109.405 98.897zM113.133 106.588C112.512 106.631 111.955 106.631 111.676 106.631L109.448 106.631 109.491 113.358 107.37 113.358 107.349 97.205C107.349 97.205 110.455 97.141 112.211 97.141 114.033 97.141 115.339 97.269 116.539 97.998 117.846 98.769 118.66 100.054 118.66 102.025 118.66 103.739 117.717 105.217 116.111 105.988 115.854 106.117 115.575 106.224 115.275 106.289L119.581 113.358 117.032 113.358 113.133 106.588 113.133 106.588z"/>
    <polygon fill="currentColor" points="123.402 113.358 125.502 113.358 125.502 97.183 123.402 97.183"/>
    <polyline fill="currentColor" points="129.292 97.183 131.584 97.183 136.019 111.28 140.539 97.183 142.874 97.183 137.261 113.358 134.562 113.358 129.292 97.183"/>
    <polyline fill="currentColor" points="146.642 97.183 156.325 97.183 156.325 99.004 148.698 98.983 148.677 104.253 155.168 104.253 155.168 106.009 148.677 106.009 148.677 111.537 156.496 111.494 156.496 113.358 146.642 113.358 146.642 97.183"/>
    <polyline fill="currentColor" points="160.624 97.183 163.28 97.183 171.914 110.659 171.786 97.183 173.821 97.183 173.821 113.358 171.207 113.358 162.509 99.647 162.638 113.358 160.624 113.358 160.624 97.183"/>
    <polyline fill="currentColor" points="186.562 97.183 196.246 97.183 196.246 99.004 188.619 98.983 188.598 104.253 195.09 104.253 195.09 106.009 188.598 106.009 188.598 111.537 196.418 111.494 196.418 113.358 186.562 113.358 186.562 97.183"/>
    <polyline fill="currentColor" points="206.025 106.181 201.719 113.358 199.448 113.358 204.804 104.767 200.177 97.183 202.619 97.183 206.261 103.289 209.688 97.183 211.917 97.183 207.546 104.767 212.623 113.358 210.139 113.358 206.025 106.181"/>
    <path fill="currentColor" d="M218.216,98.897 L218.237,105.153 L220.552,105.153 C221.151,105.153 222.693,105.282 223.765,104.532 C224.322,104.146 224.986,103.31 224.986,102.068 C224.986,100.954 224.665,100.161 224.043,99.647 C223.357,99.068 222.329,98.833 221.044,98.833 C219.694,98.833 218.216,98.897 218.216,98.897 Z M216.181,97.205 C216.181,97.205 219.202,97.141 220.895,97.141 C222.65,97.141 223.915,97.354 225.071,98.104 C226.336,98.919 227.043,100.14 227.043,102.153 C227.043,103.931 225.886,105.517 224.344,106.267 C223.551,106.653 222.522,106.888 220.573,106.888 L218.259,106.888 L218.302,113.358 L216.181,113.358 L216.181,97.205 L216.181,97.205 Z"/>
    <polyline fill="currentColor" points="230.758 97.183 240.441 97.183 240.441 99.004 232.814 98.983 232.793 104.253 239.285 104.253 239.285 106.009 232.793 106.009 232.793 111.537 240.613 111.494 240.613 113.358 230.758 113.358 230.758 97.183"/>
    <path fill="currentColor" d="M246.786,98.897 L246.808,104.896 L249.186,104.896 C250.278,104.896 251.628,104.875 252.464,104.489 C253.214,104.146 253.921,103.289 253.921,101.939 C253.921,100.932 253.6,100.183 252.999,99.69 C252.27,99.09 251.136,98.833 249.722,98.833 C248.308,98.833 246.786,98.897 246.786,98.897 Z M250.514,106.588 C249.893,106.631 249.336,106.631 249.058,106.631 L246.829,106.631 L246.872,113.358 L244.751,113.358 L244.729,97.205 C244.729,97.205 247.836,97.141 249.593,97.141 C251.414,97.141 252.721,97.269 253.921,97.998 C255.228,98.769 256.041,100.054 256.041,102.025 C256.041,103.739 255.099,105.217 253.492,105.988 C253.235,106.117 252.956,106.224 252.656,106.289 L256.963,113.358 L254.413,113.358 L250.514,106.588 L250.514,106.588 Z"/>
    <polygon fill="currentColor" points="260.783 113.358 262.883 113.358 262.883 97.183 260.783 97.183"/>
    <polyline fill="currentColor" points="268.031 97.183 277.715 97.183 277.715 99.004 270.088 98.983 270.066 104.253 276.559 104.253 276.559 106.009 270.066 106.009 270.066 111.537 277.887 111.494 277.887 113.358 268.031 113.358 268.031 97.183"/>
    <polyline fill="currentColor" points="282.014 97.183 284.671 97.183 293.304 110.659 293.176 97.183 295.211 97.183 295.211 113.358 292.598 113.358 283.899 99.647 284.027 113.358 282.014 113.358 282.014 97.183"/>
    <path fill="currentColor" d="M299.661,105.453 C299.661,100.183 302.617,96.969 306.902,96.969 C311.723,96.969 313.008,100.911 313.008,100.911 L311.187,101.725 C311.187,101.725 310.201,98.769 306.859,98.769 C303.817,98.769 301.91,101.468 301.91,105.431 C301.91,109.395 303.688,111.858 306.838,111.858 C310.352,111.858 311.294,108.624 311.294,108.624 L313.2,109.223 C313.2,109.223 312.065,113.679 306.795,113.679 C302.66,113.679 299.661,110.916 299.661,105.453"/>
    <polyline fill="currentColor" points="317.126 97.183 326.81 97.183 326.81 99.004 319.183 98.983 319.161 104.253 325.652 104.253 325.652 106.009 319.161 106.009 319.161 111.537 326.981 111.494 326.981 113.358 317.126 113.358 317.126 97.183"/>
    <path fill="currentColor" d="M330.325,109.094 L332.339,108.71 C332.339,108.71 332.574,111.901 336.688,111.901 C339.216,111.901 340.65,110.723 340.65,109.137 C340.65,107.145 338.188,106.374 336.066,105.731 C332.917,104.767 331.203,103.568 331.203,101.061 C331.203,98.404 333.71,96.883 336.795,96.883 C341.443,96.883 342.344,100.333 342.344,100.333 L340.458,100.975 C340.458,100.975 339.794,98.64 336.795,98.64 C334.845,98.64 333.303,99.476 333.303,100.997 C333.303,102.625 335.273,103.289 337.395,103.931 C340.565,104.896 342.793,106.203 342.793,109.116 C342.793,112.244 339.901,113.679 336.688,113.679 C330.646,113.679 330.325,109.094 330.325,109.094"/>
  </g>
</svg>
