<svg xmlns="http://www.w3.org/2000/svg" width="137" height="13" viewBox="0 0 137 13">
  <path fill="#B9B9B9" fill-rule="evenodd" d="M117.445259 50.8542867L118.879674 45.9364474 120.306252 50.8542867 117.445259 50.8542867zM117.421258 44.1062288L113.623989 55.6849268 116.037539 55.6849268 116.909894 52.6886003 120.837944 52.6886003 121.698544 55.6605978 124.272017 55.6849268 120.456625 44.1062288 117.421258 44.1062288zM148.013463 44.166931L145.067487 44.166931 141.061557 48.6998414 141.060823 44.166931 138.734949 44.166931 138.734949 55.6849268 141.060088 55.6849268 141.060088 51.7147159 142.340212 50.2496738 145.703508 55.6849268 148.71169 55.6849268 143.935776 48.6950238 148.013463 44.166931zM152.537369 50.7793725L156.960373 50.7837084 156.960373 48.9385551 152.541042 48.9395186 152.537369 46.0985607 157.860159 46.1031375 157.860159 44.166931 150.194107 44.166931 150.194107 55.6849268 158 55.6849268 158 53.7275227 152.541042 53.7280045 152.537369 50.7793725zM133.767763 52.5980288L129.23504 44.166931 125.93591 44.166931 125.93591 55.6849268 128.278682 55.6849268 128.198842 46.9717566 132.885611 55.6849268 136.089963 55.6849268 136.089963 44.166931 133.672249 44.166931 133.767763 52.5980288zM108.571575 49.3808138C107.998005 49.6703535 107.201325 49.6703535 106.084798 49.6703535L105.315303 49.6703535 105.314569 45.9812514C105.314569 45.9812514 106.168556 45.935243 106.7578 45.935243 107.734486 45.935243 108.400631 46.0571291 108.851013 46.4237509 109.238455 46.7585764 109.455196 47.2162515 109.455196 47.8259229 109.455196 48.6490154 109.051836 49.1368007 108.571575 49.3808138zM111.873155 47.8410984C111.873155 46.1792561 111.144804 45.0201337 109.609977 44.4865809 108.788317 44.166931 107.84249 44.0758777 106.649062 44.0758777 104.897004 44.0758777 102.974735 44.1365799 102.974735 44.1365799L102.974735 55.6849268 105.331957 55.6849268 105.330732 51.4552863 107.213571 51.4552863C107.275287 51.4552863 107.517254 51.4391473 107.610319 51.4239717L109.703286 55.6849268 112.415867 55.6849268 109.718471 50.8600678C110.958675 50.3566252 111.873155 49.1671518 111.873155 47.8410984zM93.5818505 55.6849268L95.9535215 55.6849268 95.9503377 50.8248991 100.229583 50.8297168 100.229583 48.9231387 95.9535215 48.9315695 95.9535215 46.1749202 100.880543 46.1792561 100.880543 44.166931 93.5818505 44.166931 93.5818505 55.6849268zM78.7496005 46.0275007C78.7496005 46.0275007 79.8279222 45.9824558 80.4166765 45.9824558 81.393852 45.9824558 82.0602415 46.1038601 82.5093994 46.4702411 82.8970858 46.8055483 83.1143175 47.2634643 83.1143175 47.8728948 83.1143175 48.6962282 82.711202 49.1840135 82.2304513 49.4280266 81.6568811 49.7173254 80.7979953 49.7173254 79.6817132 49.7173254L78.7500903 49.7173254 78.7496005 46.0275007zM80.7382382 51.5022583C80.8004444 51.5022583 81.1763753 51.4870827 81.2694396 51.4711845L83.3621625 55.7251541 86.0752327 55.7251541 83.3775916 50.9063171C84.6177963 50.403838 85.5330105 49.2143646 85.5330105 47.8880703 85.5330105 46.2247827 84.8039249 45.0673465 83.2693431 44.5335528 82.447928 44.2131802 81.5023454 44.1218861 80.3086729 44.1218861 78.5566144 44.1218861 76.3796438 44.1825883 76.3796438 44.1825883L76.3796438 55.7251541 78.7515597 55.7251541 78.750825 51.5022583 80.7382382 51.5022583zM74.0513212 53.7730494L68.3829688 53.7740129 68.3785605 50.8256218 73.0129192 50.8311621 73.0129192 48.9857679 68.3829688 48.9857679 68.3788054 46.1450509 73.9122146 46.1498685 73.9122146 44.2131802 66.0105631 44.2131802 66.0105631 55.7251541 74.0513212 55.7251541 74.0513212 53.7730494zM60.1359998 55.7251541L64.2034008 44.2131802 61.9691222 44.2131802 58.6942374 53.4411145 55.3079203 44.2131802 53.0302933 44.2131802 57.0976943 55.7251541 60.1359998 55.7251541zM51.296113 53.7730494L45.5890654 53.7887067 45.5844122 50.8256218 50.2569762 50.8311621 50.2569762 48.9857679 45.5890654 48.9857679 45.5853918 46.1450509 51.1567614 46.1498685 51.1567614 44.2131802 43.2166597 44.2131802 43.2166597 55.7251541 51.296113 55.7251541 51.296113 53.7730494zM35.9128241 44.2131802L33.5252343 44.2131802 33.5252343 55.7251541 41.1952045 55.7251541 41.1952045 53.6969308 35.907926 53.7029528 35.9128241 44.2131802zM26.4104663 54.0780055C24.6121205 54.0780055 23.5271864 52.7066664 23.5271864 50.0379389 23.5271864 47.461469 24.736043 45.9060963 26.4261402 45.9060963 28.0381124 45.9060963 28.73585 47.0500432 28.9528368 47.7659434L31.2471174 47.156272C30.8596759 45.8752635 29.5572651 44 26.4413244 44 23.092478 44 21 46.5463597 21 50.0834655 21 53.7275227 22.7831615 56 26.4104663 56 29.7588229 56 31.0458046 53.8655479 31.3872037 52.4465142L29.030472 51.9741454C28.8595276 52.843728 28.1622798 54.0780055 26.4104663 54.0780055zM89.5002561 46.564184C88.9122618 46.564184 88.4356689 46.0880545 88.4356689 45.4997439 88.4356689 44.9119455 88.9122618 44.4355599 89.5002561 44.4355599 90.0879943 44.4355599 90.5643311 44.9119455 90.5643311 45.4997439 90.5643311 46.0880545 90.0879943 46.564184 89.5002561 46.564184zM89.5002561 43C88.1193915 43 87 44.1195062 87 45.4997439 87 46.881006 88.1193915 48 89.5002561 48 90.8808646 48 92 46.881006 92 45.4997439 92 44.1195062 90.8808646 43 89.5002561 43z" transform="translate(-21 -43)"/>
</svg>
