<?xml version="1.0" encoding="UTF-8"?>
<svg width="27px" height="50px" viewBox="0 0 27 50" version="1.1" xmlns="http://www.w3.org/2000/svg" xmlns:xlink="http://www.w3.org/1999/xlink">
    <!-- Generator: Sketch 55 (78076) - https://sketchapp.com -->
    <title>Artboard</title>
    <desc>Created with Sketch.</desc>
    <g id="Artboard" stroke="none" stroke-width="1" fill="none" fill-rule="evenodd">
        <g id="Group" transform="translate(1.000000, 15.000000)" stroke="currentColor" stroke-width="0.999999975">
            <path d="M14.5866709,0.0588235294 L20.9948734,0.0588235294 C23.197693,0.0588235294 25,1.92382478 25,4.20415854 L25,8.91347815 C25,11.1934181 23.197693,13.0588235 20.9948734,13.0588235 L4.00512656,13.0588235 C1.80330823,13.0588235 0,11.1934181 0,8.91347815 L0,4.20415854 C0,1.92382478 1.80330823,0.0588235294 4.00512656,0.0588235294 L4.46771868,0.0588235294" id="path50" transform="translate(12.500000, 6.558824) scale(-1, 1) rotate(-180.000000) translate(-12.500000, -6.558824) "></path>
            <polyline id="path52" transform="translate(9.500000, 15.558824) scale(-1, 1) rotate(-180.000000) translate(-9.500000, -15.558824) " points="6 19.0588235 6 12.0588235 13 19.0324845"></polyline>
        </g>
    </g>
</svg>
