<?xml version="1.0" encoding="UTF-8"?>
<svg width="56px" height="56px" viewBox="0 0 56 56" version="1.1" xmlns="http://www.w3.org/2000/svg" xmlns:xlink="http://www.w3.org/1999/xlink">
    <!-- Generator: Sketch 55 (78076) - https://sketchapp.com -->
    <title>Group 3</title>
    <desc>Created with Sketch.</desc>
    <g id="Page-1" stroke="none" stroke-width="1" fill="none" fill-rule="evenodd">
        <g id="Group-3" transform="translate(0.834893, 0.458940)">
            <path d="M54.7235053,27.3619993 C54.7235053,12.2499997 42.4735056,0 27.3620393,0 C12.2500397,0 0,12.2499997 0,27.3619993 C0,42.4723989 12.2500397,54.7223986 27.3620393,54.7223986 C42.4735056,54.7223986 54.7235053,42.4723989 54.7235053,27.3619993" id="path18" fill="#1E1E2A" fill-rule="nonzero" transform="translate(27.361753, 27.361199) scale(-1, 1) rotate(-180.000000) translate(-27.361753, -27.361199) "></path>
            <path d="M19.8301728,35.4152411 C18.4339062,32.8616412 18.0385729,31.1419079 18.0568395,28.2315079 C18.0588395,27.8528413 18.0749729,27.4684413 18.1989729,27.1105746 C18.3796395,26.5924413 18.7719062,26.176708 19.1739062,25.8033747 C20.7120395,24.3736414 28.2072393,21.7277748 29.7203059,21.5220414 C30.8068392,21.3747081 32.4885725,19.2304415 33.5844392,19.2757748 C34.8963058,19.3304415 40.8719056,19.2017748 42.0547056,20.8616415 C42.4197723,21.3747081 42.6681723,22.0205748 42.5181723,22.6315081 C42.4339056,22.9752414 42.2317723,23.2772414 42.0307056,23.5673747 C40.6239057,25.5960413 39.034439,27.5012413 37.7787057,29.6263079 C36.7020391,31.4476412 35.8823058,33.4100411 34.8271058,35.2444411 C33.7724392,37.0793744 32.4348392,38.8241743 30.6093726,39.8939077" id="path20" stroke="#ABE2CB" stroke-width="1.3333333" transform="translate(30.309433, 29.584487) scale(-1, 1) rotate(-180.000000) translate(-30.309433, -29.584487) "></path>
            <path d="M36.3568391,15.3460961 C35.3601777,15.3206294 30.3443954,17.4403627 29.6663183,17.2998294 C28.5728606,17.0706294 27.8101969,16.0507628 26.8769754,15.4050294 C25.3576898,14.3528961 23.4213874,14.3190295 21.6075593,14.3960961 C19.3354281,14.4908961 3.71586332,13.7575628 2.35683909,14.6080961" id="path22" stroke="#ABE2CB" stroke-width="1.3333333" transform="translate(19.356839, 15.749381) scale(-1, 1) rotate(-180.000000) translate(-19.356839, -15.749381) "></path>
            <path d="M31.5312392,26.3333327 C31.5312392,25.3177327 30.7083059,24.4947994 29.6937726,24.4947994 C28.6787059,24.4947994 27.8557726,25.3177327 27.8557726,26.3333327 C27.8557726,27.3489326 28.6787059,28.171866 29.6937726,28.171866 C30.7083059,28.171866 31.5312392,27.3489326 31.5312392,26.3333327 Z" id="path24" stroke="#ABE2CB" stroke-width="1.3333333" transform="translate(29.693506, 26.333333) scale(-1, 1) rotate(-180.000000) translate(-29.693506, -26.333333) "></path>
            <path d="M20.6656395,45.3073322 C19.3692395,44.4963989 18.0729729,43.6838656 16.7771062,42.8723989 C15.4765729,42.0573323 14.1495063,41.218799 13.2011063,40.0130657 C12.778173,39.473999 12.4391064,38.872399 12.0047064,38.3426657 C10.9197731,37.0171991 9.29430643,36.1994658 8.29537313,34.8098658" id="path26" stroke="#ABE2CB" stroke-width="1.3333333" transform="translate(14.480506, 40.058599) scale(-1, 1) rotate(-180.000000) translate(-14.480506, -40.058599) "></path>
        </g>
    </g>
</svg>