<svg width="214" height="120" xmlns="http://www.w3.org/2000/svg"><g fill="none" fill-rule="evenodd"><path stroke="#FFF" d="M45.5 22.5h31v31h-31zM121.5 46.5h31v31h-31zM190.5 21.5h23v25h-23zM186.5 14.5h27v7h-27zM186.5 46.5h27v8h-27zM190.5 74.5h23v25h-23zM186.5 67.5h27v7h-27zM168.5 79.5h21v5h-21zM168.5 89.5h21v5h-21zM168.5 36.5h21v5h-21zM168.5 26.5h21v5h-21zM186.5 99.5h27v8h-27z"/><circle stroke="#FFF" cx="60" cy="7" r="5"/><circle stroke="#FFF" cx="72" cy="7" r="5"/><circle stroke="#FFF" cx="84" cy="7" r="5"/><circle stroke="#FFF" cx="95" cy="7" r="5"/><circle stroke="#FFF" cx="107" cy="7" r="5"/><circle stroke="#FFF" cx="119" cy="7" r="5"/><circle stroke="#FFF" cx="131" cy="7" r="5"/><circle stroke="#FFF" cx="143" cy="7" r="5"/><path stroke="#FFF" stroke-linecap="round" stroke-linejoin="round" d="M7 5.173h17v16.892H7z"/><path d="M12 13.621a3.51 3.51 0 0 1 3.5-3.519 3.51 3.51 0 0 1 3.5 3.52 3.51 3.51 0 0 1-3.5 3.518 3.51 3.51 0 0 1-3.5-3.519z" stroke="#FB6F9E" stroke-linecap="round" stroke-linejoin="round"/><circle stroke="#FFF" cx="155" cy="7" r="5"/><circle stroke="#FFF" cx="167" cy="7" r="5"/><circle stroke="#FFF" cx="179" cy="7" r="5"/><circle stroke="#FFF" cx="60" cy="113" r="5"/><circle stroke="#FFF" cx="72" cy="113" r="5"/><circle stroke="#FFF" cx="84" cy="113" r="5"/><circle stroke="#FFF" cx="95" cy="113" r="5"/><circle stroke="#FFF" cx="107" cy="113" r="5"/><circle stroke="#FFF" cx="119" cy="113" r="5"/><circle stroke="#FFF" cx="131" cy="113" r="5"/><circle stroke="#FFF" cx="143" cy="113" r="5"/><circle stroke="#FFF" cx="155" cy="113" r="5"/><circle stroke="#FFF" cx="167" cy="113" r="5"/><circle stroke="#FFF" cx="179" cy="113" r="5"/><path stroke="#6D6DB5" d="M2.5.5h211v119H2.5z"/><path stroke="#6D6DB5" d="M76.5 75.5h9v11h-9zM97.5 40.5h12v10h-12zM41.5 78.5h12v10h-12zM28.5 18.5h12v13h-12zM34.5 36.5h6v17h-6zM7.5 89.5h9v11h-9z"/><path stroke="#FFF" d="M.5 42.5h27v35H.5z"/><path stroke="#6D6DB5" d="M31.5 101.5h16v3h-16zM51.5 101.5h16v3h-16zM71.5 101.5h16v3h-16zM91.5 101.5h16v3h-16z"/></g></svg>