<svg width="200" height="143" xmlns="http://www.w3.org/2000/svg"><g fill="none" fill-rule="evenodd"><path d="M28 125.673h1v1h-1z"/><path d="M28.433 126.094h.1" stroke="#000" stroke-width=".893"/><path d="M28 125.673h1v1h-1z"/><path d="M21.332 140.455h168.57c.76 0 1.488-.3 2.025-.836a2.85 2.85 0 0 0 .838-2.02V3.92a2.85 2.85 0 0 0-.838-2.02 2.868 2.868 0 0 0-2.025-.836H21.332A3.23 3.23 0 0 0 18.1 4.286v132.946a3.23 3.23 0 0 0 3.232 3.223z" stroke="#6D6DB5" stroke-width=".9"/><path d="M191.782 40.15v96.769l7.538-5.367V45.517z" fill="#1F2033" stroke="#6D6DB5" stroke-width=".9"/><path d="M1 26.396h42.77v31.246H1z" stroke="#FFF" stroke-linecap="round" stroke-linejoin="round" stroke-width=".9"/><path d="M11.8 111.307h37.555v22.508H11.8z" stroke="#6D6DB5" stroke-linecap="round" stroke-linejoin="round" stroke-width=".9"/><path d="M78.4 120.876c0-4.78 3.9-8.657 8.712-8.657 4.812 0 8.713 3.876 8.713 8.657 0 4.781-3.9 8.657-8.713 8.657-4.811 0-8.712-3.876-8.712-8.657zM58.556 79.702h18.578c2.461 0 4.456-1.97 4.457-4.4 0-2.429-1.996-4.398-4.457-4.399H58.556c-2.46 0-4.455 1.97-4.456 4.4 0 2.429 1.996 4.398 4.456 4.399z" stroke="#FFF" stroke-linecap="round" stroke-linejoin="round" stroke-width=".9"/><path d="M65.8 46.504h11.326v11.187H65.8z" stroke="#6D6DB5" stroke-linecap="round" stroke-linejoin="round" stroke-width=".9"/><g stroke-linecap="round" stroke-linejoin="round"><path d="M61.3 16.804h17.425v11.187H61.3z" stroke="#6D6DB5" stroke-width=".9"/><path d="M64.204 18.901h2.904v2.797h-2.904zM68.56 18.901h2.904v2.797H68.56zM72.917 18.901h2.904v2.797h-2.904zM64.204 23.097h2.904v2.797h-2.904zM68.56 23.097h2.904v2.797H68.56zM72.917 23.097h2.904v2.797h-2.904z" stroke="#FFF" stroke-width=".5"/></g><path d="M35.2 90.62h7.351v17.314H35.2zM64 87.531h7.586v7.538H64zM83.73 134.65v7.351H66.416v-7.351zM74.8 101.434h3.476v7.134H74.8z" stroke="#6D6DB5" stroke-linecap="round" stroke-linejoin="round" stroke-width=".9"/><path d="M33.269 68.5v11.326h-7.538V68.5z" stroke="#FFF" stroke-linecap="round" stroke-linejoin="round" stroke-width=".9"/><path d="M91 52.774h3.476v2.303H91z" fill="#FFF" stroke="#000" stroke-linecap="round" stroke-linejoin="round" stroke-width=".5"/><path d="M87.672 34.954V14.51H92.6v20.444z"/><text fill="#000" font-family="Helvetica" font-size=".6" transform="rotate(-90 61.003 -26.049)"><tspan x="8.32" y="3.966">GN</tspan> <tspan x="8.32" y="3.967">D</tspan></text><path d="M80.848 34.954V14.51h4.928v20.444z"/><text fill="#000" font-family="Helvetica" font-size=".6" transform="rotate(-90 57.591 -22.637)"><tspan x="7.42" y="3.966">ARE</tspan> <tspan x="7.42" y="3.967">F</tspan></text><path d="M101.99 34.954V14.51h4.929v20.444z"/><text fill="#000" font-family="Helvetica" font-size=".6" transform="rotate(-90 68.162 -33.208)"><tspan x="12.774" y="3.966">1</tspan> <tspan x="12.774" y="3.967">2</tspan></text><path d="M95.167 34.954V14.51h4.928v20.444z"/><text fill="#000" font-family="Helvetica" font-size=".6" transform="rotate(-90 64.75 -29.796)"><tspan x="12.774" y="3.966">1</tspan> <tspan x="12.774" y="3.967">3</tspan></text><path d="M115.638 34.954V14.51h4.928v20.444z"/><text fill="#000" font-family="Helvetica" font-size=".6" transform="rotate(-90 74.986 -40.032)"><tspan x="10.246" y="3.966">~10</tspan></text><path d="M108.814 34.954V14.51h4.928v20.444z"/><text fill="#000" font-family="Helvetica" font-size=".6" transform="rotate(-90 71.574 -36.62)"><tspan x="10.246" y="3.966">~11</tspan></text><path d="M128.689 34.713V14.27h4.928v20.444z"/><text fill="#000" font-family="Helvetica" font-size=".6" transform="rotate(-90 81.391 -46.678)"><tspan x="15.34" y="3.966">8</tspan></text><path d="M121.865 34.713V14.27h4.928v20.444z"/><text fill="#000" font-family="Helvetica" font-size=".6" transform="rotate(-90 77.98 -43.266)"><tspan x="12.818" y="3.966">~</tspan> <tspan x="12.818" y="3.967">9</tspan></text><g stroke-linecap="round" stroke-linejoin="round" stroke-width=".9"><path d="M28 6.92h17.425v17.314H28z" stroke="#FFF"/><path d="M33.082 15.58c0-1.993 1.626-3.607 3.63-3.607 2.005 0 3.63 1.614 3.63 3.607 0 1.992-1.625 3.607-3.63 3.607-2.004 0-3.63-1.615-3.63-3.607z" stroke="#FB6F9E"/></g><path d="M144.384 34.68V14.268h4.878V34.68z"/><text fill="#000" font-family="Helvetica" font-size=".6" transform="rotate(-90 89.226 -54.545)"><tspan x="12.799" y="3.927">~</tspan> <tspan x="12.799" y="3.927">6</tspan></text><path d="M137.566 34.68V14.268h4.878V34.68z"/><text fill="#000" font-family="Helvetica" font-size=".6" transform="rotate(-90 85.817 -51.136)"><tspan x="15.317" y="3.927">7</tspan></text><path d="M158.677 34.68V14.268h4.878V34.68z"/><text fill="#000" font-family="Helvetica" font-size=".6" transform="rotate(-90 96.373 -61.692)"><tspan x="15.317" y="3.927">4</tspan></text><path d="M151.867 34.68V14.268h4.878V34.68z"/><text fill="#000" font-family="Helvetica" font-size=".6" transform="rotate(-90 92.968 -58.287)"><tspan x="12.799" y="3.927">~</tspan> <tspan x="12.799" y="3.927">5</tspan></text><path d="M172.304 34.68V14.268h4.878V34.68z"/><text fill="#000" font-family="Helvetica" font-size=".6" transform="rotate(-90 103.186 -68.505)"><tspan x="15.317" y="3.927">2</tspan></text><path d="M165.495 34.68V14.268h4.878V34.68z"/><text fill="#000" font-family="Helvetica" font-size=".6" transform="rotate(-90 99.781 -65.1)"><tspan x="12.799" y="3.927">~</tspan> <tspan x="12.799" y="3.927">3</tspan></text><path d="M185.34 36.789V14.012h4.878v22.777z"/><text fill="#000" font-family="Helvetica" font-size=".6" transform="rotate(-90 110.758 -73.97)"><tspan x="5.125" y="4.581">RX0</tspan></text><path d="M178.522 36.789V14.012h4.878v22.777z"/><text fill="#000" font-family="Helvetica" font-size=".6" transform="rotate(-90 107.349 -70.56)"><tspan x="4.264" y="4.581">TX1</tspan></text><path d="M104.868 134.99v-20.652h4.841v20.653z"/><text font-family="Helvetica" font-size=".6" fill="#FFF" transform="rotate(-90 119.915 15.075)"><tspan x="2.56" y="3.322">RESE</tspan> <tspan x="2.56" y="3.322">T</tspan></text><path d="M98.015 134.99v-20.652h4.841v20.653z"/><text font-family="Helvetica" font-size=".6" fill="#FFF" transform="rotate(-90 116.489 18.502)"><tspan x="2.56" y="3.322">IOREF</tspan></text><path d="M118.573 134.99v-20.652h4.841v20.653z"/><text font-family="Helvetica" font-size=".6" fill="#FFF" transform="rotate(-90 126.768 8.223)"><tspan x="2.56" y="3.322">5</tspan> <tspan x="2.56" y="3.322">V</tspan></text><path d="M111.72 134.99v-20.652h4.842v20.653z"/><text font-family="Helvetica" font-size=".6" fill="#FFF" transform="rotate(-90 123.342 11.649)"><tspan x="2.56" y="3.322">3.3V</tspan></text><path d="M132.278 134.99v-20.652h4.841v20.653z"/><text font-family="Helvetica" font-size=".6" fill="#FFF" transform="rotate(-90 133.62 1.37)"><tspan x="2.56" y="3.322">GN</tspan> <tspan x="2.56" y="3.322">D</tspan></text><path d="M125.426 134.99v-20.652h4.841v20.653z"/><text font-family="Helvetica" font-size=".6" fill="#FFF" transform="rotate(-90 130.194 4.796)"><tspan x="2.56" y="3.322">GN</tspan> <tspan x="2.56" y="3.322">D</tspan></text><path d="M139.131 135.026v-23.044h4.841v23.044z"/><text font-family="Helvetica" font-size=".6" fill="#FFF" transform="rotate(-90 137.065 -2.038)"><tspan x="2.56" y="3.322">Vi</tspan> <tspan x="2.56" y="3.322">n</tspan></text><path d="M157.077 133.974V113.49h4.98v20.484z"/><text font-family="Helvetica" font-size=".6" fill="#FFF" transform="rotate(-90 145.242 -11.268)"><tspan x="2.539" y="3.941">A</tspan> <tspan x="2.539" y="3.941">1</tspan></text><path d="M150.155 133.974V113.49h4.98v20.484z"/><text font-family="Helvetica" font-size=".6" fill="#FFF" transform="rotate(-90 141.78 -7.807)"><tspan x="2.539" y="3.941">A</tspan> <tspan x="2.539" y="3.941">0</tspan></text><path d="M170.922 133.974V113.49h4.98v20.484z"/><text font-family="Helvetica" font-size=".6" fill="#FFF" transform="rotate(-90 152.165 -18.19)"><tspan x="2.539" y="3.941">A</tspan> <tspan x="2.539" y="3.941">3</tspan></text><g><path d="M164 133.974V113.49h4.98v20.484z"/><text font-family="Helvetica" font-size=".6" fill="#FFF" transform="rotate(-90 148.703 -14.73)"><tspan x="2.539" y="3.941">A</tspan> <tspan x="2.539" y="3.941">2</tspan></text></g><g><path d="M184.767 133.974V113.49h4.98v20.484z"/><text font-family="Helvetica" font-size=".6" fill="#FFF" transform="rotate(-90 159.087 -25.113)"><tspan x="2.539" y="3.941">A</tspan> <tspan x="2.539" y="3.941">5</tspan></text></g><g><path d="M177.845 133.974V113.49h4.98v20.484z"/><text font-family="Helvetica" font-size=".6" fill="#FFF" transform="rotate(-90 155.626 -21.652)"><tspan x="2.539" y="3.941">A</tspan> <tspan x="2.539" y="3.941">4</tspan></text></g><g><path d="M64 6.934h6.994v7.134H64z"/><path d="M64.874 7.826h5.246v5.351h-5.246z" stroke="#FFF" stroke-linecap="round" stroke-linejoin="round" stroke-width=".9"/><path d="M70.994 6.934h6.994v7.134h-6.994z"/><path d="M71.868 7.826h5.246v5.351h-5.246z" stroke="#FFF" stroke-linecap="round" stroke-linejoin="round" stroke-width=".9"/><path d="M78.155 6.934h6.994v7.134h-6.994z"/><path d="M79.03 7.826h5.245v5.351H79.03z" stroke="#FFF" stroke-linecap="round" stroke-linejoin="round" stroke-width=".9"/><path d="M85.149 6.934h6.994v7.134h-6.994z"/><path d="M86.023 7.826h5.246v5.351h-5.246z" stroke="#FFF" stroke-linecap="round" stroke-linejoin="round" stroke-width=".9"/><g><path d="M119.855 6.934h6.994v7.134h-6.994z"/><path d="M120.73 7.826h5.245v5.351h-5.246z" stroke="#FFF" stroke-linecap="round" stroke-linejoin="round" stroke-width=".9"/><path d="M126.85 6.934h6.993v7.134h-6.994z"/><path d="M127.724 7.826h5.246v5.351h-5.246z" stroke="#FFF" stroke-linecap="round" stroke-linejoin="round" stroke-width=".9"/></g><g><path d="M92.31 6.934h6.994v7.134H92.31z"/><path d="M93.184 7.826h5.246v5.351h-5.246z" stroke="#FFF" stroke-linecap="round" stroke-linejoin="round" stroke-width=".9"/><path d="M99.304 6.934h6.994v7.134h-6.994z"/><path d="M100.178 7.826h5.246v5.351h-5.246z" stroke="#FFF" stroke-linecap="round" stroke-linejoin="round" stroke-width=".9"/></g><g><path d="M106.44 6.934h6.995v7.134h-6.994z"/><path d="M107.315 7.826h5.246v5.351h-5.246z" stroke="#FFF" stroke-linecap="round" stroke-linejoin="round" stroke-width=".9"/><path d="M113.435 6.934h6.994v7.134h-6.994z"/><path d="M114.309 7.826h5.246v5.351h-5.246z" stroke="#FFF" stroke-linecap="round" stroke-linejoin="round" stroke-width=".9"/></g></g><g stroke-linecap="round" stroke-linejoin="round"><path d="M197.596 62.2v17.425h-11.187V62.2z" stroke="#6D6DB5" stroke-width=".9"/><path d="M195.499 65.104v2.904h-2.797v-2.904zM195.499 69.46v2.904h-2.797V69.46zM195.499 73.817v2.904h-2.797v-2.904zM191.303 65.104v2.904h-2.797v-2.904zM191.303 69.46v2.904h-2.797V69.46zM191.303 73.817v2.904h-2.797v-2.904z" stroke="#FFF" stroke-width=".5"/></g><g stroke="#FFF" stroke-linecap="round" stroke-linejoin="round" stroke-width=".9"><path d="M94.6 87.784h5.584v5.549H94.6z"/></g><g stroke="#FFF" stroke-linecap="round" stroke-linejoin="round" stroke-width=".9"><path d="M101.8 87.784h5.584v5.549H101.8z"/></g><g stroke="#FFF" stroke-linecap="round" stroke-linejoin="round" stroke-width=".9"><path d="M108.1 87.784h5.584v5.549H108.1z"/></g><g stroke="#FFF" stroke-linecap="round" stroke-linejoin="round" stroke-width=".9"><path d="M114.4 87.784h5.584v5.549H114.4z"/></g><g stroke="#FFF" stroke-linecap="round" stroke-linejoin="round" stroke-width=".9"><path d="M121.6 87.784h5.584v5.549H121.6z"/></g><g stroke="#FFF" stroke-linecap="round" stroke-linejoin="round" stroke-width=".9"><path d="M128.8 87.784h5.584v5.549H128.8z"/></g><g stroke="#FFF" stroke-linecap="round" stroke-linejoin="round" stroke-width=".9"><path d="M136 87.784h5.584v5.549H136z"/></g><g stroke="#FFF" stroke-linecap="round" stroke-linejoin="round" stroke-width=".9"><path d="M142.3 87.784h5.584v5.549H142.3z"/></g><g stroke="#FFF" stroke-linecap="round" stroke-linejoin="round" stroke-width=".9"><path d="M149.5 87.784h5.584v5.549H149.5z"/></g><g stroke="#FFF" stroke-linecap="round" stroke-linejoin="round" stroke-width=".9"><path d="M155.8 87.784h5.584v5.549H155.8z"/></g><g stroke="#FFF" stroke-linecap="round" stroke-linejoin="round" stroke-width=".9"><path d="M162.1 87.784h5.584v5.549H162.1z"/></g><g stroke="#FFF" stroke-linecap="round" stroke-linejoin="round" stroke-width=".9"><path d="M169.3 87.784h5.584v5.549H169.3z"/></g><g stroke="#FFF" stroke-linecap="round" stroke-linejoin="round" stroke-width=".9"><path d="M176.5 87.784h5.584v5.549H176.5z"/></g><g stroke="#FFF" stroke-linecap="round" stroke-linejoin="round" stroke-width=".9"><path d="M183.7 87.784h5.584v5.549H183.7z"/></g><g stroke="#FFF" stroke-linecap="round" stroke-linejoin="round" stroke-width=".9"><path d="M94.6 108.484h5.584v5.549H94.6z"/></g><g stroke="#FFF" stroke-linecap="round" stroke-linejoin="round" stroke-width=".9"><path d="M101.8 108.484h5.584v5.549H101.8z"/></g><g stroke="#FFF" stroke-linecap="round" stroke-linejoin="round" stroke-width=".9"><path d="M108.1 108.484h5.584v5.549H108.1z"/></g><g stroke="#FFF" stroke-linecap="round" stroke-linejoin="round" stroke-width=".9"><path d="M114.4 108.484h5.584v5.549H114.4z"/></g><g stroke="#FFF" stroke-linecap="round" stroke-linejoin="round" stroke-width=".9"><path d="M121.6 108.484h5.584v5.549H121.6z"/></g><g stroke="#FFF" stroke-linecap="round" stroke-linejoin="round" stroke-width=".9"><path d="M128.8 108.484h5.584v5.549H128.8z"/></g><g stroke="#FFF" stroke-linecap="round" stroke-linejoin="round" stroke-width=".9"><path d="M136 108.484h5.584v5.549H136z"/></g><g stroke="#FFF" stroke-linecap="round" stroke-linejoin="round" stroke-width=".9"><path d="M142.3 108.484h5.584v5.549H142.3z"/></g><g stroke="#FFF" stroke-linecap="round" stroke-linejoin="round" stroke-width=".9"><path d="M149.5 108.484h5.584v5.549H149.5z"/></g><g stroke="#FFF" stroke-linecap="round" stroke-linejoin="round" stroke-width=".9"><path d="M155.8 108.484h5.584v5.549H155.8z"/></g><g stroke="#FFF" stroke-linecap="round" stroke-linejoin="round" stroke-width=".9"><path d="M162.1 108.484h5.584v5.549H162.1z"/></g><g stroke="#FFF" stroke-linecap="round" stroke-linejoin="round" stroke-width=".9"><path d="M169.3 108.484h5.584v5.549H169.3z"/></g><g stroke="#FFF" stroke-linecap="round" stroke-linejoin="round" stroke-width=".9"><path d="M176.5 108.484h5.584v5.549H176.5z"/></g><g stroke="#FFF" stroke-linecap="round" stroke-linejoin="round" stroke-width=".9"><path d="M183.7 108.484h5.584v5.549H183.7z"/></g><g stroke="#6D6DB5" stroke-linecap="round" stroke-linejoin="round" stroke-width="2.016"><path d="M95.5 91.197h92.994v19.911H95.5z"/></g><g stroke="#FFF" stroke-linecap="round" stroke-linejoin="round" stroke-width=".9"><path d="M90.1 135.484h5.584v5.549H90.1z"/></g><g stroke="#FFF" stroke-linecap="round" stroke-linejoin="round" stroke-width=".9"><path d="M97.3 135.484h5.584v5.549H97.3z"/></g><g stroke="#FFF" stroke-linecap="round" stroke-linejoin="round" stroke-width=".9"><path d="M104.455 135.52h5.128v5.435h-5.128zM111.293 135.52h5.128v5.435h-5.128z"/></g><g stroke="#FFF" stroke-linecap="round" stroke-linejoin="round" stroke-width=".9"><path d="M118.855 135.52h5.128v5.435h-5.128zM125.693 135.52h5.128v5.435h-5.128z"/></g><g stroke="#FFF" stroke-linecap="round" stroke-linejoin="round" stroke-width=".9"><path d="M132.355 135.52h5.128v5.435h-5.128zM139.193 135.52h5.128v5.435h-5.128z"/></g><g><path d="M135.1 6.934h7.18v7.134h-7.18z"/></g><g stroke="#FFF" stroke-linecap="round" stroke-linejoin="round" stroke-width=".9"><path d="M136 7.684h5.584v5.549H136z"/></g><g><path d="M142.3 6.934h7.18v7.134h-7.18z"/></g><g stroke="#FFF" stroke-linecap="round" stroke-linejoin="round" stroke-width=".9"><path d="M143.2 7.684h5.584v5.549H143.2z"/></g><g><path d="M148.6 6.934h7.18v7.134h-7.18z"/><path d="M149.497 7.826h5.385v5.351h-5.385z" stroke="#FFF" stroke-linecap="round" stroke-linejoin="round" stroke-width=".9"/><path d="M155.78 6.934h7.18v7.134h-7.18z"/><path d="M156.677 7.826h5.385v5.351h-5.385z" stroke="#FFF" stroke-linecap="round" stroke-linejoin="round" stroke-width=".9"/></g><g><path d="M163 6.934h7.18v7.134H163z"/><path d="M163.897 7.826h5.385v5.351h-5.385z" stroke="#FFF" stroke-linecap="round" stroke-linejoin="round" stroke-width=".9"/><path d="M170.18 6.934h7.18v7.134h-7.18z"/><path d="M171.077 7.826h5.385v5.351h-5.385z" stroke="#FFF" stroke-linecap="round" stroke-linejoin="round" stroke-width=".9"/></g><g><path d="M176.5 6.934h7.18v7.134h-7.18z"/><path d="M177.397 7.826h5.385v5.351h-5.385z" stroke="#FFF" stroke-linecap="round" stroke-linejoin="round" stroke-width=".9"/><path d="M183.68 6.934h7.18v7.134h-7.18z"/><path d="M184.577 7.826h5.385v5.351h-5.385z" stroke="#FFF" stroke-linecap="round" stroke-linejoin="round" stroke-width=".9"/></g><g stroke="#FFF" stroke-linecap="round" stroke-linejoin="round" stroke-width=".9"><path d="M150.355 135.52h5.128v5.435h-5.128zM157.193 135.52h5.128v5.435h-5.128z"/></g><g stroke="#FFF" stroke-linecap="round" stroke-linejoin="round" stroke-width=".9"><path d="M163.855 135.52h5.128v5.435h-5.128zM170.693 135.52h5.128v5.435h-5.128z"/></g><g stroke="#FFF" stroke-linecap="round" stroke-linejoin="round" stroke-width=".9"><path d="M178.255 135.52h5.128v5.435h-5.128zM185.093 135.52h5.128v5.435h-5.128z"/></g><g stroke="#FFF" stroke-linecap="round" stroke-linejoin="round" stroke-width=".9"><path d="M59.5 120.876c0-4.78 3.9-8.657 8.712-8.657 4.812 0 8.713 3.876 8.713 8.657 0 4.781-3.9 8.657-8.713 8.657-4.811 0-8.712-3.876-8.712-8.657z"/></g><g fill="#FFF" stroke="#000" stroke-linecap="round" stroke-linejoin="round" stroke-width=".5"><path d="M91 46.474h3.476v2.303H91z"/></g><g fill="#FFF" stroke="#000" stroke-linecap="round" stroke-linejoin="round" stroke-width=".5"><path d="M91 32.974h3.476v2.303H91z"/></g><g fill="#FFF" stroke="#000" stroke-linecap="round" stroke-linejoin="round" stroke-width=".5"><path d="M172 46.474h3.476v2.303H172z"/></g></g></svg>