<svg xmlns="http://www.w3.org/2000/svg" width="272" height="194" viewBox="0 0 272 194">
  <g fill="none" fill-rule="evenodd">
    <g transform="translate(50)">
      <g transform="translate(30.232 137.51)">
        <rect width="1.085" height="1" y=".574"/>
        <path stroke="#000" stroke-width=".992" d="M0,0.129166667 L0.172277228,0.129166667" transform="translate(.526 .997)"/>
        <rect width="1.085" height="1" y=".574"/>
      </g>
      <path fill="#6D6DB5" d="M3.58683706,153.942062 L190.638978,153.942062 C191.481658,153.942075 192.289829,153.610044 192.885694,153.019013 C193.481559,152.427982 193.816307,151.626369 193.816294,150.790526 L193.816294,3.22157084 C193.816307,2.38572736 193.481559,1.58411411 192.885694,0.993083516 C192.289829,0.40205292 191.481658,0.0700211465 190.638978,0.0700341488 L3.58683706,0.0700341488 C1.6064062,0.0712896722 0.00126579361,1.66340655 -6.14035214e-16,3.62776891 L-1.80483194e-16,150.384328 C0.00126579361,152.34869 1.6064062,153.940807 3.58683706,153.942062 Z" transform="translate(19.064 .35)"/>
      <polygon fill="#6D6DB5" points="0 8.271 107.831 8.271 101.851 .14 5.98 .14" transform="rotate(90 88.971 131.42)"/>
      <rect width="47.66" height="34.667" y=".218" fill="#BFBFBF" stroke="#000" stroke-linecap="round" stroke-linejoin="round" stroke-width=".24" transform="translate(0 28.29)"/>
      <rect width="41.305" height="25.212" y=".568" fill="#1F2033" stroke="#1F2033" stroke-linecap="round" stroke-linejoin="round" stroke-width=".24" transform="translate(12.71 120.91)"/>
      <path fill="#BFBFBF" stroke="#000" stroke-linecap="round" stroke-linejoin="round" stroke-width=".24" d="M0,10.0218867 C-6.44696938e-16,4.80024972 4.26759888,0.567276605 9.53194888,0.567276605 C14.7962989,0.567276605 19.0638978,4.80024972 19.0638978,10.0218867 C19.0638978,15.2435237 14.7962989,19.4764968 9.53194888,19.4764968 C4.26759888,19.4764968 6.44696938e-16,15.2435237 0,10.0218867 Z" transform="translate(85.788 122.485)"/>
      <path fill="#BFBFBF" stroke="#000" stroke-linecap="round" stroke-linejoin="round" stroke-width=".24" d="M4.89306709,9.73791109 L25.2914377,9.73791109 C27.9934295,9.73701432 30.1836007,7.56461335 30.1845048,4.88454458 C30.1836007,2.20447582 27.9934295,0.0320748452 25.2914377,0.0311780719 L4.89306709,0.0311780719 C2.19107534,0.0320748452 0.00090410896,2.20447582 0,4.88454458 C0.00090410896,7.56461335 2.19107534,9.73701432 4.89306709,9.73791109 Z" transform="translate(59.575 77.328)"/>
      <rect width="12.709" height="12.606" y=".568" fill="#1F2033" stroke="#1F2033" stroke-linecap="round" stroke-linejoin="round" stroke-width=".24" transform="translate(71.49 50)"/>
      <g stroke-linecap="round" stroke-linejoin="round" stroke-width=".24" transform="translate(66.724 16.909)">
        <rect width="19.064" height="12.606" y=".568" fill="#1F2033" stroke="#1F2033"/>
        <rect width="3.177" height="3.152" y=".218" fill="#FFF" stroke="#000" transform="translate(3.177 2.714)"/>
        <rect width="3.177" height="3.152" y=".218" fill="#FFF" stroke="#000" transform="translate(7.943 2.714)"/>
        <rect width="3.177" height="3.152" y=".218" fill="#FFF" stroke="#000" transform="translate(12.71 2.714)"/>
        <rect width="3.177" height="3.152" y=".218" fill="#FFF" stroke="#000" transform="translate(3.177 7.441)"/>
        <rect width="3.177" height="3.152" y=".218" fill="#FFF" stroke="#000" transform="translate(7.943 7.441)"/>
        <rect width="3.177" height="3.152" y=".218" fill="#FFF" stroke="#000" transform="translate(12.71 7.441)"/>
      </g>
      <rect width="7.943" height="18.909" y=".568" fill="#1F2033" stroke="#1F2033" stroke-linecap="round" stroke-linejoin="round" stroke-width=".24" transform="translate(38.128 98.849)"/>
      <rect width="8.197" height="8.131" y=".141" fill="#1F2033" stroke="#1F2033" stroke-linecap="round" stroke-linejoin="round" stroke-width=".24" transform="translate(70.568 95.872)"/>
      <rect width="7.943" height="18.909" y=".568" fill="#1F2033" stroke="#1F2033" stroke-linecap="round" stroke-linejoin="round" stroke-width=".24" transform="rotate(90 -27.405 120.04)"/>
      <rect width="4.226" height="7.695" y=".576" fill="#1F2033" stroke="#1F2033" stroke-linecap="round" stroke-linejoin="round" stroke-width=".24" transform="translate(82.086 110.75)"/>
      <rect width="12.709" height="8.131" y=".141" fill="#FFF2CC" stroke="#000" stroke-linecap="round" stroke-linejoin="round" stroke-width=".24" transform="rotate(90 -19.215 55.194)"/>
      <rect width="4.226" height="2.794" y=".575" fill="#FFF" stroke="#000" stroke-linecap="round" stroke-linejoin="round" stroke-width=".24" transform="translate(99.56 56.296)"/>
      <g transform="translate(88.072 13.56)">
        <g transform="rotate(-90 15.89 8.25)">
          <rect width="22.781" height="5.481" y=".055"/>
          <text fill="#000" font-family="Helvetica" font-size=".667">
            <tspan x="9.271" y="4.778">GN</tspan> <tspan x="9.271" y="5.778">D</tspan>
          </text>
        </g>
        <g transform="rotate(-90 12.088 12.051)">
          <rect width="22.781" height="5.481" y=".055"/>
          <text fill="#000" font-family="Helvetica" font-size=".667">
            <tspan x="8.268" y="4.778">ARE</tspan> <tspan x="8.268" y="5.778">F</tspan>
          </text>
        </g>
        <g transform="rotate(-90 23.868 .271)">
          <rect width="22.781" height="5.481" y=".055"/>
          <text fill="#000" font-family="Helvetica" font-size=".667">
            <tspan x="14.234" y="4.778">1</tspan> <tspan x="14.234" y="5.778">2</tspan>
          </text>
        </g>
        <g transform="rotate(-90 20.066 4.074)">
          <rect width="22.781" height="5.481" y=".055"/>
          <text fill="#000" font-family="Helvetica" font-size=".667">
            <tspan x="14.234" y="4.778">1</tspan> <tspan x="14.234" y="5.778">3</tspan>
          </text>
        </g>
        <g transform="rotate(-90 31.471 -7.332)">
          <rect width="22.781" height="5.481" y=".055"/>
          <text fill="#000" font-family="Helvetica" font-size=".667">
            <tspan x="11.417" y="4.778">~10</tspan>
          </text>
        </g>
        <g transform="rotate(-90 27.67 -3.53)">
          <rect width="22.781" height="5.481" y=".055"/>
          <text fill="#000" font-family="Helvetica" font-size=".667">
            <tspan x="11.417" y="4.778">~11</tspan>
          </text>
        </g>
        <g transform="rotate(-90 38.61 -14.737)">
          <rect width="22.781" height="5.481" y=".055"/>
          <text fill="#000" font-family="Helvetica" font-size=".667">
            <tspan x="17.094" y="4.778">8</tspan>
          </text>
        </g>
        <g transform="rotate(-90 34.807 -10.936)">
          <rect width="22.781" height="5.481" y=".055"/>
          <text fill="#000" font-family="Helvetica" font-size=".667">
            <tspan x="14.284" y="4.778">~</tspan> <tspan x="14.284" y="5.778">9</tspan>
          </text>
        </g>
      </g>
      <g stroke="#000" stroke-linecap="round" stroke-linejoin="round" stroke-width=".24" transform="translate(30.185 5.879)">
        <rect width="19.064" height="18.909" y=".568" fill="#A5A5A5"/>
        <path fill="#FB6F9E" d="M0,4.33511381 C-2.68623724e-16,2.15943174 1.7781662,0.395692941 3.97164537,0.395692941 C6.16512454,0.395692941 7.94329073,2.15943174 7.94329073,4.33511381 C7.94329073,6.51079588 6.16512454,8.27453468 3.97164537,8.27453468 C1.7781662,8.27453468 2.68623724e-16,6.51079588 0,4.33511381 Z" transform="translate(5.56 5.69)"/>
      </g>
      <g transform="translate(151.05 13.3)">
        <g transform="rotate(-90 15.813 8.172)">
          <rect width="22.781" height="5.481" y=".055"/>
          <text fill="#000" font-family="Helvetica" font-size=".667">
            <tspan x="14.284" y="4.778">~</tspan> <tspan x="14.284" y="5.778">6</tspan>
          </text>
        </g>
        <g transform="rotate(-90 12.01 11.974)">
          <rect width="22.781" height="5.481" y=".055"/>
          <text fill="#000" font-family="Helvetica" font-size=".667">
            <tspan x="17.094" y="4.778">7</tspan>
          </text>
        </g>
        <g transform="rotate(-90 23.79 .194)">
          <rect width="22.781" height="5.481" y=".055"/>
          <text fill="#000" font-family="Helvetica" font-size=".667">
            <tspan x="17.094" y="4.778">4</tspan>
          </text>
        </g>
        <g transform="rotate(-90 19.988 3.996)">
          <rect width="22.781" height="5.481" y=".055"/>
          <text fill="#000" font-family="Helvetica" font-size=".667">
            <tspan x="14.284" y="4.778">~</tspan> <tspan x="14.284" y="5.778">5</tspan>
          </text>
        </g>
        <g transform="rotate(-90 31.394 -7.41)">
          <rect width="22.781" height="5.481" y=".055"/>
          <text fill="#000" font-family="Helvetica" font-size=".667">
            <tspan x="17.094" y="4.778">2</tspan>
          </text>
        </g>
        <g transform="rotate(-90 27.592 -3.608)">
          <rect width="22.781" height="5.481" y=".055"/>
          <text fill="#000" font-family="Helvetica" font-size=".667">
            <tspan x="14.284" y="4.778">~</tspan> <tspan x="14.284" y="5.778">3</tspan>
          </text>
        </g>
        <g transform="rotate(-90 39.844 -13.502)">
          <rect width="25.419" height="5.481" y=".055"/>
          <text fill="#000" font-family="Helvetica" font-size=".667">
            <tspan x="5.719" y="5.513">RX0</tspan>
          </text>
        </g>
        <g transform="rotate(-90 36.042 -9.7)">
          <rect width="25.419" height="5.481" y=".055"/>
          <text fill="#000" font-family="Helvetica" font-size=".667">
            <tspan x="4.759" y="5.513">TX1</tspan>
          </text>
        </g>
      </g>
      <g transform="translate(107.958 122.027)">
        <g transform="rotate(-90 16.977 9.355)">
          <rect width="22.781" height="5.439" y=".032"/>
          <text fill="#000" font-family="Helvetica" font-size=".667">
            <tspan x="2.824" y="4.733">RESE</tspan> <tspan x="2.824" y="5.733">T</tspan>
          </text>
        </g>
        <g transform="rotate(-90 13.197 13.135)">
          <rect width="22.781" height="5.439" y=".032"/>
          <text fill="#000" font-family="Helvetica" font-size=".667">
            <tspan x="2.824" y="4.733">IOREF</tspan>
          </text>
        </g>
        <g transform="rotate(-90 24.536 1.797)">
          <rect width="22.781" height="5.439" y=".032"/>
          <text fill="#000" font-family="Helvetica" font-size=".667">
            <tspan x="2.824" y="4.733">5</tspan> <tspan x="2.824" y="5.733">V</tspan>
          </text>
        </g>
        <g transform="rotate(-90 20.757 5.576)">
          <rect width="22.781" height="5.439" y=".032"/>
          <text fill="#000" font-family="Helvetica" font-size=".667">
            <tspan x="2.824" y="4.733">3.3V</tspan>
          </text>
        </g>
        <g transform="rotate(-90 32.095 -5.762)">
          <rect width="22.781" height="5.439" y=".032"/>
          <text fill="#000" font-family="Helvetica" font-size=".667">
            <tspan x="2.824" y="4.733">GN</tspan> <tspan x="2.824" y="5.733">D</tspan>
          </text>
        </g>
        <g transform="rotate(-90 28.315 -1.983)">
          <rect width="22.781" height="5.439" y=".032"/>
          <text fill="#000" font-family="Helvetica" font-size=".667">
            <tspan x="2.824" y="4.733">GN</tspan> <tspan x="2.824" y="5.733">D</tspan>
          </text>
        </g>
        <g transform="rotate(-90 35.879 -9.537)">
          <rect width="25.419" height="5.439" y=".032"/>
          <text fill="#000" font-family="Helvetica" font-size=".667">
            <tspan x="2.824" y="4.733">Vi</tspan> <tspan x="2.824" y="5.733">n</tspan>
          </text>
        </g>
      </g>
      <g transform="translate(164.917 123.913)">
        <g transform="rotate(-90 15.467 7.672)">
          <rect width="22.781" height="5.54" y=".631"/>
          <text fill="#000" font-family="Helvetica" font-size=".667">
            <tspan x="2.824" y="5.384">A</tspan> <tspan x="2.824" y="6.384">1</tspan>
          </text>
        </g>
        <g transform="rotate(-90 11.618 11.522)">
          <rect width="22.781" height="5.54" y=".631"/>
          <text fill="#000" font-family="Helvetica" font-size=".667">
            <tspan x="2.824" y="5.384">A</tspan> <tspan x="2.824" y="6.384">0</tspan>
          </text>
        </g>
        <g transform="rotate(-90 23.166 -.027)">
          <rect width="22.781" height="5.54" y=".631"/>
          <text fill="#000" font-family="Helvetica" font-size=".667">
            <tspan x="2.824" y="5.384">A</tspan> <tspan x="2.824" y="6.384">3</tspan>
          </text>
        </g>
        <g transform="rotate(-90 19.317 3.823)">
          <rect width="22.781" height="5.54" y=".631"/>
          <text fill="#000" font-family="Helvetica" font-size=".667">
            <tspan x="2.824" y="5.384">A</tspan> <tspan x="2.824" y="6.384">2</tspan>
          </text>
        </g>
        <g transform="rotate(-90 30.865 -7.726)">
          <rect width="22.781" height="5.54" y=".631"/>
          <text fill="#000" font-family="Helvetica" font-size=".667">
            <tspan x="2.824" y="5.384">A</tspan> <tspan x="2.824" y="6.384">5</tspan>
          </text>
        </g>
        <g transform="rotate(-90 27.016 -3.876)">
          <rect width="22.781" height="5.54" y=".631"/>
          <text fill="#000" font-family="Helvetica" font-size=".667">
            <tspan x="2.824" y="5.384">A</tspan> <tspan x="2.824" y="6.384">4</tspan>
          </text>
        </g>
      </g>
      <g stroke="#1F2033" stroke-linecap="round" stroke-linejoin="round" stroke-width=".24" transform="translate(70.271 5.87)">
        <rect width="7.758" height="7.695" y=".576" fill="#000"/>
        <rect width="5.819" height="5.771" y=".399" fill="#BFBFBF" transform="translate(.97 1.14)"/>
        <rect width="7.758" height="7.695" y=".576" fill="#000" transform="translate(7.758)"/>
        <rect width="5.819" height="5.771" y=".399" fill="#BFBFBF" transform="translate(8.728 1.14)"/>
        <g transform="translate(15.701)">
          <rect width="7.758" height="7.695" y=".576" fill="#000"/>
          <rect width="5.819" height="5.771" y=".399" fill="#BFBFBF" transform="translate(.97 1.14)"/>
          <rect width="7.758" height="7.695" y=".576" fill="#000" transform="translate(7.758)"/>
          <rect width="5.819" height="5.771" y=".399" fill="#BFBFBF" transform="translate(8.728 1.14)"/>
        </g>
        <g transform="translate(61.958)">
          <rect width="7.758" height="7.695" y=".576" fill="#000"/>
          <rect width="5.819" height="5.771" y=".399" fill="#BFBFBF" transform="translate(.97 1.14)"/>
          <rect width="7.758" height="7.695" y=".576" fill="#000" transform="translate(7.758)"/>
          <rect width="5.819" height="5.771" y=".399" fill="#BFBFBF" transform="translate(8.728 1.14)"/>
        </g>
        <g transform="translate(31.403)">
          <rect width="7.758" height="7.695" y=".576" fill="#000"/>
          <rect width="5.819" height="5.771" y=".399" fill="#BFBFBF" transform="translate(.97 1.14)"/>
          <rect width="7.758" height="7.695" y=".576" fill="#000" transform="translate(7.758)"/>
          <rect width="5.819" height="5.771" y=".399" fill="#BFBFBF" transform="translate(8.728 1.14)"/>
        </g>
        <g transform="translate(47.077)">
          <rect width="7.758" height="7.695" y=".576" fill="#000"/>
          <rect width="5.819" height="5.771" y=".399" fill="#BFBFBF" transform="translate(.97 1.14)"/>
          <rect width="7.758" height="7.695" y=".576" fill="#000" transform="translate(7.758)"/>
          <rect width="5.819" height="5.771" y=".399" fill="#BFBFBF" transform="translate(8.728 1.14)"/>
        </g>
      </g>
      <g stroke-linecap="round" stroke-linejoin="round" stroke-width=".24" transform="rotate(90 75.44 143.519)">
        <rect width="19.064" height="12.606" y=".568" fill="#1F2033" stroke="#1F2033"/>
        <rect width="3.177" height="3.152" y=".218" fill="#FFF" stroke="#000" transform="translate(3.177 2.714)"/>
        <rect width="3.177" height="3.152" y=".218" fill="#FFF" stroke="#000" transform="translate(7.943 2.714)"/>
        <rect width="3.177" height="3.152" y=".218" fill="#FFF" stroke="#000" transform="translate(12.71 2.714)"/>
        <rect width="3.177" height="3.152" y=".218" fill="#FFF" stroke="#000" transform="translate(3.177 7.441)"/>
        <rect width="3.177" height="3.152" y=".218" fill="#FFF" stroke="#000" transform="translate(7.943 7.441)"/>
        <rect width="3.177" height="3.152" y=".218" fill="#FFF" stroke="#000" transform="translate(12.71 7.441)"/>
      </g>
      <rect width="5.819" height="5.771" y=".399" fill="#BFBFBF" stroke="#000" stroke-linecap="round" stroke-linejoin="round" stroke-width=".24" transform="translate(104.057 95.866)"/>
      <rect width="5.819" height="5.771" y=".399" fill="#BFBFBF" stroke="#000" stroke-linecap="round" stroke-linejoin="round" stroke-width=".24" transform="translate(111.815 95.866)"/>
      <rect width="5.819" height="5.771" y=".399" fill="#BFBFBF" stroke="#000" stroke-linecap="round" stroke-linejoin="round" stroke-width=".24" transform="translate(118.858 95.866)"/>
      <rect width="5.819" height="5.771" y=".399" fill="#BFBFBF" stroke="#000" stroke-linecap="round" stroke-linejoin="round" stroke-width=".24" transform="translate(126.616 95.866)"/>
      <rect width="5.819" height="5.771" y=".399" fill="#BFBFBF" stroke="#000" stroke-linecap="round" stroke-linejoin="round" stroke-width=".24" transform="translate(134.31 95.866)"/>
      <rect width="5.819" height="5.771" y=".399" fill="#BFBFBF" stroke="#000" stroke-linecap="round" stroke-linejoin="round" stroke-width=".24" transform="translate(142.07 95.866)"/>
      <rect width="5.819" height="5.771" y=".399" fill="#BFBFBF" stroke="#000" stroke-linecap="round" stroke-linejoin="round" stroke-width=".24" transform="translate(149.827 95.866)"/>
      <rect width="5.819" height="5.771" y=".399" fill="#BFBFBF" stroke="#000" stroke-linecap="round" stroke-linejoin="round" stroke-width=".24" transform="translate(156.986 95.866)"/>
      <rect width="5.819" height="5.771" y=".399" fill="#BFBFBF" stroke="#000" stroke-linecap="round" stroke-linejoin="round" stroke-width=".24" transform="translate(164.744 95.866)"/>
      <rect width="5.819" height="5.771" y=".399" fill="#BFBFBF" stroke="#000" stroke-linecap="round" stroke-linejoin="round" stroke-width=".24" transform="translate(171.786 95.866)"/>
      <rect width="5.819" height="5.771" y=".399" fill="#BFBFBF" stroke="#000" stroke-linecap="round" stroke-linejoin="round" stroke-width=".24" transform="translate(179.544 95.866)"/>
      <rect width="5.819" height="5.771" y=".399" fill="#BFBFBF" stroke="#000" stroke-linecap="round" stroke-linejoin="round" stroke-width=".24" transform="translate(187.24 95.866)"/>
      <rect width="5.819" height="5.771" y=".399" fill="#BFBFBF" stroke="#000" stroke-linecap="round" stroke-linejoin="round" stroke-width=".24" transform="translate(194.998 95.866)"/>
      <rect width="5.819" height="5.771" y=".399" fill="#BFBFBF" stroke="#000" stroke-linecap="round" stroke-linejoin="round" stroke-width=".24" transform="translate(202.756 95.866)"/>
      <rect width="5.819" height="5.771" y=".399" fill="#BFBFBF" stroke="#000" stroke-linecap="round" stroke-linejoin="round" stroke-width=".24" transform="translate(104.057 118.193)"/>
      <rect width="5.819" height="5.771" y=".399" fill="#BFBFBF" stroke="#000" stroke-linecap="round" stroke-linejoin="round" stroke-width=".24" transform="translate(111.815 118.193)"/>
      <rect width="5.819" height="5.771" y=".399" fill="#BFBFBF" stroke="#000" stroke-linecap="round" stroke-linejoin="round" stroke-width=".24" transform="translate(118.858 118.193)"/>
      <rect width="5.819" height="5.771" y=".399" fill="#BFBFBF" stroke="#000" stroke-linecap="round" stroke-linejoin="round" stroke-width=".24" transform="translate(126.616 118.193)"/>
      <rect width="5.819" height="5.771" y=".399" fill="#BFBFBF" stroke="#000" stroke-linecap="round" stroke-linejoin="round" stroke-width=".24" transform="translate(134.31 118.193)"/>
      <rect width="5.819" height="5.771" y=".399" fill="#BFBFBF" stroke="#000" stroke-linecap="round" stroke-linejoin="round" stroke-width=".24" transform="translate(142.07 118.193)"/>
      <rect width="5.819" height="5.771" y=".399" fill="#BFBFBF" stroke="#000" stroke-linecap="round" stroke-linejoin="round" stroke-width=".24" transform="translate(149.827 118.193)"/>
      <rect width="5.819" height="5.771" y=".399" fill="#BFBFBF" stroke="#000" stroke-linecap="round" stroke-linejoin="round" stroke-width=".24" transform="translate(156.986 118.193)"/>
      <rect width="5.819" height="5.771" y=".399" fill="#BFBFBF" stroke="#000" stroke-linecap="round" stroke-linejoin="round" stroke-width=".24" transform="translate(164.744 118.193)"/>
      <rect width="5.819" height="5.771" y=".399" fill="#BFBFBF" stroke="#000" stroke-linecap="round" stroke-linejoin="round" stroke-width=".24" transform="translate(171.786 118.193)"/>
      <rect width="5.819" height="5.771" y=".399" fill="#BFBFBF" stroke="#000" stroke-linecap="round" stroke-linejoin="round" stroke-width=".24" transform="translate(179.544 118.193)"/>
      <rect width="5.819" height="5.771" y=".399" fill="#BFBFBF" stroke="#000" stroke-linecap="round" stroke-linejoin="round" stroke-width=".24" transform="translate(187.24 118.193)"/>
      <rect width="5.819" height="5.771" y=".399" fill="#BFBFBF" stroke="#000" stroke-linecap="round" stroke-linejoin="round" stroke-width=".24" transform="translate(194.998 118.193)"/>
      <rect width="5.819" height="5.771" y=".399" fill="#BFBFBF" stroke="#000" stroke-linecap="round" stroke-linejoin="round" stroke-width=".24" transform="translate(202.756 118.193)"/>
      <rect width="103.263" height="22.061" y=".218" fill="#1F2033" stroke="#1F2033" stroke-linecap="round" stroke-linejoin="round" stroke-width=".24" transform="translate(104.851 99.199)"/>
      <rect width="7.758" height="7.695" y=".576" fill="#000" stroke="#000" stroke-linecap="round" stroke-linejoin="round" stroke-width=".24" transform="translate(98.497 146.993)"/>
      <rect width="5.819" height="5.771" y=".399" fill="#BFBFBF" stroke="#000" stroke-linecap="round" stroke-linejoin="round" stroke-width=".24" transform="translate(99.467 148.132)"/>
      <rect width="7.758" height="7.695" y=".576" fill="#000" stroke="#000" stroke-linecap="round" stroke-linejoin="round" stroke-width=".24" transform="translate(106.255 146.993)"/>
      <rect width="5.819" height="5.771" y=".399" fill="#BFBFBF" stroke="#000" stroke-linecap="round" stroke-linejoin="round" stroke-width=".24" transform="translate(107.225 148.132)"/>
      <g stroke="#000" stroke-linecap="round" stroke-linejoin="round" stroke-width=".24" transform="translate(113.843 146.993)">
        <rect width="7.758" height="7.695" y=".576" fill="#000"/>
        <rect width="5.819" height="5.771" y=".399" fill="#BFBFBF" transform="translate(.97 1.14)"/>
        <rect width="7.758" height="7.695" y=".576" fill="#000" transform="translate(7.758)"/>
        <rect width="5.819" height="5.771" y=".399" fill="#BFBFBF" transform="translate(8.728 1.14)"/>
      </g>
      <g stroke="#000" stroke-linecap="round" stroke-linejoin="round" stroke-width=".24" transform="translate(129.36 146.993)">
        <rect width="7.758" height="7.695" y=".576" fill="#000"/>
        <rect width="5.819" height="5.771" y=".399" fill="#BFBFBF" transform="translate(.97 1.14)"/>
        <rect width="7.758" height="7.695" y=".576" fill="#000" transform="translate(7.758)"/>
        <rect width="5.819" height="5.771" y=".399" fill="#BFBFBF" transform="translate(8.728 1.14)"/>
      </g>
      <g stroke="#000" stroke-linecap="round" stroke-linejoin="round" stroke-width=".24" transform="translate(144.822 146.993)">
        <rect width="7.758" height="7.695" y=".576" fill="#000"/>
        <rect width="5.819" height="5.771" y=".399" fill="#BFBFBF" transform="translate(.97 1.14)"/>
        <rect width="7.758" height="7.695" y=".576" fill="#000" transform="translate(7.758)"/>
        <rect width="5.819" height="5.771" y=".399" fill="#BFBFBF" transform="translate(8.728 1.14)"/>
      </g>
      <rect width="7.758" height="7.695" y=".576" fill="#000" stroke="#1F2033" stroke-linecap="round" stroke-linejoin="round" stroke-width=".24" transform="translate(149.334 5.87)"/>
      <rect width="5.819" height="5.771" y=".399" fill="#BFBFBF" stroke="#1F2033" stroke-linecap="round" stroke-linejoin="round" stroke-width=".24" transform="translate(150.304 7.009)"/>
      <rect width="7.758" height="7.695" y=".576" fill="#000" stroke="#1F2033" stroke-linecap="round" stroke-linejoin="round" stroke-width=".24" transform="translate(157.092 5.87)"/>
      <rect width="5.819" height="5.771" y=".399" fill="#BFBFBF" stroke="#1F2033" stroke-linecap="round" stroke-linejoin="round" stroke-width=".24" transform="translate(158.062 7.009)"/>
      <g stroke="#1F2033" stroke-linecap="round" stroke-linejoin="round" stroke-width=".24" transform="translate(164.68 5.87)">
        <rect width="7.758" height="7.695" y=".576" fill="#000"/>
        <rect width="5.819" height="5.771" y=".399" fill="#BFBFBF" transform="translate(.97 1.14)"/>
        <rect width="7.758" height="7.695" y=".576" fill="#000" transform="translate(7.758)"/>
        <rect width="5.819" height="5.771" y=".399" fill="#BFBFBF" transform="translate(8.728 1.14)"/>
      </g>
      <g stroke="#1F2033" stroke-linecap="round" stroke-linejoin="round" stroke-width=".24" transform="translate(180.197 5.87)">
        <rect width="7.758" height="7.695" y=".576" fill="#000"/>
        <rect width="5.819" height="5.771" y=".399" fill="#BFBFBF" transform="translate(.97 1.14)"/>
        <rect width="7.758" height="7.695" y=".576" fill="#000" transform="translate(7.758)"/>
        <rect width="5.819" height="5.771" y=".399" fill="#BFBFBF" transform="translate(8.728 1.14)"/>
      </g>
      <g stroke="#1F2033" stroke-linecap="round" stroke-linejoin="round" stroke-width=".24" transform="translate(195.66 5.87)">
        <rect width="7.758" height="7.695" y=".576" fill="#000"/>
        <rect width="5.819" height="5.771" y=".399" fill="#BFBFBF" transform="translate(.97 1.14)"/>
        <rect width="7.758" height="7.695" y=".576" fill="#000" transform="translate(7.758)"/>
        <rect width="5.819" height="5.771" y=".399" fill="#BFBFBF" transform="translate(8.728 1.14)"/>
      </g>
      <g stroke="#000" stroke-linecap="round" stroke-linejoin="round" stroke-width=".24" transform="translate(164.796 146.993)">
        <rect width="7.758" height="7.695" y=".576" fill="#000"/>
        <rect width="5.819" height="5.771" y=".399" fill="#BFBFBF" transform="translate(.97 1.14)"/>
        <rect width="7.758" height="7.695" y=".576" fill="#000" transform="translate(7.758)"/>
        <rect width="5.819" height="5.771" y=".399" fill="#BFBFBF" transform="translate(8.728 1.14)"/>
      </g>
      <g stroke="#000" stroke-linecap="round" stroke-linejoin="round" stroke-width=".24" transform="translate(180.313 146.993)">
        <rect width="7.758" height="7.695" y=".576" fill="#000"/>
        <rect width="5.819" height="5.771" y=".399" fill="#BFBFBF" transform="translate(.97 1.14)"/>
        <rect width="7.758" height="7.695" y=".576" fill="#000" transform="translate(7.758)"/>
        <rect width="5.819" height="5.771" y=".399" fill="#BFBFBF" transform="translate(8.728 1.14)"/>
      </g>
      <g stroke="#000" stroke-linecap="round" stroke-linejoin="round" stroke-width=".24" transform="translate(195.775 146.993)">
        <rect width="7.758" height="7.695" y=".576" fill="#000"/>
        <rect width="5.819" height="5.771" y=".399" fill="#BFBFBF" transform="translate(.97 1.14)"/>
        <rect width="7.758" height="7.695" y=".576" fill="#000" transform="translate(7.758)"/>
        <rect width="5.819" height="5.771" y=".399" fill="#BFBFBF" transform="translate(8.728 1.14)"/>
      </g>
      <path fill="#BFBFBF" stroke="#000" stroke-linecap="round" stroke-linejoin="round" stroke-width=".24" d="M0,10.0218867 C-6.44696938e-16,4.80024972 4.26759888,0.567276605 9.53194888,0.567276605 C14.7962989,0.567276605 19.0638978,4.80024972 19.0638978,10.0218867 C19.0638978,15.2435237 14.7962989,19.4764968 9.53194888,19.4764968 C4.26759888,19.4764968 6.44696938e-16,15.2435237 0,10.0218867 Z" transform="translate(65.135 122.485)"/>
      <rect width="4.226" height="2.794" y=".575" fill="#FFF" stroke="#000" stroke-linecap="round" stroke-linejoin="round" stroke-width=".24" transform="translate(99.562 49.993)"/>
      <rect width="4.226" height="2.794" y=".575" fill="#FFF" stroke="#000" stroke-linecap="round" stroke-linejoin="round" stroke-width=".24" transform="translate(100.085 34.235)"/>
      <rect width="4.226" height="2.794" y=".575" fill="#FFF" stroke="#000" stroke-linecap="round" stroke-linejoin="round" stroke-width=".24" transform="translate(189.59 49.993)"/>
    </g>
    <path fill="#6D6DB5" fill-rule="nonzero" d="M37.5,155.5 L37.5,1.29599297 L34,1.29599297 L33.5,1.29599297 L33.5,0.295992968 L34,0.295992968 L42,0.295992968 L42.5,0.295992968 L42.5,1.29599297 L42,1.29599297 L38.5,1.29599297 L38.5,155.5 L42,155.5 L42.5,155.5 L42.5,156.5 L42,156.5 L34,156.5 L33.5,156.5 L33.5,155.5 L34,155.5 L37.5,155.5 Z"/>
    <path fill="#6D6DB5" d="M2.95272727 81.4363636C1.86666124 81.4363636 1.11575965 81.2306081.7 80.8190909.284240345 80.4075737.0509093455 79.6460662 0 78.5345455L1.19636364 78.4072727C1.24727298 79.2218223 1.38515039 79.7499988 1.61 79.9918182 1.83484961 80.2336376 2.28242089 80.3545455 2.95272727 80.3545455 3.60606387 80.3545455 4.0663623 80.2081833 4.33363636 79.9154545 4.60091043 79.6227258 4.73454545 79.1836393 4.73454545 78.5981818L4.73454545 77.9618182C4.73454545 77.3763607 4.62424353 76.935153 4.40363636 76.6381818 4.1830292 76.3412106 3.81818436 76.1927273 3.30909091 76.1927273L.318181818 76.1927273.318181818 71.1272727 5.51090909 71.1272727 5.51090909 72.2090909 1.51454545 72.2090909 1.51454545 75.0472727 3.39818182 75.0472727C4.22121624 75.0472727 4.84908875 75.2742402 5.28181818 75.7281818 5.71454762 76.1821235 5.93090909 76.9012072 5.93090909 77.8854545L5.93090909 78.7C5.93090909 79.5400042 5.68060856 80.2060581 5.18 80.6981818 4.67939144 81.1903055 3.93697462 81.4363636 2.95272727 81.4363636zM10.7757575 81.4363636C9.68120659 81.4363636 8.9324262 81.1966691 8.52939388 80.7172727 8.12636156 80.2378764 7.89939414 79.5187927 7.84848479 78.56L9.04484843 78.4327273C9.11272756 79.2218221 9.25908973 79.7478775 9.48393934 80.0109091 9.70878895 80.2739407 10.1393907 80.4054545 10.7757575 80.4054545 11.437579 80.4054545 11.904241 80.2675771 12.1757575 79.9918182 12.447274 79.7160592 12.5830302 79.2387913 12.5830302 78.56L12.5830302 78.2163636C12.5830302 77.5460573 12.4557588 77.0793953 12.2012121 76.8163636 11.9466653 76.553332 11.5012152 76.4218182 10.8648484 76.4218182L9.79575752 76.4218182 9.79575752 75.3527273 10.8648484 75.3527273C11.4248512 75.3527273 11.8151504 75.2509101 12.0357575 75.0472727 12.2563647 74.8436353 12.3666666 74.4787905 12.3666666 73.9527273L12.3666666 73.5454545C12.3666666 72.9854517 12.2500011 72.5930314 12.0166666 72.3681818 11.7833321 72.1433322 11.3739423 72.0309091 10.7884848 72.0309091 10.2624216 72.0309091 9.89121315 72.1581805 9.67484843 72.4127273 9.45848371 72.667274 9.3206063 73.133936 9.26121206 73.8127273L8.06484843 73.6854545C8.11575777 72.7266619 8.35969473 72.039396 8.79666661 71.6236364 9.23363849 71.2078767 9.88908648 71 10.7630302 71 11.6115193 71 12.2903004 71.2036343 12.7993939 71.6109091 13.3084873 72.0181839 13.5630302 72.6715107 13.5630302 73.5709091L13.5630302 73.9909091C13.5630302 74.5000025 13.4145469 74.9009076 13.1175757 75.1936364 12.8206045 75.4863651 12.4175782 75.6496968 11.9084848 75.6836364L11.9084848 76.0527273C12.510912 76.1121215 12.9733317 76.3496949 13.2957575 76.7654545 13.6181834 77.1812142 13.7793939 77.656361 13.7793939 78.1909091L13.7793939 78.5472727C13.7793939 79.4466712 13.5503053 80.1530277 13.0921212 80.6663636 12.633937 81.1796995 11.8618236 81.4363636 10.7757575 81.4363636zM16.6642423 75.7472727L16.6642423 81.3090909 15.5951514 81.3090909 15.5951514 73.6727273 16.6642423 73.6727273 16.6642423 74.6018182 16.8933332 74.6018182C17.0206066 74.2624225 17.1881807 73.9993949 17.3960605 73.8127273 17.6039403 73.6260597 17.8393925 73.5327273 18.1024241 73.5327273 18.3739406 73.5327273 18.6009081 73.6260597 18.7833332 73.8127273 18.9657584 73.9993949 19.095151 74.2624225 19.171515 74.6018182L19.4133332 74.6018182C19.5406066 74.2624225 19.7145442 73.9993949 19.9351514 73.8127273 20.1557586 73.6260597 20.4103015 73.5327273 20.6987878 73.5327273 21.0551532 73.5327273 21.3330292 73.6939378 21.5324241 74.0163636 21.7318191 74.3387895 21.831515 74.7927243 21.831515 75.3781818L21.831515 81.3090909 20.7624241 81.3090909 20.7624241 75.5309091C20.7624241 75.1915135 20.7200003 74.9369705 20.6351514 74.7672727 20.5503025 74.5975749 20.4315158 74.5127273 20.2787878 74.5127273 20.1260597 74.5127273 19.9606068 74.6187868 19.7824241 74.8309091 19.6042414 75.0430314 19.4260614 75.3484829 19.2478787 75.7472727L19.2478787 81.3090909 18.1787878 81.3090909 18.1787878 75.5309091C18.1787878 75.1915135 18.1384851 74.9369705 18.0578787 74.7672727 17.9772722 74.5975749 17.8606067 74.5127273 17.7078787 74.5127273 17.5466657 74.5127273 17.3790917 74.6145444 17.2051514 74.8181818 17.0312111 75.0218192 16.8509099 75.3315131 16.6642423 75.7472727zM24.5127271 75.7472727L24.5127271 81.3090909 23.4436362 81.3090909 23.4436362 73.6727273 24.5127271 73.6727273 24.5127271 74.6018182 24.741818 74.6018182C24.8690914 74.2624225 25.0366655 73.9993949 25.2445453 73.8127273 25.4524251 73.6260597 25.6878773 73.5327273 25.9509089 73.5327273 26.2224254 73.5327273 26.4493929 73.6260597 26.631818 73.8127273 26.8142432 73.9993949 26.9436358 74.2624225 27.0199998 74.6018182L27.261818 74.6018182C27.3890914 74.2624225 27.563029 73.9993949 27.7836362 73.8127273 28.0042434 73.6260597 28.2587863 73.5327273 28.5472726 73.5327273 28.903638 73.5327273 29.181514 73.6939378 29.3809089 74.0163636 29.5803039 74.3387895 29.6799998 74.7927243 29.6799998 75.3781818L29.6799998 81.3090909 28.6109089 81.3090909 28.6109089 75.5309091C28.6109089 75.1915135 28.5684851 74.9369705 28.4836362 74.7672727 28.3987873 74.5975749 28.2800006 74.5127273 28.1272726 74.5127273 27.9745445 74.5127273 27.8090916 74.6187868 27.6309089 74.8309091 27.4527262 75.0430314 27.2745462 75.3484829 27.0963635 75.7472727L27.0963635 81.3090909 26.0272726 81.3090909 26.0272726 75.5309091C26.0272726 75.1915135 25.9869699 74.9369705 25.9063635 74.7672727 25.825757 74.5975749 25.7090915 74.5127273 25.5563635 74.5127273 25.3951505 74.5127273 25.2275765 74.6145444 25.0536362 74.8181818 24.8796959 75.0218192 24.6993947 75.3315131 24.5127271 75.7472727zM145.914545 193.436364C144.930298 193.436364 144.198487 193.122427 143.719091 192.494545 143.239695 191.866664 143 190.967279 143 189.796364L143 186.538182C143 185.375752 143.248179 184.495458 143.744545 183.897273 144.240912 183.299088 144.972722 183 145.94 183 146.813944 183 147.463028 183.17818 147.887273 183.534545 148.311517 183.890911 148.591514 184.480602 148.727273 185.303636L147.429091 185.596364C147.327272 185.010906 147.176668 184.612122 146.977273 184.4 146.777878 184.187878 146.415154 184.081818 145.889091 184.081818 145.278179 184.081818 144.843335 184.270604 144.584545 184.648182 144.325756 185.025759 144.196364 185.655753 144.196364 186.538182L144.196364 187.938182 144.387273 187.938182C144.57394 187.607271 144.813635 187.361213 145.106364 187.2 145.399092 187.038787 145.774543 186.958182 146.232727 186.958182 147.115156 186.958182 147.768483 187.2403 148.192727 187.804545 148.616972 188.368791 148.829091 189.092117 148.829091 189.974545L148.829091 190.254545C148.829091 191.298187 148.583033 192.089391 148.090909 192.628182 147.598785 193.166972 146.873338 193.436364 145.914545 193.436364zM145.901818 192.354545C146.487276 192.354545 146.917877 192.189093 147.193636 191.858182 147.469395 191.527271 147.607273 191.005458 147.607273 190.292727L147.607273 190.127273C147.607273 189.414542 147.469395 188.892729 147.193636 188.561818 146.917877 188.230907 146.487276 188.065455 145.901818 188.065455 145.316361 188.065455 144.885759 188.230907 144.61 188.561818 144.334241 188.892729 144.196364 189.414542 144.196364 190.127273L144.196364 190.292727C144.196364 191.005458 144.334241 191.527271 144.61 191.858182 144.885759 192.189093 145.316361 192.354545 145.901818 192.354545zM153.76303 193.436364C152.744843 193.436364 152.004548 193.217881 151.542121 192.780909 151.079695 192.343937 150.848485 191.646065 150.848485 190.687273L150.848485 190.407273C150.848485 189.770906 150.996968 189.246972 151.293939 188.835455 151.590911 188.423937 152.006664 188.188485 152.541212 188.129091L152.541212 187.76C152.125452 187.717576 151.775456 187.524547 151.491212 187.180909 151.206968 186.837271 151.064848 186.3897 151.064848 185.838182L151.064848 185.430909C151.064848 184.58242 151.279089 183.965153 151.707576 183.579091 152.136063 183.193028 152.821207 183 153.76303 183 154.704853 183 155.389998 183.193028 155.818485 183.579091 156.246972 183.965153 156.461212 184.58242 156.461212 185.430909L156.461212 185.838182C156.461212 186.3897 156.319092 186.837271 156.034848 187.180909 155.750605 187.524547 155.400608 187.717576 154.984848 187.76L154.984848 188.129091C155.519397 188.188485 155.93515 188.426059 156.232121 188.841818 156.529092 189.257578 156.677576 189.779391 156.677576 190.407273L156.677576 190.687273C156.677576 191.646065 156.446366 192.343937 155.983939 192.780909 155.521513 193.217881 154.781217 193.436364 153.76303 193.436364zM153.76303 187.429091C154.323033 187.429091 154.713332 187.314547 154.933939 187.085455 155.154547 186.856362 155.264848 186.461821 155.264848 185.901818L155.264848 185.545455C155.264848 184.985452 155.154547 184.593031 154.933939 184.368182 154.713332 184.143332 154.323033 184.030909 153.76303 184.030909 153.203027 184.030909 152.812728 184.143332 152.592121 184.368182 152.371514 184.593031 152.261212 184.985452 152.261212 185.545455L152.261212 185.901818C152.261212 186.461821 152.371514 186.856362 152.592121 187.085455 152.812728 187.314547 153.203027 187.429091 153.76303 187.429091zM153.76303 192.405455C154.399397 192.405455 154.844847 192.269698 155.099394 191.998182 155.353941 191.726665 155.481212 191.251519 155.481212 190.572727L155.481212 190.343636C155.481212 189.65636 155.353941 189.176971 155.099394 188.905455 154.844847 188.633938 154.399397 188.498182 153.76303 188.498182 153.126663 188.498182 152.681213 188.633938 152.426667 188.905455 152.17212 189.176971 152.044848 189.65636 152.044848 190.343636L152.044848 190.572727C152.044848 191.251519 152.17212 191.726665 152.426667 191.998182 152.681213 192.269698 153.126663 192.405455 153.76303 192.405455zM159.562424 187.747273L159.562424 193.309091 158.493333 193.309091 158.493333 185.672727 159.562424 185.672727 159.562424 186.601818 159.791515 186.601818C159.918788 186.262423 160.086362 185.999395 160.294242 185.812727 160.502122 185.62606 160.737574 185.532727 161.000606 185.532727 161.272122 185.532727 161.49909 185.62606 161.681515 185.812727 161.86394 185.999395 161.993333 186.262423 162.069697 186.601818L162.311515 186.601818C162.438788 186.262423 162.612726 185.999395 162.833333 185.812727 163.05394 185.62606 163.308483 185.532727 163.59697 185.532727 163.953335 185.532727 164.231211 185.693938 164.430606 186.016364 164.630001 186.338789 164.729697 186.792724 164.729697 187.378182L164.729697 193.309091 163.660606 193.309091 163.660606 187.530909C163.660606 187.191513 163.618182 186.936971 163.533333 186.767273 163.448484 186.597575 163.329698 186.512727 163.17697 186.512727 163.024242 186.512727 162.858789 186.618787 162.680606 186.830909 162.502423 187.043031 162.324243 187.348483 162.14606 187.747273L162.14606 193.309091 161.07697 193.309091 161.07697 187.530909C161.07697 187.191513 161.036667 186.936971 160.95606 186.767273 160.875454 186.597575 160.758789 186.512727 160.60606 186.512727 160.444848 186.512727 160.277273 186.614544 160.103333 186.818182 159.929393 187.021819 159.749092 187.331513 159.562424 187.747273zM167.410909 187.747273L167.410909 193.309091 166.341818 193.309091 166.341818 185.672727 167.410909 185.672727 167.410909 186.601818 167.64 186.601818C167.767273 186.262423 167.934847 185.999395 168.142727 185.812727 168.350607 185.62606 168.586059 185.532727 168.849091 185.532727 169.120607 185.532727 169.347575 185.62606 169.53 185.812727 169.712425 185.999395 169.841818 186.262423 169.918182 186.601818L170.16 186.601818C170.287273 186.262423 170.461211 185.999395 170.681818 185.812727 170.902425 185.62606 171.156968 185.532727 171.445454 185.532727 171.80182 185.532727 172.079696 185.693938 172.279091 186.016364 172.478486 186.338789 172.578182 186.792724 172.578182 187.378182L172.578182 193.309091 171.509091 193.309091 171.509091 187.530909C171.509091 187.191513 171.466667 186.936971 171.381818 186.767273 171.296969 186.597575 171.178182 186.512727 171.025454 186.512727 170.872726 186.512727 170.707273 186.618787 170.529091 186.830909 170.350908 187.043031 170.172728 187.348483 169.994545 187.747273L169.994545 193.309091 168.925454 193.309091 168.925454 187.530909C168.925454 187.191513 168.885152 186.936971 168.804545 186.767273 168.723939 186.597575 168.607273 186.512727 168.454545 186.512727 168.293332 186.512727 168.125758 186.614544 167.951818 186.818182 167.777878 187.021819 167.597577 187.331513 167.410909 187.747273z"/>
    <path fill="#6D6DB5" fill-rule="nonzero" d="M50.5,171 L270.5,171 L270.5,167.5 L270.5,167 L271.5,167 L271.5,167.5 L271.5,175.5 L271.5,176 L270.5,176 L270.5,175.5 L270.5,172 L50.5,172 L50.5,175.5 L50.5,176 L49.5,176 L49.5,175.5 L49.5,167.5 L49.5,167 L50.5,167 L50.5,167.5 L50.5,171 Z"/>
  </g>
</svg>
