<svg xmlns="http://www.w3.org/2000/svg" width="28" height="45" viewBox="0 0 28 45">
  <path fill="#1F2033" fill-rule="evenodd" stroke="currentColor" stroke-width="1.5" d="M13.8327273,43.5090909 C9.38664444,43.5090909 6.20485807,42.5248583 4.28727273,40.5563636 C2.36968738,38.5878689 1.30909193,35.6182017 1.10545455,31.6472727 L8.28363636,31.1381818 C8.52121331,33.8194073 9.02181436,35.626662 9.78545455,36.56 C10.5490947,37.493338 11.8981721,37.96 13.8327273,37.96 C15.7672824,37.96 17.1248446,37.5187923 17.9054545,36.6363636 C18.6860645,35.753935 19.0763636,34.2606166 19.0763636,32.1563636 L19.0763636,30.12 C19.0763636,28.0157471 18.6606102,26.5139439 17.8290909,25.6145455 C16.9975716,24.715147 15.6315247,24.2654545 13.7309091,24.2654545 L9.35272727,24.2654545 L9.35272727,18.6654545 L13.7309091,18.6654545 C15.4278873,18.6654545 16.6072694,18.3515183 17.2690909,17.7236364 C17.9309124,17.0957544 18.2618182,15.9163723 18.2618182,14.1854545 L18.2618182,12.0472727 C18.2618182,10.316355 17.9139429,9.09454902 17.2181818,8.38181818 C16.5224208,7.66908735 15.3600081,7.31272727 13.7309091,7.31272727 C12.1696892,7.31272727 11.0581851,7.74545022 10.3963636,8.61090909 C9.73454215,9.47636796 9.3018192,11.0121102 9.09818182,13.2181818 L1.97090909,12.7090909 C2.17454647,8.87392022 3.20968764,6.09091775 5.07636364,4.36 C6.94303964,2.62908225 9.74301164,1.76363636 13.4763636,1.76363636 C17.3115343,1.76363636 20.2557473,2.56120415 22.3090909,4.15636364 C24.3624345,5.75152313 25.3890909,8.26301316 25.3890909,11.6909091 L25.3890909,13.3709091 C25.3890909,15.4412225 24.8036422,17.1127209 23.6327273,18.3854545 C22.4618123,19.6581882 20.9260701,20.4133321 19.0254545,20.6509091 L19.0254545,22.1272727 C21.1975866,22.3648497 22.9454479,23.2896889 24.2690909,24.9018182 C25.5927339,26.5139475 26.2545455,28.4569583 26.2545455,30.7309091 L26.2545455,32.2581818 C26.2545455,35.9575943 25.2448586,38.7575663 23.2254545,40.6581818 C21.2060505,42.5587974 18.0751727,43.5090909 13.8327273,43.5090909 Z"/>
</svg>
