<svg xmlns="http://www.w3.org/2000/svg" id="transparent-grid" width="2880" height="1600" viewBox="0 0 2880 1600">
  <g fill="none">
    <rect width="160" height="160" x="2720" y="1440"/>
    <rect width="160" height="160" x="2560" y="1440"/>
    <rect width="160" height="160" x="2400" y="1440"/>
    <rect width="160" height="160" x="2240" y="1440"/>
    <rect width="160" height="160" x="2080" y="1440"/>
    <rect width="160" height="160" x="1920" y="1440"/>
    <rect width="160" height="160" x="1760" y="1440"/>
    <rect width="160" height="160" x="1600" y="1440"/>
    <rect width="160" height="160" x="1440" y="1440"/>
    <rect width="160" height="160" x="1280" y="1440"/>
    <rect width="160" height="160" x="1120" y="1440"/>
    <rect width="160" height="160" x="960" y="1440"/>
    <rect width="160" height="160" x="800" y="1440"/>
    <rect width="160" height="160" x="640" y="1440"/>
    <rect width="160" height="160" x="480" y="1440"/>
    <rect width="160" height="160" x="320" y="1440"/>
    <rect width="160" height="160" x="160" y="1440"/>
    <rect width="160" height="160" y="1440"/>
    <rect width="160" height="160" x="2720" y="1280"/>
    <rect width="160" height="160" x="2560" y="1280"/>
    <rect width="160" height="160" x="2400" y="1280"/>
    <rect width="160" height="160" x="2240" y="1280"/>
    <rect width="160" height="160" x="2080" y="1280"/>
    <rect width="160" height="160" x="1920" y="1280"/>
    <rect width="160" height="160" x="1760" y="1280"/>
    <rect width="160" height="160" x="1600" y="1280"/>
    <rect width="160" height="160" x="1440" y="1280"/>
    <rect width="160" height="160" x="1280" y="1280"/>
    <rect width="160" height="160" x="1120" y="1280"/>
    <rect width="160" height="160" x="960" y="1280"/>
    <rect width="160" height="160" x="800" y="1280"/>
    <rect width="160" height="160" x="640" y="1280"/>
    <rect width="160" height="160" x="480" y="1280"/>
    <rect width="160" height="160" x="320" y="1280"/>
    <rect width="160" height="160" x="160" y="1280"/>
    <rect width="160" height="160" y="1280"/>
    <rect width="160" height="160" x="2720" y="1120"/>
    <rect width="160" height="160" x="2560" y="1120"/>
    <rect width="160" height="160" x="2400" y="1120"/>
    <rect width="160" height="160" x="2240" y="1120"/>
    <rect width="160" height="160" x="2080" y="1120"/>
    <rect width="160" height="160" x="1920" y="1120"/>
    <rect width="160" height="160" x="1760" y="1120"/>
    <rect width="160" height="160" x="1600" y="1120"/>
    <rect width="160" height="160" x="1440" y="1120"/>
    <rect width="160" height="160" x="1280" y="1120"/>
    <rect width="160" height="160" x="1120" y="1120"/>
    <rect width="160" height="160" x="960" y="1120"/>
    <rect width="160" height="160" x="800" y="1120"/>
    <rect width="160" height="160" x="640" y="1120"/>
    <rect width="160" height="160" x="480" y="1120"/>
    <rect width="160" height="160" x="320" y="1120"/>
    <rect width="160" height="160" x="160" y="1120"/>
    <rect width="160" height="160" y="1120"/>
    <rect width="160" height="160" x="2720" y="960"/>
    <rect width="160" height="160" x="2560" y="960"/>
    <rect width="160" height="160" x="2400" y="960"/>
    <rect width="160" height="160" x="2240" y="960"/>
    <rect width="160" height="160" x="2080" y="960"/>
    <rect width="160" height="160" x="1920" y="960"/>
    <rect width="160" height="160" x="1760" y="960"/>
    <rect width="160" height="160" x="1600" y="960"/>
    <rect width="160" height="160" x="1440" y="960"/>
    <rect width="160" height="160" x="1280" y="960"/>
    <rect width="160" height="160" x="1120" y="960"/>
    <rect width="160" height="160" x="960" y="960"/>
    <rect width="160" height="160" x="800" y="960"/>
    <rect width="160" height="160" x="640" y="960"/>
    <rect width="160" height="160" x="480" y="960"/>
    <rect width="160" height="160" x="320" y="960"/>
    <rect width="160" height="160" x="160" y="960"/>
    <rect width="160" height="160" y="960"/>
    <rect width="160" height="160" x="2720" y="800"/>
    <rect width="160" height="160" x="2560" y="800"/>
    <rect width="160" height="160" x="2400" y="800"/>
    <rect width="160" height="160" x="2240" y="800"/>
    <rect width="160" height="160" x="2080" y="800"/>
    <rect width="160" height="160" x="1920" y="800"/>
    <rect width="160" height="160" x="1760" y="800"/>
    <rect width="160" height="160" x="1600" y="800"/>
    <rect width="160" height="160" x="1440" y="800"/>
    <rect width="160" height="160" x="1280" y="800"/>
    <rect width="160" height="160" x="1120" y="800"/>
    <rect width="160" height="160" x="960" y="800"/>
    <rect width="160" height="160" x="800" y="800"/>
    <rect width="160" height="160" x="640" y="800"/>
    <rect width="160" height="160" x="480" y="800"/>
    <rect width="160" height="160" x="320" y="800"/>
    <rect width="160" height="160" x="160" y="800"/>
    <rect width="160" height="160" y="800"/>
    <rect width="160" height="160" x="2720" y="640"/>
    <rect width="160" height="160" x="2560" y="640"/>
    <rect width="160" height="160" x="2400" y="640"/>
    <rect width="160" height="160" x="2240" y="640"/>
    <rect width="160" height="160" x="2080" y="640"/>
    <rect width="160" height="160" x="1920" y="640"/>
    <rect width="160" height="160" x="1760" y="640"/>
    <rect width="160" height="160" x="1600" y="640"/>
    <rect width="160" height="160" x="1440" y="640"/>
    <rect width="160" height="160" x="1280" y="640"/>
    <rect width="160" height="160" x="1120" y="640"/>
    <rect width="160" height="160" x="960" y="640"/>
    <rect width="160" height="160" x="800" y="640"/>
    <rect width="160" height="160" x="640" y="640"/>
    <rect width="160" height="160" x="480" y="640"/>
    <rect width="160" height="160" x="320" y="640"/>
    <rect width="160" height="160" x="160" y="640"/>
    <rect width="160" height="160" y="640"/>
    <rect width="160" height="160" x="2720" y="480"/>
    <rect width="160" height="160" x="2560" y="480"/>
    <rect width="160" height="160" x="2400" y="480"/>
    <rect width="160" height="160" x="2240" y="480"/>
    <rect width="160" height="160" x="2080" y="480"/>
    <rect width="160" height="160" x="1920" y="480"/>
    <rect width="160" height="160" x="1760" y="480"/>
    <rect width="160" height="160" x="1600" y="480"/>
    <rect width="160" height="160" x="1440" y="480"/>
    <rect width="160" height="160" x="1280" y="480"/>
    <rect width="160" height="160" x="1120" y="480"/>
    <rect width="160" height="160" x="960" y="480"/>
    <rect width="160" height="160" x="800" y="480"/>
    <rect width="160" height="160" x="640" y="480"/>
    <rect width="160" height="160" x="480" y="480"/>
    <rect width="160" height="160" x="320" y="480"/>
    <rect width="160" height="160" x="160" y="480"/>
    <rect width="160" height="160" y="480"/>
    <rect width="160" height="160" x="2720" y="320"/>
    <rect width="160" height="160" x="2560" y="320"/>
    <rect width="160" height="160" x="2400" y="320"/>
    <rect width="160" height="160" x="2240" y="320"/>
    <rect width="160" height="160" x="2080" y="320"/>
    <rect width="160" height="160" x="1920" y="320"/>
    <rect width="160" height="160" x="1760" y="320"/>
    <rect width="160" height="160" x="1600" y="320"/>
    <rect width="160" height="160" x="1440" y="320"/>
    <rect width="160" height="160" x="1280" y="320"/>
    <rect width="160" height="160" x="1120" y="320"/>
    <rect width="160" height="160" x="960" y="320"/>
    <rect width="160" height="160" x="800" y="320"/>
    <rect width="160" height="160" x="640" y="320"/>
    <rect width="160" height="160" x="480" y="320"/>
    <rect width="160" height="160" x="320" y="320"/>
    <rect width="160" height="160" x="160" y="320"/>
    <rect width="160" height="160" y="320"/>
    <rect width="160" height="160" x="2720" y="160"/>
    <rect width="160" height="160" x="2560" y="160"/>
    <rect width="160" height="160" x="2400" y="160"/>
    <rect width="160" height="160" x="2240" y="160"/>
    <rect width="160" height="160" x="2080" y="160"/>
    <rect width="160" height="160" x="1920" y="160"/>
    <rect width="160" height="160" x="1760" y="160"/>
    <rect width="160" height="160" x="1600" y="160"/>
    <rect width="160" height="160" x="1440" y="160"/>
    <rect width="160" height="160" x="1280" y="160"/>
    <rect width="160" height="160" x="1120" y="160"/>
    <rect width="160" height="160" x="960" y="160"/>
    <rect width="160" height="160" x="800" y="160"/>
    <rect width="160" height="160" x="640" y="160"/>
    <rect width="160" height="160" x="480" y="160"/>
    <rect width="160" height="160" x="320" y="160"/>
    <rect width="160" height="160" x="160" y="160"/>
    <rect width="160" height="160" y="160"/>
    <rect width="160" height="160" x="2720"/>
    <rect width="160" height="160" x="2560"/>
    <rect width="160" height="160" x="2400"/>
    <rect width="160" height="160" x="2240"/>
    <rect width="160" height="160" x="2080"/>
    <rect width="160" height="160" x="1920"/>
    <rect width="160" height="160" x="1760"/>
    <rect width="160" height="160" x="1600"/>
    <rect width="160" height="160" x="1440"/>
    <rect width="160" height="160" x="1280"/>
    <rect width="160" height="160" x="1120"/>
    <rect width="160" height="160" x="960"/>
    <rect width="160" height="160" x="800"/>
    <rect width="160" height="160" x="640"/>
    <rect width="160" height="160" x="480"/>
    <rect width="160" height="160" x="320"/>
    <rect width="160" height="160" x="160"/>
    <rect width="160" height="160"/>
  </g>
</svg>
