<svg xmlns="http://www.w3.org/2000/svg" width="709" height="512" viewBox="0 0 709 512" aria-labelledby="title desc" role="img">
  <title id="title">The Things Network</title>
  <desc id="desc">Animated heading</desc>
  <g fill="none" fill-rule="evenodd">
    <path fill="#1F2033" stroke="#78FEE0" stroke-width="2" d="M38.646524,144.177302 L38.646524,31.2008506 L7,31.2008506 L7,13 L93.4130474,13 L93.4130474,31.2008506 L61.6025518,31.2008506 L61.6025518,144.177302 L38.646524,144.177302 Z M114.894185,144.177302 L114.894185,13 L137.850212,13 L137.850212,60.5517718 L141.949503,60.5517718 C143.807857,55.5232834 146.895959,51.5333471 151.2139,48.5818431 C155.531841,45.630339 160.532926,44.1546091 166.217304,44.1546091 C173.760036,44.1546091 179.717613,46.8601139 184.090211,52.2712047 C188.46281,57.6822954 190.649076,64.9789598 190.649076,74.1614169 L190.649076,144.177302 L167.693049,144.177302 L167.693049,78.7526224 C167.693049,73.6148191 166.736557,69.6795394 164.823545,66.9466653 C162.910533,64.2137912 160.150372,62.8473746 156.542978,62.8473746 C153.044899,62.8473746 149.710843,63.9951645 146.540709,66.2907788 C143.370575,68.586393 140.473772,71.8657928 137.850212,76.1290764 L137.850212,144.177302 L114.894185,144.177302 Z M294.279999,122.041132 C291.547124,130.567699 287.36589,136.661917 281.736169,140.323968 C276.106448,143.98602 267.661994,145.817018 256.402553,145.817018 C244.596537,145.817018 235.168262,142.783573 228.117447,136.716593 C221.066632,130.649612 217.541277,121.931874 217.541277,110.563118 L217.541277,79.2445373 C217.541277,67.9850959 221.011975,59.322015 227.953475,53.2550344 C234.894976,47.1880539 244.104623,44.1546091 255.582695,44.1546091 C267.170081,44.1546091 276.3524,47.2700389 283.129928,53.5009919 C289.907456,59.7319448 293.296169,68.8049508 293.296169,80.7202819 L293.296169,99.4130474 L240.497305,99.4130474 L240.497305,111.382976 C240.497305,117.613929 241.781737,122.205089 244.350638,125.156593 C246.91954,128.108097 251.100775,129.583827 256.894468,129.583827 C261.922956,129.583827 265.803579,128.600007 268.536453,126.632337 C271.269327,124.664668 273.34628,121.275955 274.767375,116.466097 L294.279999,122.041132 Z M240.497305,78.0967359 L240.497305,85.6394307 L270.340141,85.6394307 L270.340141,79.2445373 C270.340141,72.3576945 269.192351,67.4385949 266.896737,64.4870909 C264.601123,61.5355868 260.775156,60.0598569 255.418723,60.0598569 C250.06229,60.0598569 246.236323,61.4809302 243.940709,64.3231192 C241.645095,67.1653083 240.497305,71.756468 240.497305,78.0967359 Z M38.646524,323.555054 L38.646524,210.578603 L7,210.578603 L7,192.377752 L93.4130474,192.377752 L93.4130474,210.578603 L61.6025518,210.578603 L61.6025518,323.555054 L38.646524,323.555054 Z M114.894185,323.555054 L114.894185,192.377752 L137.850212,192.377752 L137.850212,239.929524 L141.949503,239.929524 C143.807857,234.901036 146.895959,230.911099 151.2139,227.959595 C155.531841,225.008091 160.532926,223.532361 166.217304,223.532361 C173.760036,223.532361 179.717613,226.237866 184.090211,231.648957 C188.46281,237.060048 190.649076,244.356712 190.649076,253.539169 L190.649076,323.555054 L167.693049,323.555054 L167.693049,258.130375 C167.693049,252.992571 166.736557,249.057292 164.823545,246.324418 C162.910533,243.591544 160.150372,242.225127 156.542978,242.225127 C153.044899,242.225127 149.710843,243.372917 146.540709,245.668531 C143.370575,247.964145 140.473772,251.243545 137.850212,255.506829 L137.850212,323.555054 L114.894185,323.555054 Z M218.361135,323.555054 L218.361135,306.01009 L243.940709,306.01009 L243.940709,242.717042 L218.361135,242.717042 L218.361135,225.172078 L266.896737,225.172078 L266.896737,306.01009 L292.476311,306.01009 L292.476311,323.555054 L218.361135,323.555054 Z M256.402553,208.283 C251.702009,208.283 247.903371,207.545135 245.006525,206.069383 C242.109678,204.593631 240.661277,201.83347 240.661277,197.788816 L240.661277,196.1491 C240.661277,192.104446 242.109678,189.289628 245.006525,187.704561 C247.903371,186.119494 251.702009,185.326972 256.402553,185.326972 C261.103096,185.326972 264.901734,186.119494 267.798581,187.704561 C270.695427,189.289628 272.143829,192.104446 272.143829,196.1491 L272.143829,197.788816 C272.143829,201.83347 270.668099,204.593631 267.716595,206.069383 C264.765091,207.545135 260.993781,208.283 256.402553,208.283 Z M320.18837,323.555054 L320.18837,225.172078 L343.144398,225.172078 L343.144398,239.929524 L347.243688,239.929524 C349.320673,234.791721 352.545416,230.774456 356.918014,227.87761 C361.290613,224.980763 366.264369,223.532361 371.839432,223.532361 C379.382165,223.532361 385.285084,226.18321 389.548368,231.484985 C393.811652,236.786761 395.943261,244.138082 395.943261,253.539169 L395.943261,323.555054 L372.987234,323.555054 L372.987234,257.802432 C372.987234,252.773943 372.030742,248.920648 370.11773,246.242432 C368.204718,243.564215 365.444557,242.225127 361.837163,242.225127 C358.339084,242.225127 354.977699,243.31826 351.752908,245.504559 C348.528116,247.690859 345.658642,250.860945 343.144398,255.014914 L343.144398,323.555054 L320.18837,323.555054 Z M503.673474,330.277891 C503.673474,339.132403 500.858656,345.964486 495.228936,350.774344 C489.599215,355.584202 482.193237,357.989096 473.01078,357.989096 L448.742979,357.989096 C438.686003,357.989096 431.006742,355.939471 425.704966,351.84016 C420.40319,347.740848 417.752342,341.919914 417.752342,334.377181 C417.752342,329.020748 419.118758,324.7302 421.851633,321.505409 C424.584507,318.280617 428.082533,316.394962 432.345817,315.848387 L432.345817,312.568955 C429.066368,311.694435 426.306206,310.000079 424.06525,307.485834 C421.824293,304.97159 420.703831,301.090967 420.703831,295.843849 C420.703831,290.596731 422.343531,286.087556 425.62298,282.31619 C428.902429,278.544823 433.220305,276.331229 438.576738,275.675339 L438.576738,272.72385 C433.876195,271.084125 430.405497,268.515262 428.16454,265.017183 C425.923583,261.519104 424.803122,257.857108 424.803122,254.031084 L424.803122,251.079595 C424.803122,243.208917 427.809238,236.923401 433.821561,232.222858 C439.833884,227.522314 447.7591,225.172078 457.597447,225.172078 L502.525673,225.172078 L502.525673,241.077326 L480.553475,237.46995 L480.553475,240.749382 C483.942239,241.842532 486.7024,244.00147 488.834042,247.226262 C490.965684,250.451053 492.031489,253.867094 492.031489,257.474488 L492.031489,260.425978 C492.031489,268.18734 489.080029,274.336215 483.177021,278.872786 C477.274013,283.409357 469.29414,285.677608 459.237163,285.677608 L446.77532,285.677608 C443.933131,285.677608 441.719536,286.360816 440.134469,287.727253 C438.549402,289.09369 437.75688,291.416599 437.75688,294.696048 C437.75688,297.866182 438.631387,300.18909 440.380426,301.664842 C442.129466,303.140594 444.589016,303.878459 447.75915,303.878459 L474.158582,303.878459 C483.013094,303.878459 490.145788,305.98274 495.556879,310.191366 C500.96797,314.399992 503.673474,321.095434 503.673474,330.277891 Z M458.417305,272.395906 C462.789904,272.395906 465.95999,271.275445 467.92766,269.034488 C469.895329,266.793531 470.879149,263.486803 470.879149,259.114205 L470.879149,252.883283 C470.879149,248.510684 469.868001,245.258613 467.845674,243.126971 C465.823347,240.995329 462.680589,239.929524 458.417305,239.929524 C454.154022,239.929524 451.011264,240.995329 448.988937,243.126971 C446.96661,245.258613 445.955462,248.510684 445.955462,252.883283 L445.955462,259.114205 C445.955462,263.486803 446.939282,266.793531 448.906951,269.034488 C450.87462,271.275445 454.044707,272.395906 458.417305,272.395906 Z M450.546667,343.231649 L473.338723,343.231649 C476.727487,343.231649 479.487649,342.439128 481.619291,340.854061 C483.750932,339.268994 484.816737,336.344862 484.816737,332.081579 C484.816737,328.036925 483.778261,325.249435 481.701276,323.719026 C479.624292,322.188616 477.000772,321.423423 473.830638,321.423423 L439.72454,321.423423 L439.72454,331.26172 C439.72454,335.197059 440.54439,338.175847 442.184114,340.198174 C443.823839,342.220501 446.611329,343.231649 450.546667,343.231649 Z M563.032057,325.030799 C555.81727,325.030799 548.76656,323.937665 541.879718,321.751366 C534.992875,319.565067 529.089955,316.668264 524.170782,313.06087 L530.237732,297.811508 C535.156905,300.981642 540.540587,303.577834 546.388937,305.600161 C552.237288,307.622488 557.784939,308.633636 563.032057,308.633636 C568.060546,308.633636 571.995826,307.759129 574.838015,306.01009 C577.680204,304.26105 579.101277,301.364247 579.101277,297.319594 C579.101277,293.05631 577.762189,290.050194 575.083972,288.301154 C572.405755,286.552115 567.131387,284.693788 559.26071,282.726119 C547.891954,279.993245 539.638798,276.46789 534.500994,272.149949 C529.363191,267.832008 526.794328,261.464507 526.794328,253.047254 C526.794328,243.864797 530.019071,236.650118 536.468654,231.403 C542.918237,226.155881 551.390019,223.532361 561.884256,223.532361 C568.443154,223.532361 574.837983,224.570838 581.068936,226.647822 C587.299889,228.724807 592.765556,231.45764 597.466099,234.846404 L592.219007,249.767822 C587.627779,246.925633 582.845321,244.575396 577.87149,242.717042 C572.897659,240.858687 568.060544,239.929524 563.360001,239.929524 C559.096717,239.929524 555.762661,240.776702 553.357731,242.471084 C550.952802,244.165466 549.750356,246.925628 549.750356,250.751652 C549.750356,254.796305 551.280742,257.693108 554.341561,259.442148 C557.40238,261.191187 563.359956,263.26814 572.214469,265.67307 C582.927335,268.187314 590.579268,271.68534 595.170496,276.167254 C599.761725,280.649167 602.057305,286.98934 602.057305,295.187962 C602.057305,304.370419 598.53195,311.639756 591.481135,316.996189 C584.43032,322.352622 574.947389,325.030799 563.032057,325.030799 Z M61.1106369,502.932806 L30.9398575,401.762312 L30.9398575,502.932806 L11.2632623,502.932806 L11.2632623,371.755505 L37.4987226,371.755505 L69.3092182,475.05763 L69.3092182,371.755505 L88.9858135,371.755505 L88.9858135,502.932806 L61.1106369,502.932806 Z M191.632906,480.796637 C188.900032,489.323204 184.718797,495.417422 179.089077,499.079473 C173.459356,502.741524 165.014902,504.572523 153.75546,504.572523 C141.949444,504.572523 132.52117,501.539078 125.470355,495.472097 C118.419539,489.405117 114.894185,480.687379 114.894185,469.318623 L114.894185,438.000042 C114.894185,426.740601 118.364883,418.07752 125.306383,412.010539 C132.247883,405.943559 141.457531,402.910114 152.935602,402.910114 C164.522988,402.910114 173.705308,406.025544 180.482835,412.256497 C187.260363,418.48745 190.649076,427.560455 190.649076,439.475787 L190.649076,458.168552 L137.850212,458.168552 L137.850212,470.138481 C137.850212,476.369434 139.134644,480.960593 141.703546,483.912098 C144.272447,486.863602 148.453682,488.339331 154.247375,488.339331 C159.275863,488.339331 163.156486,487.355512 165.889361,485.387842 C168.622235,483.420173 170.699188,480.03146 172.120282,475.221601 L191.632906,480.796637 Z M137.850212,436.852241 L137.850212,444.394935 L167.693049,444.394935 L167.693049,438.000042 C167.693049,431.113199 166.545259,426.1941 164.249644,423.242596 C161.95403,420.291092 158.128064,418.815362 152.77163,418.815362 C147.415197,418.815362 143.589231,420.236435 141.293617,423.078624 C138.998002,425.920813 137.850212,430.511973 137.850212,436.852241 Z M270.668084,504.572523 C259.955218,504.572523 251.647405,501.675719 245.744397,495.882026 C239.841389,490.088333 236.889929,481.999147 236.889929,471.614226 L236.889929,422.094794 L216.393476,422.094794 L216.393476,404.54983 L236.889929,404.54983 L236.889929,371.755505 L259.845957,371.755505 L259.845957,404.54983 L291.656453,404.54983 L291.656453,422.094794 L259.845957,422.094794 L259.845957,469.482594 C259.845957,475.057658 261.021075,479.266221 263.371347,482.10841 C265.721619,484.950599 269.13766,486.371672 273.619574,486.371672 C276.680393,486.371672 279.631852,486.043732 282.474041,485.387842 C285.316231,484.731952 287.885094,483.966759 290.180708,483.092239 L292.968226,500.637203 C290.672611,501.730353 287.502525,502.659516 283.457871,503.424721 C279.413218,504.189926 275.149998,504.572523 270.668084,504.572523 Z M369.215886,502.932806 L358.065816,447.674368 L347.571631,502.932806 L326.25532,502.932806 L312.809647,404.54983 L332.650213,404.54983 L340.35688,476.533374 L349.867234,421.438908 L365.60851,421.438908 L376.266666,475.713516 L383.481418,404.54983 L403.485956,404.54983 L389.876311,502.932806 L369.215886,502.932806 Z M461.040851,504.572523 C449.016205,504.572523 439.669916,501.484421 433.001703,495.308126 C426.33349,489.13183 422.999434,480.523406 422.999434,469.482594 L422.999434,438.655928 C422.999434,427.396487 426.360819,418.624093 433.083689,412.338482 C439.806559,406.052872 449.12552,402.910114 461.040851,402.910114 C472.846868,402.910114 482.111172,406.0802 488.834042,412.420468 C495.556912,418.760736 498.918297,427.560459 498.918297,438.8199 L498.918297,469.810538 C498.918297,480.742034 495.556912,489.268473 488.834042,495.390111 C482.111172,501.511749 472.846868,504.572523 461.040851,504.572523 Z M461.040851,487.027558 C466.178655,487.027558 469.949964,485.606485 472.354894,482.764296 C474.759823,479.922107 475.962269,475.330947 475.962269,468.990679 L475.962269,439.147843 C475.962269,432.588946 474.759823,427.833816 472.354894,424.882312 C469.949964,421.930808 466.178655,420.455078 461.040851,420.455078 C455.903048,420.455078 452.10441,421.930808 449.644823,424.882312 C447.185237,427.833816 445.955462,432.534289 445.955462,438.983872 L445.955462,468.662736 C445.955462,475.112319 447.185237,479.785464 449.644823,482.68231 C452.10441,485.579157 455.903048,487.027558 461.040851,487.027558 Z M529.417874,502.932806 L529.417874,404.54983 L552.537873,404.54983 L552.537873,420.946993 L556.637164,420.946993 C558.495518,414.71604 561.556291,410.152208 565.819575,407.255362 C570.082859,404.358515 575.111272,402.910114 580.904965,402.910114 C587.791808,402.910114 593.120832,405.287679 596.892198,410.04288 C600.663565,414.798081 602.54922,421.548178 602.54922,430.293376 L602.54922,446.690538 L581.560851,446.690538 L581.560851,437.344155 C581.560851,431.769092 580.713673,427.751828 579.019291,425.292241 C577.324909,422.832654 574.455434,421.602879 570.410781,421.602879 C566.912702,421.602879 563.578645,422.696013 560.408511,424.882312 C557.238377,427.068611 554.614858,430.511981 552.537873,435.212524 L552.537873,502.932806 L529.417874,502.932806 Z M654.201136,459.808268 L654.201136,502.932806 L631.245108,502.932806 L631.245108,371.755505 L654.201136,371.755505 L654.201136,443.411106 L659.940143,443.411106 L682.568228,404.54983 L707,404.54983 L678.468937,449.642028 L706.508085,502.932806 L681.748369,502.932806 L659.940143,459.808268 L654.201136,459.808268 Z"/>
    <path fill="#1F2033" stroke="#78FEE0" stroke-width="2" d="M35.646524,139.177302 L35.646524,26.2008506 L4,26.2008506 L4,8 L90.4130474,8 L90.4130474,26.2008506 L58.6025518,26.2008506 L58.6025518,139.177302 L35.646524,139.177302 Z M111.894185,139.177302 L111.894185,8 L134.850212,8 L134.850212,55.5517718 L138.949503,55.5517718 C140.807857,50.5232834 143.895959,46.5333471 148.2139,43.5818431 C152.531841,40.630339 157.532926,39.1546091 163.217304,39.1546091 C170.760036,39.1546091 176.717613,41.8601139 181.090211,47.2712047 C185.46281,52.6822954 187.649076,59.9789598 187.649076,69.1614169 L187.649076,139.177302 L164.693049,139.177302 L164.693049,73.7526224 C164.693049,68.6148191 163.736557,64.6795394 161.823545,61.9466653 C159.910533,59.2137912 157.150372,57.8473746 153.542978,57.8473746 C150.044899,57.8473746 146.710843,58.9951645 143.540709,61.2907788 C140.370575,63.586393 137.473772,66.8657928 134.850212,71.1290764 L134.850212,139.177302 L111.894185,139.177302 Z M291.279999,117.041132 C288.547124,125.567699 284.36589,131.661917 278.736169,135.323968 C273.106448,138.98602 264.661994,140.817018 253.402553,140.817018 C241.596537,140.817018 232.168262,137.783573 225.117447,131.716593 C218.066632,125.649612 214.541277,116.931874 214.541277,105.563118 L214.541277,74.2445373 C214.541277,62.9850959 218.011975,54.322015 224.953475,48.2550344 C231.894976,42.1880539 241.104623,39.1546091 252.582695,39.1546091 C264.170081,39.1546091 273.3524,42.2700389 280.129928,48.5009919 C286.907456,54.7319448 290.296169,63.8049508 290.296169,75.7202819 L290.296169,94.4130474 L237.497305,94.4130474 L237.497305,106.382976 C237.497305,112.613929 238.781737,117.205089 241.350638,120.156593 C243.91954,123.108097 248.100775,124.583827 253.894468,124.583827 C258.922956,124.583827 262.803579,123.600007 265.536453,121.632337 C268.269327,119.664668 270.34628,116.275955 271.767375,111.466097 L291.279999,117.041132 Z M237.497305,73.0967359 L237.497305,80.6394307 L267.340141,80.6394307 L267.340141,74.2445373 C267.340141,67.3576945 266.192351,62.4385949 263.896737,59.4870909 C261.601123,56.5355868 257.775156,55.0598569 252.418723,55.0598569 C247.06229,55.0598569 243.236323,56.4809302 240.940709,59.3231192 C238.645095,62.1653083 237.497305,66.756468 237.497305,73.0967359 Z M35.646524,318.555054 L35.646524,205.578603 L4,205.578603 L4,187.377752 L90.4130474,187.377752 L90.4130474,205.578603 L58.6025518,205.578603 L58.6025518,318.555054 L35.646524,318.555054 Z M111.894185,318.555054 L111.894185,187.377752 L134.850212,187.377752 L134.850212,234.929524 L138.949503,234.929524 C140.807857,229.901036 143.895959,225.911099 148.2139,222.959595 C152.531841,220.008091 157.532926,218.532361 163.217304,218.532361 C170.760036,218.532361 176.717613,221.237866 181.090211,226.648957 C185.46281,232.060048 187.649076,239.356712 187.649076,248.539169 L187.649076,318.555054 L164.693049,318.555054 L164.693049,253.130375 C164.693049,247.992571 163.736557,244.057292 161.823545,241.324418 C159.910533,238.591544 157.150372,237.225127 153.542978,237.225127 C150.044899,237.225127 146.710843,238.372917 143.540709,240.668531 C140.370575,242.964145 137.473772,246.243545 134.850212,250.506829 L134.850212,318.555054 L111.894185,318.555054 Z M215.361135,318.555054 L215.361135,301.01009 L240.940709,301.01009 L240.940709,237.717042 L215.361135,237.717042 L215.361135,220.172078 L263.896737,220.172078 L263.896737,301.01009 L289.476311,301.01009 L289.476311,318.555054 L215.361135,318.555054 Z M253.402553,203.283 C248.702009,203.283 244.903371,202.545135 242.006525,201.069383 C239.109678,199.593631 237.661277,196.83347 237.661277,192.788816 L237.661277,191.1491 C237.661277,187.104446 239.109678,184.289628 242.006525,182.704561 C244.903371,181.119494 248.702009,180.326972 253.402553,180.326972 C258.103096,180.326972 261.901734,181.119494 264.798581,182.704561 C267.695427,184.289628 269.143829,187.104446 269.143829,191.1491 L269.143829,192.788816 C269.143829,196.83347 267.668099,199.593631 264.716595,201.069383 C261.765091,202.545135 257.993781,203.283 253.402553,203.283 Z M317.18837,318.555054 L317.18837,220.172078 L340.144398,220.172078 L340.144398,234.929524 L344.243688,234.929524 C346.320673,229.791721 349.545416,225.774456 353.918014,222.87761 C358.290613,219.980763 363.264369,218.532361 368.839432,218.532361 C376.382165,218.532361 382.285084,221.18321 386.548368,226.484985 C390.811652,231.786761 392.943261,239.138082 392.943261,248.539169 L392.943261,318.555054 L369.987234,318.555054 L369.987234,252.802432 C369.987234,247.773943 369.030742,243.920648 367.11773,241.242432 C365.204718,238.564215 362.444557,237.225127 358.837163,237.225127 C355.339084,237.225127 351.977699,238.31826 348.752908,240.504559 C345.528116,242.690859 342.658642,245.860945 340.144398,250.014914 L340.144398,318.555054 L317.18837,318.555054 Z M500.673474,325.277891 C500.673474,334.132403 497.858656,340.964486 492.228936,345.774344 C486.599215,350.584202 479.193237,352.989096 470.01078,352.989096 L445.742979,352.989096 C435.686003,352.989096 428.006742,350.939471 422.704966,346.84016 C417.40319,342.740848 414.752342,336.919914 414.752342,329.377181 C414.752342,324.020748 416.118758,319.7302 418.851633,316.505409 C421.584507,313.280617 425.082533,311.394962 429.345817,310.848387 L429.345817,307.568955 C426.066368,306.694435 423.306206,305.000079 421.06525,302.485834 C418.824293,299.97159 417.703831,296.090967 417.703831,290.843849 C417.703831,285.596731 419.343531,281.087556 422.62298,277.31619 C425.902429,273.544823 430.220305,271.331229 435.576738,270.675339 L435.576738,267.72385 C430.876195,266.084125 427.405497,263.515262 425.16454,260.017183 C422.923583,256.519104 421.803122,252.857108 421.803122,249.031084 L421.803122,246.079595 C421.803122,238.208917 424.809238,231.923401 430.821561,227.222858 C436.833884,222.522314 444.7591,220.172078 454.597447,220.172078 L499.525673,220.172078 L499.525673,236.077326 L477.553475,232.46995 L477.553475,235.749382 C480.942239,236.842532 483.7024,239.00147 485.834042,242.226262 C487.965684,245.451053 489.031489,248.867094 489.031489,252.474488 L489.031489,255.425978 C489.031489,263.18734 486.080029,269.336215 480.177021,273.872786 C474.274013,278.409357 466.29414,280.677608 456.237163,280.677608 L443.77532,280.677608 C440.933131,280.677608 438.719536,281.360816 437.134469,282.727253 C435.549402,284.09369 434.75688,286.416599 434.75688,289.696048 C434.75688,292.866182 435.631387,295.18909 437.380426,296.664842 C439.129466,298.140594 441.589016,298.878459 444.75915,298.878459 L471.158582,298.878459 C480.013094,298.878459 487.145788,300.98274 492.556879,305.191366 C497.96797,309.399992 500.673474,316.095434 500.673474,325.277891 Z M455.417305,267.395906 C459.789904,267.395906 462.95999,266.275445 464.92766,264.034488 C466.895329,261.793531 467.879149,258.486803 467.879149,254.114205 L467.879149,247.883283 C467.879149,243.510684 466.868001,240.258613 464.845674,238.126971 C462.823347,235.995329 459.680589,234.929524 455.417305,234.929524 C451.154022,234.929524 448.011264,235.995329 445.988937,238.126971 C443.96661,240.258613 442.955462,243.510684 442.955462,247.883283 L442.955462,254.114205 C442.955462,258.486803 443.939282,261.793531 445.906951,264.034488 C447.87462,266.275445 451.044707,267.395906 455.417305,267.395906 Z M447.546667,338.231649 L470.338723,338.231649 C473.727487,338.231649 476.487649,337.439128 478.619291,335.854061 C480.750932,334.268994 481.816737,331.344862 481.816737,327.081579 C481.816737,323.036925 480.778261,320.249435 478.701276,318.719026 C476.624292,317.188616 474.000772,316.423423 470.830638,316.423423 L436.72454,316.423423 L436.72454,326.26172 C436.72454,330.197059 437.54439,333.175847 439.184114,335.198174 C440.823839,337.220501 443.611329,338.231649 447.546667,338.231649 Z M560.032057,320.030799 C552.81727,320.030799 545.76656,318.937665 538.879718,316.751366 C531.992875,314.565067 526.089955,311.668264 521.170782,308.06087 L527.237732,292.811508 C532.156905,295.981642 537.540587,298.577834 543.388937,300.600161 C549.237288,302.622488 554.784939,303.633636 560.032057,303.633636 C565.060546,303.633636 568.995826,302.759129 571.838015,301.01009 C574.680204,299.26105 576.101277,296.364247 576.101277,292.319594 C576.101277,288.05631 574.762189,285.050194 572.083972,283.301154 C569.405755,281.552115 564.131387,279.693788 556.26071,277.726119 C544.891954,274.993245 536.638798,271.46789 531.500994,267.149949 C526.363191,262.832008 523.794328,256.464507 523.794328,248.047254 C523.794328,238.864797 527.019071,231.650118 533.468654,226.403 C539.918237,221.155881 548.390019,218.532361 558.884256,218.532361 C565.443154,218.532361 571.837983,219.570838 578.068936,221.647822 C584.299889,223.724807 589.765556,226.45764 594.466099,229.846404 L589.219007,244.767822 C584.627779,241.925633 579.845321,239.575396 574.87149,237.717042 C569.897659,235.858687 565.060544,234.929524 560.360001,234.929524 C556.096717,234.929524 552.762661,235.776702 550.357731,237.471084 C547.952802,239.165466 546.750356,241.925628 546.750356,245.751652 C546.750356,249.796305 548.280742,252.693108 551.341561,254.442148 C554.40238,256.191187 560.359956,258.26814 569.214469,260.67307 C579.927335,263.187314 587.579268,266.68534 592.170496,271.167254 C596.761725,275.649167 599.057305,281.98934 599.057305,290.187962 C599.057305,299.370419 595.53195,306.639756 588.481135,311.996189 C581.43032,317.352622 571.947389,320.030799 560.032057,320.030799 Z M58.1106369,497.932806 L27.9398575,396.762312 L27.9398575,497.932806 L8.2632623,497.932806 L8.2632623,366.755505 L34.4987226,366.755505 L66.3092182,470.05763 L66.3092182,366.755505 L85.9858135,366.755505 L85.9858135,497.932806 L58.1106369,497.932806 Z M188.632906,475.796637 C185.900032,484.323204 181.718797,490.417422 176.089077,494.079473 C170.459356,497.741524 162.014902,499.572523 150.75546,499.572523 C138.949444,499.572523 129.52117,496.539078 122.470355,490.472097 C115.419539,484.405117 111.894185,475.687379 111.894185,464.318623 L111.894185,433.000042 C111.894185,421.740601 115.364883,413.07752 122.306383,407.010539 C129.247883,400.943559 138.457531,397.910114 149.935602,397.910114 C161.522988,397.910114 170.705308,401.025544 177.482835,407.256497 C184.260363,413.48745 187.649076,422.560455 187.649076,434.475787 L187.649076,453.168552 L134.850212,453.168552 L134.850212,465.138481 C134.850212,471.369434 136.134644,475.960593 138.703546,478.912098 C141.272447,481.863602 145.453682,483.339331 151.247375,483.339331 C156.275863,483.339331 160.156486,482.355512 162.889361,480.387842 C165.622235,478.420173 167.699188,475.03146 169.120282,470.221601 L188.632906,475.796637 Z M134.850212,431.852241 L134.850212,439.394935 L164.693049,439.394935 L164.693049,433.000042 C164.693049,426.113199 163.545259,421.1941 161.249644,418.242596 C158.95403,415.291092 155.128064,413.815362 149.77163,413.815362 C144.415197,413.815362 140.589231,415.236435 138.293617,418.078624 C135.998002,420.920813 134.850212,425.511973 134.850212,431.852241 Z M267.668084,499.572523 C256.955218,499.572523 248.647405,496.675719 242.744397,490.882026 C236.841389,485.088333 233.889929,476.999147 233.889929,466.614226 L233.889929,417.094794 L213.393476,417.094794 L213.393476,399.54983 L233.889929,399.54983 L233.889929,366.755505 L256.845957,366.755505 L256.845957,399.54983 L288.656453,399.54983 L288.656453,417.094794 L256.845957,417.094794 L256.845957,464.482594 C256.845957,470.057658 258.021075,474.266221 260.371347,477.10841 C262.721619,479.950599 266.13766,481.371672 270.619574,481.371672 C273.680393,481.371672 276.631852,481.043732 279.474041,480.387842 C282.316231,479.731952 284.885094,478.966759 287.180708,478.092239 L289.968226,495.637203 C287.672611,496.730353 284.502525,497.659516 280.457871,498.424721 C276.413218,499.189926 272.149998,499.572523 267.668084,499.572523 Z M366.215886,497.932806 L355.065816,442.674368 L344.571631,497.932806 L323.25532,497.932806 L309.809647,399.54983 L329.650213,399.54983 L337.35688,471.533374 L346.867234,416.438908 L362.60851,416.438908 L373.266666,470.713516 L380.481418,399.54983 L400.485956,399.54983 L386.876311,497.932806 L366.215886,497.932806 Z M458.040851,499.572523 C446.016205,499.572523 436.669916,496.484421 430.001703,490.308126 C423.33349,484.13183 419.999434,475.523406 419.999434,464.482594 L419.999434,433.655928 C419.999434,422.396487 423.360819,413.624093 430.083689,407.338482 C436.806559,401.052872 446.12552,397.910114 458.040851,397.910114 C469.846868,397.910114 479.111172,401.0802 485.834042,407.420468 C492.556912,413.760736 495.918297,422.560459 495.918297,433.8199 L495.918297,464.810538 C495.918297,475.742034 492.556912,484.268473 485.834042,490.390111 C479.111172,496.511749 469.846868,499.572523 458.040851,499.572523 Z M458.040851,482.027558 C463.178655,482.027558 466.949964,480.606485 469.354894,477.764296 C471.759823,474.922107 472.962269,470.330947 472.962269,463.990679 L472.962269,434.147843 C472.962269,427.588946 471.759823,422.833816 469.354894,419.882312 C466.949964,416.930808 463.178655,415.455078 458.040851,415.455078 C452.903048,415.455078 449.10441,416.930808 446.644823,419.882312 C444.185237,422.833816 442.955462,427.534289 442.955462,433.983872 L442.955462,463.662736 C442.955462,470.112319 444.185237,474.785464 446.644823,477.68231 C449.10441,480.579157 452.903048,482.027558 458.040851,482.027558 Z M526.417874,497.932806 L526.417874,399.54983 L549.537873,399.54983 L549.537873,415.946993 L553.637164,415.946993 C555.495518,409.71604 558.556291,405.152208 562.819575,402.255362 C567.082859,399.358515 572.111272,397.910114 577.904965,397.910114 C584.791808,397.910114 590.120832,400.287679 593.892198,405.04288 C597.663565,409.798081 599.54922,416.548178 599.54922,425.293376 L599.54922,441.690538 L578.560851,441.690538 L578.560851,432.344155 C578.560851,426.769092 577.713673,422.751828 576.019291,420.292241 C574.324909,417.832654 571.455434,416.602879 567.410781,416.602879 C563.912702,416.602879 560.578645,417.696013 557.408511,419.882312 C554.238377,422.068611 551.614858,425.511981 549.537873,430.212524 L549.537873,497.932806 L526.417874,497.932806 Z M651.201136,454.808268 L651.201136,497.932806 L628.245108,497.932806 L628.245108,366.755505 L651.201136,366.755505 L651.201136,438.411106 L656.940143,438.411106 L679.568228,399.54983 L704,399.54983 L675.468937,444.642028 L703.508085,497.932806 L678.748369,497.932806 L656.940143,454.808268 L651.201136,454.808268 Z"/>
    <path fill="#1F2033" stroke="#78FEE0" stroke-width="2" d="M32.646524,132.177302 L32.646524,19.2008506 L1,19.2008506 L1,1 L87.4130474,1 L87.4130474,19.2008506 L55.6025518,19.2008506 L55.6025518,132.177302 L32.646524,132.177302 Z M108.894185,132.177302 L108.894185,1 L131.850212,1 L131.850212,48.5517718 L135.949503,48.5517718 C137.807857,43.5232834 140.895959,39.5333471 145.2139,36.5818431 C149.531841,33.630339 154.532926,32.1546091 160.217304,32.1546091 C167.760036,32.1546091 173.717613,34.8601139 178.090211,40.2712047 C182.46281,45.6822954 184.649076,52.9789598 184.649076,62.1614169 L184.649076,132.177302 L161.693049,132.177302 L161.693049,66.7526224 C161.693049,61.6148191 160.736557,57.6795394 158.823545,54.9466653 C156.910533,52.2137912 154.150372,50.8473746 150.542978,50.8473746 C147.044899,50.8473746 143.710843,51.9951645 140.540709,54.2907788 C137.370575,56.586393 134.473772,59.8657928 131.850212,64.1290764 L131.850212,132.177302 L108.894185,132.177302 Z M288.279999,110.041132 C285.547124,118.567699 281.36589,124.661917 275.736169,128.323968 C270.106448,131.98602 261.661994,133.817018 250.402553,133.817018 C238.596537,133.817018 229.168262,130.783573 222.117447,124.716593 C215.066632,118.649612 211.541277,109.931874 211.541277,98.563118 L211.541277,67.2445373 C211.541277,55.9850959 215.011975,47.322015 221.953475,41.2550344 C228.894976,35.1880539 238.104623,32.1546091 249.582695,32.1546091 C261.170081,32.1546091 270.3524,35.2700389 277.129928,41.5009919 C283.907456,47.7319448 287.296169,56.8049508 287.296169,68.7202819 L287.296169,87.4130474 L234.497305,87.4130474 L234.497305,99.3829762 C234.497305,105.613929 235.781737,110.205089 238.350638,113.156593 C240.91954,116.108097 245.100775,117.583827 250.894468,117.583827 C255.922956,117.583827 259.803579,116.600007 262.536453,114.632337 C265.269327,112.664668 267.34628,109.275955 268.767375,104.466097 L288.279999,110.041132 Z M234.497305,66.0967359 L234.497305,73.6394307 L264.340141,73.6394307 L264.340141,67.2445373 C264.340141,60.3576945 263.192351,55.4385949 260.896737,52.4870909 C258.601123,49.5355868 254.775156,48.0598569 249.418723,48.0598569 C244.06229,48.0598569 240.236323,49.4809302 237.940709,52.3231192 C235.645095,55.1653083 234.497305,59.756468 234.497305,66.0967359 Z M32.646524,311.555054 L32.646524,198.578603 L1,198.578603 L1,180.377752 L87.4130474,180.377752 L87.4130474,198.578603 L55.6025518,198.578603 L55.6025518,311.555054 L32.646524,311.555054 Z M108.894185,311.555054 L108.894185,180.377752 L131.850212,180.377752 L131.850212,227.929524 L135.949503,227.929524 C137.807857,222.901036 140.895959,218.911099 145.2139,215.959595 C149.531841,213.008091 154.532926,211.532361 160.217304,211.532361 C167.760036,211.532361 173.717613,214.237866 178.090211,219.648957 C182.46281,225.060048 184.649076,232.356712 184.649076,241.539169 L184.649076,311.555054 L161.693049,311.555054 L161.693049,246.130375 C161.693049,240.992571 160.736557,237.057292 158.823545,234.324418 C156.910533,231.591544 154.150372,230.225127 150.542978,230.225127 C147.044899,230.225127 143.710843,231.372917 140.540709,233.668531 C137.370575,235.964145 134.473772,239.243545 131.850212,243.506829 L131.850212,311.555054 L108.894185,311.555054 Z M212.361135,311.555054 L212.361135,294.01009 L237.940709,294.01009 L237.940709,230.717042 L212.361135,230.717042 L212.361135,213.172078 L260.896737,213.172078 L260.896737,294.01009 L286.476311,294.01009 L286.476311,311.555054 L212.361135,311.555054 Z M250.402553,196.283 C245.702009,196.283 241.903371,195.545135 239.006525,194.069383 C236.109678,192.593631 234.661277,189.83347 234.661277,185.788816 L234.661277,184.1491 C234.661277,180.104446 236.109678,177.289628 239.006525,175.704561 C241.903371,174.119494 245.702009,173.326972 250.402553,173.326972 C255.103096,173.326972 258.901734,174.119494 261.798581,175.704561 C264.695427,177.289628 266.143829,180.104446 266.143829,184.1491 L266.143829,185.788816 C266.143829,189.83347 264.668099,192.593631 261.716595,194.069383 C258.765091,195.545135 254.993781,196.283 250.402553,196.283 Z M314.18837,311.555054 L314.18837,213.172078 L337.144398,213.172078 L337.144398,227.929524 L341.243688,227.929524 C343.320673,222.791721 346.545416,218.774456 350.918014,215.87761 C355.290613,212.980763 360.264369,211.532361 365.839432,211.532361 C373.382165,211.532361 379.285084,214.18321 383.548368,219.484985 C387.811652,224.786761 389.943261,232.138082 389.943261,241.539169 L389.943261,311.555054 L366.987234,311.555054 L366.987234,245.802432 C366.987234,240.773943 366.030742,236.920648 364.11773,234.242432 C362.204718,231.564215 359.444557,230.225127 355.837163,230.225127 C352.339084,230.225127 348.977699,231.31826 345.752908,233.504559 C342.528116,235.690859 339.658642,238.860945 337.144398,243.014914 L337.144398,311.555054 L314.18837,311.555054 Z M497.673474,318.277891 C497.673474,327.132403 494.858656,333.964486 489.228936,338.774344 C483.599215,343.584202 476.193237,345.989096 467.01078,345.989096 L442.742979,345.989096 C432.686003,345.989096 425.006742,343.939471 419.704966,339.84016 C414.40319,335.740848 411.752342,329.919914 411.752342,322.377181 C411.752342,317.020748 413.118758,312.7302 415.851633,309.505409 C418.584507,306.280617 422.082533,304.394962 426.345817,303.848387 L426.345817,300.568955 C423.066368,299.694435 420.306206,298.000079 418.06525,295.485834 C415.824293,292.97159 414.703831,289.090967 414.703831,283.843849 C414.703831,278.596731 416.343531,274.087556 419.62298,270.31619 C422.902429,266.544823 427.220305,264.331229 432.576738,263.675339 L432.576738,260.72385 C427.876195,259.084125 424.405497,256.515262 422.16454,253.017183 C419.923583,249.519104 418.803122,245.857108 418.803122,242.031084 L418.803122,239.079595 C418.803122,231.208917 421.809238,224.923401 427.821561,220.222858 C433.833884,215.522314 441.7591,213.172078 451.597447,213.172078 L496.525673,213.172078 L496.525673,229.077326 L474.553475,225.46995 L474.553475,228.749382 C477.942239,229.842532 480.7024,232.00147 482.834042,235.226262 C484.965684,238.451053 486.031489,241.867094 486.031489,245.474488 L486.031489,248.425978 C486.031489,256.18734 483.080029,262.336215 477.177021,266.872786 C471.274013,271.409357 463.29414,273.677608 453.237163,273.677608 L440.77532,273.677608 C437.933131,273.677608 435.719536,274.360816 434.134469,275.727253 C432.549402,277.09369 431.75688,279.416599 431.75688,282.696048 C431.75688,285.866182 432.631387,288.18909 434.380426,289.664842 C436.129466,291.140594 438.589016,291.878459 441.75915,291.878459 L468.158582,291.878459 C477.013094,291.878459 484.145788,293.98274 489.556879,298.191366 C494.96797,302.399992 497.673474,309.095434 497.673474,318.277891 Z M452.417305,260.395906 C456.789904,260.395906 459.95999,259.275445 461.92766,257.034488 C463.895329,254.793531 464.879149,251.486803 464.879149,247.114205 L464.879149,240.883283 C464.879149,236.510684 463.868001,233.258613 461.845674,231.126971 C459.823347,228.995329 456.680589,227.929524 452.417305,227.929524 C448.154022,227.929524 445.011264,228.995329 442.988937,231.126971 C440.96661,233.258613 439.955462,236.510684 439.955462,240.883283 L439.955462,247.114205 C439.955462,251.486803 440.939282,254.793531 442.906951,257.034488 C444.87462,259.275445 448.044707,260.395906 452.417305,260.395906 Z M444.546667,331.231649 L467.338723,331.231649 C470.727487,331.231649 473.487649,330.439128 475.619291,328.854061 C477.750932,327.268994 478.816737,324.344862 478.816737,320.081579 C478.816737,316.036925 477.778261,313.249435 475.701276,311.719026 C473.624292,310.188616 471.000772,309.423423 467.830638,309.423423 L433.72454,309.423423 L433.72454,319.26172 C433.72454,323.197059 434.54439,326.175847 436.184114,328.198174 C437.823839,330.220501 440.611329,331.231649 444.546667,331.231649 Z M557.032057,313.030799 C549.81727,313.030799 542.76656,311.937665 535.879718,309.751366 C528.992875,307.565067 523.089955,304.668264 518.170782,301.06087 L524.237732,285.811508 C529.156905,288.981642 534.540587,291.577834 540.388937,293.600161 C546.237288,295.622488 551.784939,296.633636 557.032057,296.633636 C562.060546,296.633636 565.995826,295.759129 568.838015,294.01009 C571.680204,292.26105 573.101277,289.364247 573.101277,285.319594 C573.101277,281.05631 571.762189,278.050194 569.083972,276.301154 C566.405755,274.552115 561.131387,272.693788 553.26071,270.726119 C541.891954,267.993245 533.638798,264.46789 528.500994,260.149949 C523.363191,255.832008 520.794328,249.464507 520.794328,241.047254 C520.794328,231.864797 524.019071,224.650118 530.468654,219.403 C536.918237,214.155881 545.390019,211.532361 555.884256,211.532361 C562.443154,211.532361 568.837983,212.570838 575.068936,214.647822 C581.299889,216.724807 586.765556,219.45764 591.466099,222.846404 L586.219007,237.767822 C581.627779,234.925633 576.845321,232.575396 571.87149,230.717042 C566.897659,228.858687 562.060544,227.929524 557.360001,227.929524 C553.096717,227.929524 549.762661,228.776702 547.357731,230.471084 C544.952802,232.165466 543.750356,234.925628 543.750356,238.751652 C543.750356,242.796305 545.280742,245.693108 548.341561,247.442148 C551.40238,249.191187 557.359956,251.26814 566.214469,253.67307 C576.927335,256.187314 584.579268,259.68534 589.170496,264.167254 C593.761725,268.649167 596.057305,274.98934 596.057305,283.187962 C596.057305,292.370419 592.53195,299.639756 585.481135,304.996189 C578.43032,310.352622 568.947389,313.030799 557.032057,313.030799 Z M55.1106369,490.932806 L24.9398575,389.762312 L24.9398575,490.932806 L5.2632623,490.932806 L5.2632623,359.755505 L31.4987226,359.755505 L63.3092182,463.05763 L63.3092182,359.755505 L82.9858135,359.755505 L82.9858135,490.932806 L55.1106369,490.932806 Z M185.632906,468.796637 C182.900032,477.323204 178.718797,483.417422 173.089077,487.079473 C167.459356,490.741524 159.014902,492.572523 147.75546,492.572523 C135.949444,492.572523 126.52117,489.539078 119.470355,483.472097 C112.419539,477.405117 108.894185,468.687379 108.894185,457.318623 L108.894185,426.000042 C108.894185,414.740601 112.364883,406.07752 119.306383,400.010539 C126.247883,393.943559 135.457531,390.910114 146.935602,390.910114 C158.522988,390.910114 167.705308,394.025544 174.482835,400.256497 C181.260363,406.48745 184.649076,415.560455 184.649076,427.475787 L184.649076,446.168552 L131.850212,446.168552 L131.850212,458.138481 C131.850212,464.369434 133.134644,468.960593 135.703546,471.912098 C138.272447,474.863602 142.453682,476.339331 148.247375,476.339331 C153.275863,476.339331 157.156486,475.355512 159.889361,473.387842 C162.622235,471.420173 164.699188,468.03146 166.120282,463.221601 L185.632906,468.796637 Z M131.850212,424.852241 L131.850212,432.394935 L161.693049,432.394935 L161.693049,426.000042 C161.693049,419.113199 160.545259,414.1941 158.249644,411.242596 C155.95403,408.291092 152.128064,406.815362 146.77163,406.815362 C141.415197,406.815362 137.589231,408.236435 135.293617,411.078624 C132.998002,413.920813 131.850212,418.511973 131.850212,424.852241 Z M264.668084,492.572523 C253.955218,492.572523 245.647405,489.675719 239.744397,483.882026 C233.841389,478.088333 230.889929,469.999147 230.889929,459.614226 L230.889929,410.094794 L210.393476,410.094794 L210.393476,392.54983 L230.889929,392.54983 L230.889929,359.755505 L253.845957,359.755505 L253.845957,392.54983 L285.656453,392.54983 L285.656453,410.094794 L253.845957,410.094794 L253.845957,457.482594 C253.845957,463.057658 255.021075,467.266221 257.371347,470.10841 C259.721619,472.950599 263.13766,474.371672 267.619574,474.371672 C270.680393,474.371672 273.631852,474.043732 276.474041,473.387842 C279.316231,472.731952 281.885094,471.966759 284.180708,471.092239 L286.968226,488.637203 C284.672611,489.730353 281.502525,490.659516 277.457871,491.424721 C273.413218,492.189926 269.149998,492.572523 264.668084,492.572523 Z M363.215886,490.932806 L352.065816,435.674368 L341.571631,490.932806 L320.25532,490.932806 L306.809647,392.54983 L326.650213,392.54983 L334.35688,464.533374 L343.867234,409.438908 L359.60851,409.438908 L370.266666,463.713516 L377.481418,392.54983 L397.485956,392.54983 L383.876311,490.932806 L363.215886,490.932806 Z M455.040851,492.572523 C443.016205,492.572523 433.669916,489.484421 427.001703,483.308126 C420.33349,477.13183 416.999434,468.523406 416.999434,457.482594 L416.999434,426.655928 C416.999434,415.396487 420.360819,406.624093 427.083689,400.338482 C433.806559,394.052872 443.12552,390.910114 455.040851,390.910114 C466.846868,390.910114 476.111172,394.0802 482.834042,400.420468 C489.556912,406.760736 492.918297,415.560459 492.918297,426.8199 L492.918297,457.810538 C492.918297,468.742034 489.556912,477.268473 482.834042,483.390111 C476.111172,489.511749 466.846868,492.572523 455.040851,492.572523 Z M455.040851,475.027558 C460.178655,475.027558 463.949964,473.606485 466.354894,470.764296 C468.759823,467.922107 469.962269,463.330947 469.962269,456.990679 L469.962269,427.147843 C469.962269,420.588946 468.759823,415.833816 466.354894,412.882312 C463.949964,409.930808 460.178655,408.455078 455.040851,408.455078 C449.903048,408.455078 446.10441,409.930808 443.644823,412.882312 C441.185237,415.833816 439.955462,420.534289 439.955462,426.983872 L439.955462,456.662736 C439.955462,463.112319 441.185237,467.785464 443.644823,470.68231 C446.10441,473.579157 449.903048,475.027558 455.040851,475.027558 Z M523.417874,490.932806 L523.417874,392.54983 L546.537873,392.54983 L546.537873,408.946993 L550.637164,408.946993 C552.495518,402.71604 555.556291,398.152208 559.819575,395.255362 C564.082859,392.358515 569.111272,390.910114 574.904965,390.910114 C581.791808,390.910114 587.120832,393.287679 590.892198,398.04288 C594.663565,402.798081 596.54922,409.548178 596.54922,418.293376 L596.54922,434.690538 L575.560851,434.690538 L575.560851,425.344155 C575.560851,419.769092 574.713673,415.751828 573.019291,413.292241 C571.324909,410.832654 568.455434,409.602879 564.410781,409.602879 C560.912702,409.602879 557.578645,410.696013 554.408511,412.882312 C551.238377,415.068611 548.614858,418.511981 546.537873,423.212524 L546.537873,490.932806 L523.417874,490.932806 Z M648.201136,447.808268 L648.201136,490.932806 L625.245108,490.932806 L625.245108,359.755505 L648.201136,359.755505 L648.201136,431.411106 L653.940143,431.411106 L676.568228,392.54983 L701,392.54983 L672.468937,437.642028 L700.508085,490.932806 L675.748369,490.932806 L653.940143,447.808268 L648.201136,447.808268 Z"/>
  </g>
</svg>
