<svg xmlns="http://www.w3.org/2000/svg" width="86" height="23" viewBox="0 0 86 23">
  <g fill="currentColor" fill-rule="evenodd" transform="translate(0 .5)">
    <g transform="translate(1.11 14.804)">
      <polygon points="1.499 6.71 0 6.71 0 .152 1.499 .152 4.135 4.248 4.135 4.248 4.135 .152 5.634 .152 5.634 6.71 4.135 6.71 1.499 2.615 1.499 2.615"/>
      <polygon points="17.179 1.425 14.903 1.425 14.903 2.698 17.068 2.698 17.068 4.026 14.903 4.026 14.903 5.354 17.179 5.354 17.179 6.683 13.405 6.683 13.405 .125 17.179 .125 17.179 1.425"/>
      <polygon points="24.395 .125 29.029 .125 29.029 1.453 27.475 1.453 27.475 6.683 25.977 6.683 25.977 1.453 24.422 1.453"/>
      <polygon points="40.408 3.03 39.353 6.71 37.688 6.71 35.829 .152 37.466 .152 38.576 4.69 38.604 4.69 39.797 .152 40.907 .152 42.101 4.69 42.212 4.69 43.322 .152 44.987 .152 43.128 6.71 41.463 6.71"/>
      <path fill-rule="nonzero" d="M54.9225699.0138358103C56.7542473.0138358103 58.2528925 1.50810333 58.2528925 3.38977353 58.2528925 5.32678698 56.8375054 6.79338287 54.9225699 6.79338287 52.952129 6.79338287 51.5922473 5.29911536 51.5922473 3.38977353 51.5922473 1.48043171 53.0908925.0138358103 54.9225699.0138358103zM54.9225699 5.3544586C56.1159355 5.3544586 56.6154839 4.38595188 56.6154839 3.38977353 56.6154839 2.44893843 56.0604301 1.42508846 54.9225699 1.42508846 53.756957 1.42508846 53.2296559 2.39359519 53.2296559 3.38977353 53.2296559 4.38595188 53.7014516 5.3544586 54.9225699 5.3544586zM68.0495914.124522293C69.2707097.124522293 70.2143011.788641189 70.2143011 2.08920736 70.2143011 3.05771408 69.6592473 3.7495046 68.8544194 3.97087757L71.1301398 6.71036801 69.242957 6.71036801 67.2447634 4.10923567 67.2447634 6.71036801 65.7461183 6.71036801 65.7461183.152193914 68.0495914.124522293zM67.3557742 3.05771408C67.9385806 3.05771408 68.5768925 3.03004246 68.5768925 2.17222222 68.5768925 1.31440198 67.910828 1.28673036 67.3557742 1.28673036L67.1892581 1.28673036 67.1892581 3.00237084 67.3557742 3.00237084 67.3557742 3.05771408z"/>
      <polygon points="82.12 6.71 79.678 3.916 79.678 6.71 78.179 6.71 78.179 .152 79.678 .152 79.678 2.864 81.954 .152 83.785 .152 81.093 3.251 84.146 6.71"/>
    </g>
    <polygon points=".139 .235 7.826 .235 7.826 2.421 5.218 2.421 5.218 11.138 2.72 11.138 2.72 2.421 .111 2.421"/>
    <polygon points="11.767 11.165 9.269 11.165 9.269 .235 11.767 .235 11.767 4.607 15.292 4.607 15.292 .235 17.789 .235 17.789 11.165 15.292 11.165 15.292 6.766 11.767 6.766"/>
    <polygon points="26.171 2.449 22.424 2.449 22.424 4.607 26.032 4.607 26.032 6.793 22.424 6.793 22.424 8.979 26.199 8.979 26.199 11.165 19.899 11.165 19.899 .235 26.171 .235 26.171 2.449"/>
    <polygon points="30.972 .235 38.659 .235 38.659 2.421 36.051 2.421 36.051 11.138 33.553 11.138 33.553 2.421 30.944 2.421"/>
    <polygon points="42.6 11.165 40.103 11.165 40.103 .235 42.6 .235 42.6 4.607 46.125 4.607 46.125 .235 48.623 .235 48.623 11.165 46.125 11.165 46.125 6.766 42.6 6.766"/>
    <polygon points="53.257 11.165 50.76 11.165 50.76 .235 53.257 .235"/>
    <polygon points="57.864 11.165 55.367 11.165 55.367 .235 57.864 .235 62.194 6.987 62.222 6.987 62.222 .235 64.719 .235 64.719 11.165 62.222 11.165 57.892 4.414 57.864 4.414"/>
    <path d="M76.7361828 7.40215853C76.1256237 10.1693206 73.8221505 11.3592003 71.6851935 11.3592003 68.7434086 11.3592003 66.3566774 8.81341118 66.3566774 5.71418967 66.3566774 2.55962491 68.6323978.0691790517 71.6851935.0691790517 73.6278817.0691790517 74.9322581.788641189 75.9036022 1.92317764L74.2661935 3.72183298C73.6278817 2.69798301 72.7953011 2.33825195 71.823957 2.33825195 70.2975591 2.33825195 69.0486882 3.86019108 69.0486882 5.74186129 69.0486882 7.59585987 70.2975591 9.09012739 71.823957 9.09012739 73.0173226 9.09012739 74.2106882 8.31532201 74.2106882 6.98708422L71.7129462 6.98708422 71.7129462 5.05007077 76.7639355 5.05007077 76.7639355 7.40215853 76.7361828 7.40215853zM85.5615376 1.09302902L84.5346882 3.0853857C84.5346882 3.0853857 83.4523333 2.33825195 82.3422258 2.33825195 81.4818925 2.33825195 81.0656022 2.69798301 81.0656022 3.30675867 81.0656022 3.91553432 82.1202043 4.35828025 83.3413226 4.88404105 84.5624409 5.38213022 85.9223226 6.4336518 85.9223226 7.87257608 85.9223226 10.4737084 83.924129 11.3868719 81.787172 11.3868719 79.206172 11.3868719 77.6797742 9.92027601 77.6797742 9.92027601L78.9286452 7.81723284C78.9286452 7.81723284 80.3995376 9.03478415 81.6206559 9.03478415 82.1757097 9.03478415 83.2025591 8.97944091 83.2025591 7.95559094 83.2025591 7.18078556 82.0369462 6.79338287 80.7325699 6.1569356 79.4004409 5.52048832 78.6511183 4.49663836 78.6511183 3.36210191 78.6511183 1.3420736 80.455043.0138358103 82.2034624.0138358103 84.1461505.041507431 85.5615376 1.09302902 85.5615376 1.09302902z"/>
  </g>
</svg>
