<svg xmlns="http://www.w3.org/2000/svg" width="310" height="239" viewBox="0 0 310 239">
  <g fill="none" fill-rule="evenodd">
    <g fill="white" transform="translate(3 214)">
      <polygon points="6 24.4 .6 24.4 .6 .7 6 .7 15.5 15.5 15.5 15.5 15.5 .7 20.9 .7 20.9 24.4 15.5 24.4 6 9.6 6 9.6"/>
      <polygon points="62.5 5.3 54.3 5.3 54.3 9.9 62.1 9.9 62.1 14.7 54.3 14.7 54.3 19.5 62.5 19.5 62.5 24.3 48.9 24.3 48.9 .6 62.5 .6"/>
      <polygon points="88.5 .6 105.2 .6 105.2 5.4 99.6 5.4 99.6 24.3 94.2 24.3 94.2 5.4 88.6 5.4"/>
      <polygon points="146.2 11.1 142.4 24.4 136.4 24.4 129.7 .7 135.6 .7 139.6 17.1 139.7 17.1 144 .7 148 .7 152.3 17.1 152.7 17.1 156.7 .7 162.7 .7 156 24.4 150 24.4"/>
      <path fill-rule="nonzero" d="M198.5.2C205.1.2 210.5 5.6 210.5 12.4 210.5 19.4 205.4 24.7 198.5 24.7 191.4 24.7 186.5 19.3 186.5 12.4 186.5 5.5 191.9.2 198.5.2zM198.5 19.5C202.8 19.5 204.6 16 204.6 12.4 204.6 9 202.6 5.3 198.5 5.3 194.3 5.3 192.4 8.8 192.4 12.4 192.4 16 194.1 19.5 198.5 19.5zM245.8.6C250.2.6 253.6 3 253.6 7.7 253.6 11.2 251.6 13.7 248.7 14.5L256.9 24.4 250.1 24.4 242.9 15 242.9 24.4 237.5 24.4 237.5.7 245.8.6zM243.3 11.2C245.4 11.2 247.7 11.1 247.7 8 247.7 4.9 245.3 4.8 243.3 4.8L242.7 4.8 242.7 11 243.3 11 243.3 11.2z"/>
      <polygon points="296.5 24.4 287.7 14.3 287.7 24.4 282.3 24.4 282.3 .7 287.7 .7 287.7 10.5 295.9 .7 302.5 .7 292.8 11.9 303.8 24.4"/>
    </g>
    <path fill="#7BA7FD" fill-rule="nonzero" d="M280.1,110.6 C280.8,119.2 278.1,127.3 272.6,133.5 C266.7,140.1 257.9,143.7 248,143.7 L33.7,143.7 C33.6,143.7 33.5,143.7 33.4,143.7 L33.3,143.7 L33.1,143.7 C24.4,143.6 16.2,140.2 10.1,134.1 C3.6,127.7 0.1,119.1 2.27373675e-13,110 C2.27373675e-13,93.1 11.5,79.4 27.2,76.8 C29.3,62.7 41.6,51.2 56.8,48.8 C57.7,43.2 60.4,37.8 64.7,33.4 C70.9,27 79.3,23.4 87.9,23.4 C99,23.4 108.7,29.4 113.9,38.4 C120,16.6 140,0.6 163.7,0.6 C189.6,0.6 211.2,19.8 214.8,44.8 C227.8,35.1 245.1,36 258.1,48.2 L256.7,47 C267.1,55.4 270.7,66.8 270.2,76.4 C269.9,82.1 268,87.1 264.6,91.2 C267.9,92.3 270.6,94.2 273.2,96.8 C276.8,100.4 279.3,104.9 280,109.9 C280,110.1 280,110.3 280.1,110.6 C280.1,110.3 280.1,110.4 280.1,110.6 Z M296.2,29.9 C288.6,19.6 277.3,12 264.9,8.8 C262.1,8.2 259.2,10.1 258.6,12.8 C257.5,15.6 259.3,19.2 262.3,19.8 C274.8,23.1 285.6,31.9 291.3,43.5 C296,53 297.2,64.2 294.6,74.5 C293.9,77.4 296,80.5 299,80.9 C301.7,81.7 304.7,80.1 305.6,77.5 C309.7,61.4 306.2,43.3 296.2,29.9 Z M260.5,28.3 C256.2,27.5 252.9,32.8 254.8,36.5 C255.5,38.1 257.1,39.2 258.8,39.6 C265.3,41.3 271,45.8 274,51.8 C276.7,57.1 277.3,63.3 275.8,69 C275,71.9 277.1,75.1 280.1,75.6 C282.8,76.4 286,74.8 286.8,72 C289.6,61.8 287.5,50.4 281.3,41.9 C276.3,35.1 268.8,29.9 260.5,28.3 Z"/>
    <g fill="white" transform="translate(0 160)">
      <polygon points=".1 1.5 27.8 1.5 27.8 9.4 18.4 9.4 18.4 40.9 9.4 40.9 9.4 9.4 0 9.4"/>
      <path d="M42,41 L33,41 L33,1.5 L42,1.5 L42,17.3 L54.7,17.3 L54.7,1.5 L63.7,1.5 L63.7,41 L54.7,41 L54.7,25.1 L42,25.1 C42,25.1 42,41 42,41 Z"/>
      <polygon points="93.9 9.5 80.4 9.5 80.4 17.3 93.4 17.3 93.4 25.2 80.4 25.2 80.4 33.1 94 33.1 94 41 71.3 41 71.3 1.5 93.9 1.5 93.9 9.5"/>
      <polygon points="111.2 1.5 138.9 1.5 138.9 9.4 129.5 9.4 129.5 40.9 120.5 40.9 120.5 9.4 111.1 9.4"/>
      <polygon points="153.1 41 144.1 41 144.1 1.5 153.1 1.5 153.1 17.3 165.8 17.3 165.8 1.5 174.8 1.5 174.8 41 165.8 41 165.8 25.1 153.1 25.1"/>
      <polygon points="191.5 41 182.5 41 182.5 1.5 191.5 1.5"/>
      <polygon points="208.1 41 199.1 41 199.1 1.5 208.1 1.5 223.7 25.9 223.8 25.9 223.8 1.5 232.8 1.5 232.8 41 223.8 41 208.2 16.6 208.1 16.6"/>
      <path d="M276.1 27.4C273.9 37.4 265.6 41.7 257.9 41.7 247.3 41.7 238.7 32.5 238.7 21.3 238.7 9.9 246.9.9 257.9.9 264.9.9 269.6 3.5 273.1 7.6L267.2 14.1C264.9 10.4 261.9 9.1 258.4 9.1 252.9 9.1 248.4 14.6 248.4 21.4 248.4 28.1 252.9 33.5 258.4 33.5 262.7 33.5 267 30.7 267 25.9L258 25.9 258 18.9 276.2 18.9 276.2 27.4 276.1 27.4zM307.9 4.6L304.2 11.8C304.2 11.8 300.3 9.1 296.3 9.1 293.2 9.1 291.7 10.4 291.7 12.6 291.7 14.8 295.5 16.4 299.9 18.3 304.3 20.1 309.2 23.9 309.2 29.1 309.2 38.5 302 41.8 294.3 41.8 285 41.8 279.5 36.5 279.5 36.5L284 28.9C284 28.9 289.3 33.3 293.7 33.3 295.7 33.3 299.4 33.1 299.4 29.4 299.4 26.6 295.2 25.2 290.5 22.9 285.7 20.6 283 16.9 283 12.8 283 5.5 289.5.7 295.8.7 302.8.8 307.9 4.6 307.9 4.6z"/>
    </g>
  </g>
</svg>
