<svg xmlns="http://www.w3.org/2000/svg" width="703" height="494" viewBox="0 0 703 494" aria-labelledby="title desc" role="img">
  <title id="title">The Things Network</title>
  <desc id="desc">Animated heading</desc>
  <path fill="#1F2033" fill-rule="evenodd" stroke="#78FEE0" stroke-width="2" d="M32.646524,132.177302 L32.646524,19.2008506 L1,19.2008506 L1,1 L87.4130474,1 L87.4130474,19.2008506 L55.6025518,19.2008506 L55.6025518,132.177302 L32.646524,132.177302 Z M108.894185,132.177302 L108.894185,1 L131.850212,1 L131.850212,48.5517718 L135.949503,48.5517718 C137.807857,43.5232834 140.895959,39.5333471 145.2139,36.5818431 C149.531841,33.630339 154.532926,32.1546091 160.217304,32.1546091 C167.760036,32.1546091 173.717613,34.8601139 178.090211,40.2712047 C182.46281,45.6822954 184.649076,52.9789598 184.649076,62.1614169 L184.649076,132.177302 L161.693049,132.177302 L161.693049,66.7526224 C161.693049,61.6148191 160.736557,57.6795394 158.823545,54.9466653 C156.910533,52.2137912 154.150372,50.8473746 150.542978,50.8473746 C147.044899,50.8473746 143.710843,51.9951645 140.540709,54.2907788 C137.370575,56.586393 134.473772,59.8657928 131.850212,64.1290764 L131.850212,132.177302 L108.894185,132.177302 Z M288.279999,110.041132 C285.547124,118.567699 281.36589,124.661917 275.736169,128.323968 C270.106448,131.98602 261.661994,133.817018 250.402553,133.817018 C238.596537,133.817018 229.168262,130.783573 222.117447,124.716593 C215.066632,118.649612 211.541277,109.931874 211.541277,98.563118 L211.541277,67.2445373 C211.541277,55.9850959 215.011975,47.322015 221.953475,41.2550344 C228.894976,35.1880539 238.104623,32.1546091 249.582695,32.1546091 C261.170081,32.1546091 270.3524,35.2700389 277.129928,41.5009919 C283.907456,47.7319448 287.296169,56.8049508 287.296169,68.7202819 L287.296169,87.4130474 L234.497305,87.4130474 L234.497305,99.3829762 C234.497305,105.613929 235.781737,110.205089 238.350638,113.156593 C240.91954,116.108097 245.100775,117.583827 250.894468,117.583827 C255.922956,117.583827 259.803579,116.600007 262.536453,114.632337 C265.269327,112.664668 267.34628,109.275955 268.767375,104.466097 L288.279999,110.041132 Z M234.497305,66.0967359 L234.497305,73.6394307 L264.340141,73.6394307 L264.340141,67.2445373 C264.340141,60.3576945 263.192351,55.4385949 260.896737,52.4870909 C258.601123,49.5355868 254.775156,48.0598569 249.418723,48.0598569 C244.06229,48.0598569 240.236323,49.4809302 237.940709,52.3231192 C235.645095,55.1653083 234.497305,59.756468 234.497305,66.0967359 Z M32.646524,311.555054 L32.646524,198.578603 L1,198.578603 L1,180.377752 L87.4130474,180.377752 L87.4130474,198.578603 L55.6025518,198.578603 L55.6025518,311.555054 L32.646524,311.555054 Z M108.894185,311.555054 L108.894185,180.377752 L131.850212,180.377752 L131.850212,227.929524 L135.949503,227.929524 C137.807857,222.901036 140.895959,218.911099 145.2139,215.959595 C149.531841,213.008091 154.532926,211.532361 160.217304,211.532361 C167.760036,211.532361 173.717613,214.237866 178.090211,219.648957 C182.46281,225.060048 184.649076,232.356712 184.649076,241.539169 L184.649076,311.555054 L161.693049,311.555054 L161.693049,246.130375 C161.693049,240.992571 160.736557,237.057292 158.823545,234.324418 C156.910533,231.591544 154.150372,230.225127 150.542978,230.225127 C147.044899,230.225127 143.710843,231.372917 140.540709,233.668531 C137.370575,235.964145 134.473772,239.243545 131.850212,243.506829 L131.850212,311.555054 L108.894185,311.555054 Z M212.361135,311.555054 L212.361135,294.01009 L237.940709,294.01009 L237.940709,230.717042 L212.361135,230.717042 L212.361135,213.172078 L260.896737,213.172078 L260.896737,294.01009 L286.476311,294.01009 L286.476311,311.555054 L212.361135,311.555054 Z M250.402553,196.283 C245.702009,196.283 241.903371,195.545135 239.006525,194.069383 C236.109678,192.593631 234.661277,189.83347 234.661277,185.788816 L234.661277,184.1491 C234.661277,180.104446 236.109678,177.289628 239.006525,175.704561 C241.903371,174.119494 245.702009,173.326972 250.402553,173.326972 C255.103096,173.326972 258.901734,174.119494 261.798581,175.704561 C264.695427,177.289628 266.143829,180.104446 266.143829,184.1491 L266.143829,185.788816 C266.143829,189.83347 264.668099,192.593631 261.716595,194.069383 C258.765091,195.545135 254.993781,196.283 250.402553,196.283 Z M314.18837,311.555054 L314.18837,213.172078 L337.144398,213.172078 L337.144398,227.929524 L341.243688,227.929524 C343.320673,222.791721 346.545416,218.774456 350.918014,215.87761 C355.290613,212.980763 360.264369,211.532361 365.839432,211.532361 C373.382165,211.532361 379.285084,214.18321 383.548368,219.484985 C387.811652,224.786761 389.943261,232.138082 389.943261,241.539169 L389.943261,311.555054 L366.987234,311.555054 L366.987234,245.802432 C366.987234,240.773943 366.030742,236.920648 364.11773,234.242432 C362.204718,231.564215 359.444557,230.225127 355.837163,230.225127 C352.339084,230.225127 348.977699,231.31826 345.752908,233.504559 C342.528116,235.690859 339.658642,238.860945 337.144398,243.014914 L337.144398,311.555054 L314.18837,311.555054 Z M497.673474,318.277891 C497.673474,327.132403 494.858656,333.964486 489.228936,338.774344 C483.599215,343.584202 476.193237,345.989096 467.01078,345.989096 L442.742979,345.989096 C432.686003,345.989096 425.006742,343.939471 419.704966,339.84016 C414.40319,335.740848 411.752342,329.919914 411.752342,322.377181 C411.752342,317.020748 413.118758,312.7302 415.851633,309.505409 C418.584507,306.280617 422.082533,304.394962 426.345817,303.848387 L426.345817,300.568955 C423.066368,299.694435 420.306206,298.000079 418.06525,295.485834 C415.824293,292.97159 414.703831,289.090967 414.703831,283.843849 C414.703831,278.596731 416.343531,274.087556 419.62298,270.31619 C422.902429,266.544823 427.220305,264.331229 432.576738,263.675339 L432.576738,260.72385 C427.876195,259.084125 424.405497,256.515262 422.16454,253.017183 C419.923583,249.519104 418.803122,245.857108 418.803122,242.031084 L418.803122,239.079595 C418.803122,231.208917 421.809238,224.923401 427.821561,220.222858 C433.833884,215.522314 441.7591,213.172078 451.597447,213.172078 L496.525673,213.172078 L496.525673,229.077326 L474.553475,225.46995 L474.553475,228.749382 C477.942239,229.842532 480.7024,232.00147 482.834042,235.226262 C484.965684,238.451053 486.031489,241.867094 486.031489,245.474488 L486.031489,248.425978 C486.031489,256.18734 483.080029,262.336215 477.177021,266.872786 C471.274013,271.409357 463.29414,273.677608 453.237163,273.677608 L440.77532,273.677608 C437.933131,273.677608 435.719536,274.360816 434.134469,275.727253 C432.549402,277.09369 431.75688,279.416599 431.75688,282.696048 C431.75688,285.866182 432.631387,288.18909 434.380426,289.664842 C436.129466,291.140594 438.589016,291.878459 441.75915,291.878459 L468.158582,291.878459 C477.013094,291.878459 484.145788,293.98274 489.556879,298.191366 C494.96797,302.399992 497.673474,309.095434 497.673474,318.277891 Z M452.417305,260.395906 C456.789904,260.395906 459.95999,259.275445 461.92766,257.034488 C463.895329,254.793531 464.879149,251.486803 464.879149,247.114205 L464.879149,240.883283 C464.879149,236.510684 463.868001,233.258613 461.845674,231.126971 C459.823347,228.995329 456.680589,227.929524 452.417305,227.929524 C448.154022,227.929524 445.011264,228.995329 442.988937,231.126971 C440.96661,233.258613 439.955462,236.510684 439.955462,240.883283 L439.955462,247.114205 C439.955462,251.486803 440.939282,254.793531 442.906951,257.034488 C444.87462,259.275445 448.044707,260.395906 452.417305,260.395906 Z M444.546667,331.231649 L467.338723,331.231649 C470.727487,331.231649 473.487649,330.439128 475.619291,328.854061 C477.750932,327.268994 478.816737,324.344862 478.816737,320.081579 C478.816737,316.036925 477.778261,313.249435 475.701276,311.719026 C473.624292,310.188616 471.000772,309.423423 467.830638,309.423423 L433.72454,309.423423 L433.72454,319.26172 C433.72454,323.197059 434.54439,326.175847 436.184114,328.198174 C437.823839,330.220501 440.611329,331.231649 444.546667,331.231649 Z M557.032057,313.030799 C549.81727,313.030799 542.76656,311.937665 535.879718,309.751366 C528.992875,307.565067 523.089955,304.668264 518.170782,301.06087 L524.237732,285.811508 C529.156905,288.981642 534.540587,291.577834 540.388937,293.600161 C546.237288,295.622488 551.784939,296.633636 557.032057,296.633636 C562.060546,296.633636 565.995826,295.759129 568.838015,294.01009 C571.680204,292.26105 573.101277,289.364247 573.101277,285.319594 C573.101277,281.05631 571.762189,278.050194 569.083972,276.301154 C566.405755,274.552115 561.131387,272.693788 553.26071,270.726119 C541.891954,267.993245 533.638798,264.46789 528.500994,260.149949 C523.363191,255.832008 520.794328,249.464507 520.794328,241.047254 C520.794328,231.864797 524.019071,224.650118 530.468654,219.403 C536.918237,214.155881 545.390019,211.532361 555.884256,211.532361 C562.443154,211.532361 568.837983,212.570838 575.068936,214.647822 C581.299889,216.724807 586.765556,219.45764 591.466099,222.846404 L586.219007,237.767822 C581.627779,234.925633 576.845321,232.575396 571.87149,230.717042 C566.897659,228.858687 562.060544,227.929524 557.360001,227.929524 C553.096717,227.929524 549.762661,228.776702 547.357731,230.471084 C544.952802,232.165466 543.750356,234.925628 543.750356,238.751652 C543.750356,242.796305 545.280742,245.693108 548.341561,247.442148 C551.40238,249.191187 557.359956,251.26814 566.214469,253.67307 C576.927335,256.187314 584.579268,259.68534 589.170496,264.167254 C593.761725,268.649167 596.057305,274.98934 596.057305,283.187962 C596.057305,292.370419 592.53195,299.639756 585.481135,304.996189 C578.43032,310.352622 568.947389,313.030799 557.032057,313.030799 Z M55.1106369,490.932806 L24.9398575,389.762312 L24.9398575,490.932806 L5.2632623,490.932806 L5.2632623,359.755505 L31.4987226,359.755505 L63.3092182,463.05763 L63.3092182,359.755505 L82.9858135,359.755505 L82.9858135,490.932806 L55.1106369,490.932806 Z M185.632906,468.796637 C182.900032,477.323204 178.718797,483.417422 173.089077,487.079473 C167.459356,490.741524 159.014902,492.572523 147.75546,492.572523 C135.949444,492.572523 126.52117,489.539078 119.470355,483.472097 C112.419539,477.405117 108.894185,468.687379 108.894185,457.318623 L108.894185,426.000042 C108.894185,414.740601 112.364883,406.07752 119.306383,400.010539 C126.247883,393.943559 135.457531,390.910114 146.935602,390.910114 C158.522988,390.910114 167.705308,394.025544 174.482835,400.256497 C181.260363,406.48745 184.649076,415.560455 184.649076,427.475787 L184.649076,446.168552 L131.850212,446.168552 L131.850212,458.138481 C131.850212,464.369434 133.134644,468.960593 135.703546,471.912098 C138.272447,474.863602 142.453682,476.339331 148.247375,476.339331 C153.275863,476.339331 157.156486,475.355512 159.889361,473.387842 C162.622235,471.420173 164.699188,468.03146 166.120282,463.221601 L185.632906,468.796637 Z M131.850212,424.852241 L131.850212,432.394935 L161.693049,432.394935 L161.693049,426.000042 C161.693049,419.113199 160.545259,414.1941 158.249644,411.242596 C155.95403,408.291092 152.128064,406.815362 146.77163,406.815362 C141.415197,406.815362 137.589231,408.236435 135.293617,411.078624 C132.998002,413.920813 131.850212,418.511973 131.850212,424.852241 Z M264.668084,492.572523 C253.955218,492.572523 245.647405,489.675719 239.744397,483.882026 C233.841389,478.088333 230.889929,469.999147 230.889929,459.614226 L230.889929,410.094794 L210.393476,410.094794 L210.393476,392.54983 L230.889929,392.54983 L230.889929,359.755505 L253.845957,359.755505 L253.845957,392.54983 L285.656453,392.54983 L285.656453,410.094794 L253.845957,410.094794 L253.845957,457.482594 C253.845957,463.057658 255.021075,467.266221 257.371347,470.10841 C259.721619,472.950599 263.13766,474.371672 267.619574,474.371672 C270.680393,474.371672 273.631852,474.043732 276.474041,473.387842 C279.316231,472.731952 281.885094,471.966759 284.180708,471.092239 L286.968226,488.637203 C284.672611,489.730353 281.502525,490.659516 277.457871,491.424721 C273.413218,492.189926 269.149998,492.572523 264.668084,492.572523 Z M363.215886,490.932806 L352.065816,435.674368 L341.571631,490.932806 L320.25532,490.932806 L306.809647,392.54983 L326.650213,392.54983 L334.35688,464.533374 L343.867234,409.438908 L359.60851,409.438908 L370.266666,463.713516 L377.481418,392.54983 L397.485956,392.54983 L383.876311,490.932806 L363.215886,490.932806 Z M455.040851,492.572523 C443.016205,492.572523 433.669916,489.484421 427.001703,483.308126 C420.33349,477.13183 416.999434,468.523406 416.999434,457.482594 L416.999434,426.655928 C416.999434,415.396487 420.360819,406.624093 427.083689,400.338482 C433.806559,394.052872 443.12552,390.910114 455.040851,390.910114 C466.846868,390.910114 476.111172,394.0802 482.834042,400.420468 C489.556912,406.760736 492.918297,415.560459 492.918297,426.8199 L492.918297,457.810538 C492.918297,468.742034 489.556912,477.268473 482.834042,483.390111 C476.111172,489.511749 466.846868,492.572523 455.040851,492.572523 Z M455.040851,475.027558 C460.178655,475.027558 463.949964,473.606485 466.354894,470.764296 C468.759823,467.922107 469.962269,463.330947 469.962269,456.990679 L469.962269,427.147843 C469.962269,420.588946 468.759823,415.833816 466.354894,412.882312 C463.949964,409.930808 460.178655,408.455078 455.040851,408.455078 C449.903048,408.455078 446.10441,409.930808 443.644823,412.882312 C441.185237,415.833816 439.955462,420.534289 439.955462,426.983872 L439.955462,456.662736 C439.955462,463.112319 441.185237,467.785464 443.644823,470.68231 C446.10441,473.579157 449.903048,475.027558 455.040851,475.027558 Z M523.417874,490.932806 L523.417874,392.54983 L546.537873,392.54983 L546.537873,408.946993 L550.637164,408.946993 C552.495518,402.71604 555.556291,398.152208 559.819575,395.255362 C564.082859,392.358515 569.111272,390.910114 574.904965,390.910114 C581.791808,390.910114 587.120832,393.287679 590.892198,398.04288 C594.663565,402.798081 596.54922,409.548178 596.54922,418.293376 L596.54922,434.690538 L575.560851,434.690538 L575.560851,425.344155 C575.560851,419.769092 574.713673,415.751828 573.019291,413.292241 C571.324909,410.832654 568.455434,409.602879 564.410781,409.602879 C560.912702,409.602879 557.578645,410.696013 554.408511,412.882312 C551.238377,415.068611 548.614858,418.511981 546.537873,423.212524 L546.537873,490.932806 L523.417874,490.932806 Z M648.201136,447.808268 L648.201136,490.932806 L625.245108,490.932806 L625.245108,359.755505 L648.201136,359.755505 L648.201136,431.411106 L653.940143,431.411106 L676.568228,392.54983 L701,392.54983 L672.468937,437.642028 L700.508085,490.932806 L675.748369,490.932806 L653.940143,447.808268 L648.201136,447.808268 Z"/>
</svg>
