<svg xmlns="http://www.w3.org/2000/svg" width="28" height="44" viewBox="0 0 28 44">
  <path fill="#1F2033" fill-rule="evenodd" stroke="currentColor" stroke-width="1.5" d="M1.56363636,43 L1.56363636,34.4472727 C1.56363636,31.2569537 2.13211553,28.8048571 3.26909091,27.0909091 C4.40606629,25.3769611 6.50180291,23.8072799 9.55636364,22.3818182 L14.1890909,20.3454545 C15.9200087,19.530905 17.0993908,18.7503068 17.7272727,18.0036364 C18.3551547,17.256966 18.6690909,16.0690991 18.6690909,14.44 L18.6690909,12.76 C18.6690909,10.8254449 18.3042461,9.41697411 17.5745455,8.53454545 C16.8448448,7.6521168 15.6145541,7.21090909 13.8836364,7.21090909 C12.1866582,7.21090909 11.0157608,7.73696444 10.3709091,8.78909091 C9.72605738,9.84121738 9.3018192,11.9284692 9.09818182,15.0509091 L1.97090909,14.5418182 C2.20848604,9.95997709 3.23514244,6.68485833 5.05090909,4.71636364 C6.86667575,2.74786895 9.7939192,1.76363636 13.8327273,1.76363636 C17.8715353,1.76363636 20.8751417,2.66302131 22.8436364,4.46181818 C24.8121311,6.26061505 25.7963636,8.92483084 25.7963636,12.4545455 L25.7963636,15.3563636 C25.7963636,17.96971 25.1854607,20.0145381 23.9636364,21.4909091 C22.7418121,22.9672801 20.7224383,24.3842356 17.9054545,25.7418182 L13.2727273,27.7781818 C11.4399908,28.6266709 10.2181849,29.4751473 9.60727273,30.3236364 C8.99636058,31.1721255 8.69090909,32.5127181 8.69090909,34.3454545 L8.69090909,37.3490909 L26.2545455,37.3490909 L26.2545455,43 L1.56363636,43 Z"/>
</svg>
