<svg xmlns="http://www.w3.org/2000/svg" width="28" height="45" viewBox="0 0 28 45">
  <path fill="#1F2033" fill-rule="evenodd" stroke="currentColor" stroke-width="1.5" d="M13.8836364,43.5090909 C9.94664698,43.5090909 6.9091016,42.0666811 4.77090909,39.1818182 C2.63271658,36.2969553 1.56363636,32.1903297 1.56363636,26.8618182 L1.56363636,18.6145455 C1.56363636,13.1842153 2.63271658,9.01819633 4.77090909,6.11636364 C6.9091016,3.21453095 9.96361651,1.76363636 13.9345455,1.76363636 C17.8715348,1.76363636 20.9090802,3.21453095 23.0472727,6.11636364 C25.1854652,9.01819633 26.2545455,13.1842153 26.2545455,18.6145455 L26.2545455,26.8618182 C26.2545455,32.1903297 25.1854652,36.2969553 23.0472727,39.1818182 C20.9090802,42.0666811 17.8545653,43.5090909 13.8836364,43.5090909 Z M13.8836364,38.0618182 C16.0218289,38.0618182 17.523632,37.1963723 18.3890909,35.4654545 C19.2545498,33.7345368 19.6872727,30.7479 19.6872727,26.5054545 L19.6872727,18.9709091 C19.6872727,14.6266449 19.2545498,11.5806148 18.3890909,9.83272727 C17.523632,8.08483975 16.0218289,7.21090909 13.8836364,7.21090909 C11.7454439,7.21090909 10.2521255,8.08483975 9.40363636,9.83272727 C8.55514727,11.5806148 8.13090909,14.6266449 8.13090909,18.9709091 L8.13090909,26.5054545 C8.13090909,30.7479 8.55514727,33.7345368 9.40363636,35.4654545 C10.2521255,37.1963723 11.7454439,38.0618182 13.8836364,38.0618182 Z M13.8836364,26.76 C12.9672681,26.76 12.2290937,26.5733352 11.6690909,26.2 C11.1090881,25.8266648 10.8290909,25.1139447 10.8290909,24.0618182 L10.8290909,21.2618182 C10.8290909,20.2436313 11.1090881,19.5393959 11.6690909,19.1490909 C12.2290937,18.7587859 12.9672681,18.5636364 13.8836364,18.5636364 C14.8000046,18.5636364 15.538179,18.7587859 16.0981818,19.1490909 C16.6581846,19.5393959 16.9381818,20.2436313 16.9381818,21.2618182 L16.9381818,24.0618182 C16.9381818,25.1139447 16.6496999,25.8266648 16.0727273,26.2 C15.4957547,26.5733352 14.766065,26.76 13.8836364,26.76 Z"/>
</svg>
